font.ufo
<glyph name="numbersign" format="1">
	<unicode hex="0023"/>
	<advance width="513"/>
	<outline>
		<contour>
			<point x="88" y="0" type="line"/>
			<point x="158" y="0" type="line"/>
			<point x="182" y="195" type="line"/>
			<point x="299" y="195" type="line"/>
			<point x="276" y="0" type="line"/>
			<point x="346" y="0" type="line"/>
			<point x="369" y="195" type="line"/>
			<point x="463" y="195" type="line"/>
			<point x="463" y="271" type="line"/>
			<point x="378" y="271" type="line"/>
			<point x="394" y="400" type="line"/>
			<point x="483" y="400" type="line"/>
			<point x="483" y="476" type="line"/>
			<point x="403" y="476" type="line"/>
			<point x="424" y="650" type="line"/>
			<point x="356" y="650" type="line"/>
			<point x="333" y="476" type="line"/>
			<point x="216" y="476" type="line"/>
			<point x="237" y="650" type="line"/>
			<point x="168" y="650" type="line"/>
			<point x="146" y="476" type="line"/>
			<point x="55" y="476" type="line"/>
			<point x="55" y="400" type="line"/>
			<point x="136" y="400" type="line"/>
			<point x="120" y="271" type="line"/>
			<point x="35" y="271" type="line"/>
			<point x="35" y="195" type="line"/>
			<point x="112" y="195" type="line"/>
		</contour>
		<contour>
			<point x="190" y="271" type="line"/>
			<point x="206" y="400" type="line"/>
			<point x="324" y="400" type="line"/>
			<point x="308" y="271" type="line"/>
		</contour>
	</outline>
</glyph>
<glyph name="plus" format="1">
	<unicode hex="002B"/>
	<advance width="513"/>
	<outline>
		<contour>
			<point x="213" y="99" type="line"/>
			<point x="300" y="99" type="line"/>
			<point x="300" y="288" type="line"/>
			<point x="479" y="288" type="line"/>
			<point x="479" y="372" type="line"/>
			<point x="300" y="372" type="line"/>
			<point x="300" y="561" type="line"/>
			<point x="213" y="561" type="line"/>
			<point x="213" y="372" type="line"/>
			<point x="34" y="372" type="line"/>
			<point x="34" y="288" type="line"/>
			<point x="213" y="288" type="line"/>
		</contour>
	</outline>
</glyph>
<glyph name="slash" format="1">
	<unicode hex="002F"/>
	<advance width="344"/>
	<outline>
		<contour>
			<point x="12" y="-160" type="line"/>
			<point x="90" y="-160" type="line"/>
			<point x="323" y="710" type="line"/>
			<point x="245" y="710" type="line"/>
		</contour>
	</outline>
</glyph>
<glyph name="less" format="1">
	<unicode hex="003C"/>
	<advance width="513"/>
	<outline>
		<contour>
			<point x="479" y="117" type="line"/>
			<point x="479" y="214" type="line"/>
			<point x="286" y="282" type="line"/>
			<point x="151" y="330" type="line"/>
			<point x="151" y="334" type="line"/>
			<point x="286" y="382" type="line"/>
			<point x="479" y="450" type="line"/>
			<point x="479" y="547" type="line"/>
			<point x="34" y="374" type="line"/>
			<point x="34" y="290" type="line"/>
		</contour>
	</outline>
</glyph>
<glyph name="at" format="1">
	<unicode hex="0040"/>
	<advance width="875"/>
	<outline>
		<contour>
			<point x="416" y="-164" type="curve" smooth="yes"/>
			<point x="486" y="-164"/>
			<point x="549" y="-148"/>
			<point x="609" y="-114" type="curve"/>
			<point x="582" y="-50" type="line"/>
			<point x="538" y="-74"/>
			<point x="481" y="-91"/>
			<point x="425" y="-91" type="curve" smooth="yes"/>
			<point x="262" y="-91"/>
			<point x="130" y="11"/>
			<point x="130" y="208" type="curve" smooth="yes"/>
			<point x="130" y="437"/>
			<point x="300" y="586"/>
			<point x="475" y="586" type="curve" smooth="yes"/>
			<point x="664" y="586"/>
			<point x="750" y="462"/>
			<point x="750" y="310" type="curve" smooth="yes"/>
			<point x="750" y="191"/>
			<point x="685" y="117"/>
			<point x="623" y="117" type="curve" smooth="yes"/>
			<point x="574" y="117"/>
			<point x="556" y="150"/>
			<point x="573" y="218" type="curve" smooth="yes"/>
			<point x="616" y="429" type="line"/>
			<point x="543" y="429" type="line"/>
			<point x="530" y="388" type="line"/>
			<point x="528" y="388" type="line"/>
			<point x="510" y="422"/>
			<point x="484" y="437"/>
			<point x="450" y="437" type="curve" smooth="yes"/>
			<point x="334" y="437"/>
			<point x="253" y="312"/>
			<point x="253" y="198" type="curve" smooth="yes"/>
			<point x="253" y="107"/>
			<point x="306" y="52"/>
			<point x="379" y="52" type="curve" smooth="yes"/>
			<point x="422" y="52"/>
			<point x="470" y="80"/>
			<point x="500" y="120" type="curve"/>
			<point x="502" y="120" type="line"/>
			<point x="511" y="70"/>
			<point x="555" y="44"/>
			<point x="612" y="44" type="curve" smooth="yes"/>
			<point x="710" y="44"/>
			<point x="826" y="135"/>
			<point x="826" y="314" type="curve" smooth="yes"/>
			<point x="826" y="517"/>
			<point x="693" y="658"/>
			<point x="484" y="658" type="curve" smooth="yes"/>
			<point x="249" y="658"/>
			<point x="50" y="478"/>
			<point x="50" y="204" type="curve" smooth="yes"/>
			<point x="50" y="-40"/>
			<point x="218" y="-164"/>
		</contour>
		<contour>
			<point x="403" y="127" type="curve" smooth="yes"/>
			<point x="366" y="127"/>
			<point x="342" y="151"/>
			<point x="342" y="205" type="curve" smooth="yes"/>
			<point x="342" y="272"/>
			<point x="384" y="361"/>
			<point x="453" y="361" type="curve" smooth="yes"/>
			<point x="476" y="361"/>
			<point x="493" y="350"/>
			<point x="508" y="326" type="curve"/>
			<point x="482" y="179" type="line"/>
			<point x="452" y="142"/>
			<point x="427" y="127"/>
		</contour>
	</outline>
</glyph>
<glyph name="K" format="1">
	<unicode hex="004B"/>
	<advance width="597"/>
	<outline>
		<contour>
			<point x="83" y="0" type="line"/>
			<point x="199" y="0" type="line"/>
			<point x="199" y="191" type="line"/>
			<point x="293" y="308" type="line"/>
			<point x="470" y="0" type="line"/>
			<point x="598" y="0" type="line"/>
			<point x="363" y="399" type="line"/>
			<point x="564" y="654" type="line"/>
			<point x="435" y="654" type="line"/>
			<point x="202" y="357" type="line"/>
			<point x="199" y="357" type="line"/>
			<point x="199" y="654" type="line"/>
			<point x="83" y="654" type="line"/>
		</contour>
		<contour>
			<point name="aboveUC" x="315" y="676" type="move"/>
		</contour>
		<contour>
			<point name="belowLC" x="330" y="-22" type="move"/>
		</contour>
	</outline>
</glyph>
<glyph name="V" format="1">
	<unicode hex="0056"/>
	<advance width="536"/>
	<outline>
		<contour>
			<point x="200" y="0" type="line"/>
			<point x="337" y="0" type="line"/>
			<point x="540" y="654" type="line"/>
			<point x="421" y="654" type="line"/>
			<point x="330" y="325" type="line" smooth="yes"/>
			<point x="310" y="251"/>
			<point x="295" y="187"/>
			<point x="273" y="112" type="curve"/>
			<point x="269" y="112" type="line"/>
			<point x="247" y="187"/>
			<point x="232" y="251"/>
			<point x="211" y="325" type="curve" smooth="yes"/>
			<point x="119" y="654" type="line"/>
			<point x="-4" y="654" type="line"/>
		</contour>
		<contour>
			<point name="aboveUC" x="268" y="676" type="move"/>
		</contour>
		<contour>
			<point name="belowLC" x="267" y="-22" type="move"/>
		</contour>
	</outline>
</glyph>
<glyph name="backslash" format="1">
	<unicode hex="005C"/>
	<advance width="344"/>
	<outline>
		<contour>
			<point x="255" y="-160" type="line"/>
			<point x="333" y="-160" type="line"/>
			<point x="99" y="710" type="line"/>
			<point x="21" y="710" type="line"/>
		</contour>
	</outline>
</glyph>
<glyph name="grave" format="1">
	<unicode hex="0060"/>
	<advance width="549"/>
	<outline>
		<component base="gravecmb" xOffset="274"/>
		<contour>
			<point name="_aboveLC" x="274" y="514" type="move"/>
		</contour>
	</outline>
</glyph>
<glyph name="w" format="1">
	<unicode hex="0077"/>
	<advance width="748"/>
	<outline>
		<contour>
			<point x="154" y="0" type="line"/>
			<point x="286" y="0" type="line"/>
			<point x="342" y="228" type="line"/>
			<point x="353" y="274"/>
			<point x="362" y="320"/>
			<point x="371" y="372" type="curve"/>
			<point x="375" y="372" type="line"/>
			<point x="386" y="320"/>
			<point x="394" y="275"/>
			<point x="405" y="229" type="curve"/>
			<point x="462" y="0" type="line"/>
			<point x="599" y="0" type="line"/>
			<point x="724" y="491" type="line"/>
			<point x="616" y="491" type="line"/>
			<point x="557" y="236" type="line"/>
			<point x="548" y="189"/>
			<point x="540" y="143"/>
			<point x="531" y="95" type="curve"/>
			<point x="527" y="95" type="line"/>
			<point x="516" y="143"/>
			<point x="506" y="189"/>
			<point x="494" y="236" type="curve"/>
			<point x="429" y="491" type="line"/>
			<point x="324" y="491" type="line"/>
			<point x="260" y="236" type="line"/>
			<point x="248" y="190"/>
			<point x="238" y="143"/>
			<point x="229" y="95" type="curve"/>
			<point x="225" y="95" type="line"/>
			<point x="216" y="143"/>
			<point x="209" y="189"/>
			<point x="199" y="236" type="curve"/>
			<point x="140" y="491" type="line"/>
			<point x="24" y="491" type="line"/>
		</contour>
		<contour>
			<point name="aboveLC" x="374" y="514" type="move"/>
		</contour>
		<contour>
			<point name="belowLC" x="374" y="-22" type="move"/>
		</contour>
	</outline>
</glyph>
<glyph name="braceleft" format="1">
	<unicode hex="007B"/>
	<advance width="324"/>
	<outline>
		<contour>
			<point x="232" y="-152" type="curve" smooth="yes"/>
			<point x="286" y="-152" type="line"/>
			<point x="286" y="-89" type="line"/>
			<point x="263" y="-89" type="line" smooth="yes"/>
			<point x="215" y="-89"/>
			<point x="202" y="-69"/>
			<point x="202" y="-9" type="curve" smooth="yes"/>
			<point x="202" y="48"/>
			<point x="207" y="99"/>
			<point x="207" y="163" type="curve" smooth="yes"/>
			<point x="207" y="233"/>
			<point x="187" y="264"/>
			<point x="140" y="276" type="curve"/>
			<point x="140" y="280" type="line"/>
			<point x="187" y="292"/>
			<point x="207" y="322"/>
			<point x="207" y="393" type="curve" smooth="yes"/>
			<point x="207" y="457"/>
			<point x="202" y="508"/>
			<point x="202" y="565" type="curve" smooth="yes"/>
			<point x="202" y="625"/>
			<point x="215" y="645"/>
			<point x="263" y="645" type="curve" smooth="yes"/>
			<point x="286" y="645" type="line"/>
			<point x="286" y="708" type="line"/>
			<point x="232" y="708" type="line" smooth="yes"/>
			<point x="148" y="708"/>
			<point x="109" y="676"/>
			<point x="109" y="570" type="curve" smooth="yes"/>
			<point x="109" y="498"/>
			<point x="118" y="454"/>
			<point x="118" y="388" type="curve" smooth="yes"/>
			<point x="118" y="352"/>
			<point x="99" y="314"/>
			<point x="32" y="313" type="curve"/>
			<point x="32" y="243" type="line"/>
			<point x="99" y="242"/>
			<point x="118" y="204"/>
			<point x="118" y="167" type="curve" smooth="yes"/>
			<point x="118" y="102"/>
			<point x="109" y="58"/>
			<point x="109" y="-14" type="curve" smooth="yes"/>
			<point x="109" y="-120"/>
			<point x="148" y="-152"/>
		</contour>
	</outline>
</glyph>
<glyph name="bar" format="1">
	<unicode hex="007C"/>
	<advance width="255"/>
	<outline>
		<contour>
			<point x="89" y="-250" type="line"/>
			<point x="166" y="-250" type="line"/>
			<point x="166" y="750" type="line"/>
			<point x="89" y="750" type="line"/>
		</contour>
	</outline>
</glyph>
<glyph name="dieresis" format="1">
	<unicode hex="00A8"/>
	<advance width="549"/>
	<outline>
		<component base="dieresiscmb" xOffset="274"/>
		<contour>
			<point name="_aboveLC" x="274" y="514" type="move"/>
		</contour>
	</outline>
</glyph>
<glyph name="paragraph" format="1">
	<unicode hex="00B6"/>
	<advance width="599"/>
	<outline>
		<contour>
			<point x="387" y="-80" type="line"/>
			<point x="503" y="-80" type="line"/>
			<point x="503" y="654" type="line"/>
			<point x="387" y="654" type="line"/>
		</contour>
		<contour>
			<point x="295" y="212" type="curve" smooth="yes"/>
			<point x="332" y="212" type="line"/>
			<point x="332" y="654" type="line"/>
			<point x="288" y="654" type="line" smooth="yes"/>
			<point x="149" y="654"/>
			<point x="40" y="598"/>
			<point x="40" y="436" type="curve" smooth="yes"/>
			<point x="40" y="284"/>
			<point x="152" y="212"/>
		</contour>
	</outline>
</glyph>
<glyph name="iogonek" format="1">
	<unicode hex="012F"/>
	<advance width="262"/>
	<outline>
		<contour>
			<point x="138" y="-208" type="curve" smooth="yes"/>
			<point x="166" y="-208"/>
			<point x="206" y="-196"/>
			<point x="228" y="-178" type="curve"/>
			<point x="202" y="-124" type="line"/>
			<point x="190" y="-132"/>
			<point x="178" y="-137"/>
			<point x="165" y="-137" type="curve" smooth="yes"/>
			<point x="141" y="-137"/>
			<point x="120" y="-123"/>
			<point x="120" y="-95" type="curve" smooth="yes"/>
			<point x="120" y="-60"/>
			<point x="142" y="-24"/>
			<point x="188" y="0" type="curve"/>
			<point x="188" y="491" type="line"/>
			<point x="73" y="491" type="line"/>
			<point x="73" y="0" type="line"/>
			<point x="104" y="0" type="line"/>
			<point x="78" y="-24"/>
			<point x="40" y="-64"/>
			<point x="40" y="-120" type="curve" smooth="yes"/>
			<point x="40" y="-178"/>
			<point x="83" y="-208"/>
		</contour>
		<contour>
			<point x="130" y="577" type="curve" smooth="yes"/>
			<point x="171" y="577"/>
			<point x="202" y="604"/>
			<point x="202" y="642" type="curve" smooth="yes"/>
			<point x="202" y="681"/>
			<point x="171" y="708"/>
			<point x="130" y="708" type="curve" smooth="yes"/>
			<point x="90" y="708"/>
			<point x="59" y="681"/>
			<point x="59" y="642" type="curve" smooth="yes"/>
			<point x="59" y="604"/>
			<point x="90" y="577"/>
		</contour>
	</outline>
</glyph>
<glyph name="IJ" format="1">
	<unicode hex="0132"/>
	<advance width="565"/>
	<outline>
		<contour>
			<point x="83" y="0" type="line"/>
			<point x="199" y="0" type="line"/>
			<point x="199" y="654" type="line"/>
			<point x="83" y="654" type="line"/>
		</contour>
		<contour>
			<point x="325" y="-174" type="curve" smooth="yes"/>
			<point x="442" y="-174"/>
			<point x="482" y="-96"/>
			<point x="482" y="8" type="curve" smooth="yes"/>
			<point x="482" y="654" type="line"/>
			<point x="366" y="654" type="line"/>
			<point x="366" y="7" type="line" smooth="yes"/>
			<point x="366" y="-50"/>
			<point x="353" y="-80"/>
			<point x="309" y="-80" type="curve" smooth="yes"/>
			<point x="294" y="-80"/>
			<point x="280" y="-77"/>
			<point x="267" y="-73" type="curve"/>
			<point x="246" y="-160" type="line"/>
			<point x="264" y="-168"/>
			<point x="290" y="-174"/>
		</contour>
	</outline>
</glyph>
<glyph name="kgreenlandic" format="1">
	<unicode hex="0138"/>
	<advance width="522"/>
	<outline>
		<contour>
			<point x="73" y="0" type="line"/>
			<point x="188" y="0" type="line"/>
			<point x="188" y="121" type="line"/>
			<point x="263" y="210" type="line"/>
			<point x="389" y="0" type="line"/>
			<point x="514" y="0" type="line"/>
			<point x="331" y="291" type="line"/>
			<point x="497" y="491" type="line"/>
			<point x="371" y="491" type="line"/>
			<point x="192" y="263" type="line"/>
			<point x="188" y="263" type="line"/>
			<point x="188" y="491" type="line"/>
			<point x="73" y="491" type="line"/>
		</contour>
	</outline>
</glyph>
<glyph name="tbar" format="1">
	<unicode hex="0167"/>
	<advance width="361"/>
	<outline>
		<contour>
			<point x="20" y="227" type="line"/>
			<point x="331" y="227" type="line"/>
			<point x="331" y="286" type="line"/>
			<point x="96" y="286" type="line"/>
			<point x="20" y="281" type="line"/>
		</contour>
		<component base="t"/>
	</outline>
</glyph>
<glyph name="florin" format="1">
	<unicode hex="0192"/>
	<advance width="513"/>
	<outline>
		<contour>
			<point x="104" y="-97" type="curve" smooth="yes"/>
			<point x="227" y="-97"/>
			<point x="267" y="-7"/>
			<point x="281" y="113" type="curve" smooth="yes"/>
			<point x="322" y="470" type="line" smooth="yes"/>
			<point x="329" y="527"/>
			<point x="352" y="573"/>
			<point x="404" y="573" type="curve" smooth="yes"/>
			<point x="426" y="573"/>
			<point x="442" y="566"/>
			<point x="455" y="561" type="curve"/>
			<point x="478" y="648" type="line"/>
			<point x="459" y="657"/>
			<point x="423" y="666"/>
			<point x="396" y="666" type="curve" smooth="yes"/>
			<point x="277" y="666"/>
			<point x="226" y="600"/>
			<point x="210" y="460" type="curve" smooth="yes"/>
			<point x="175" y="144" type="line" smooth="yes"/>
			<point x="163" y="36"/>
			<point x="143" y="-4"/>
			<point x="88" y="-5" type="curve" smooth="yes"/>
			<point x="72" y="-5"/>
			<point x="56" y="-2"/>
			<point x="42" y="4" type="curve"/>
			<point x="24" y="-81" type="line"/>
			<point x="40" y="-90"/>
			<point x="69" y="-96"/>
		</contour>
		<contour>
			<point x="114" y="326" type="line"/>
			<point x="429" y="326" type="line"/>
			<point x="429" y="411" type="line"/>
			<point x="186" y="411" type="line"/>
			<point x="114" y="406" type="line"/>
		</contour>
	</outline>
</glyph>
<glyph name="aturned" format="1">
	<unicode hex="0250"/>
	<advance width="523"/>
	<outline>
		<contour>
			<point x="274" y="-12" type="curve" smooth="yes"/>
			<point x="347" y="-12"/>
			<point x="414" y="18"/>
			<point x="465" y="52" type="curve"/>
			<point x="423" y="129" type="line"/>
			<point x="380" y="103"/>
			<point x="338" y="81"/>
			<point x="290" y="81" type="curve" smooth="yes"/>
			<point x="210" y="81"/>
			<point x="184" y="126"/>
			<point x="182" y="176" type="curve"/>
			<point x="383" y="199"/>
			<point x="470" y="263"/>
			<point x="470" y="372" type="curve" smooth="yes"/>
			<point x="470" y="451"/>
			<point x="418" y="503"/>
			<point x="338" y="503" type="curve" smooth="yes"/>
			<point x="272" y="503"/>
			<point x="216" y="473"/>
			<point x="173" y="427" type="curve"/>
			<point x="170" y="427" type="line"/>
			<point x="161" y="491" type="line"/>
			<point x="66" y="491" type="line"/>
			<point x="66" y="207" type="line" smooth="yes"/>
			<point x="66" y="68"/>
			<point x="134" y="-12"/>
		</contour>
		<contour>
			<point x="182" y="249" type="curve"/>
			<point x="182" y="349" type="line"/>
			<point x="220" y="392"/>
			<point x="257" y="413"/>
			<point x="296" y="413" type="curve" smooth="yes"/>
			<point x="332" y="413"/>
			<point x="359" y="395"/>
			<point x="359" y="354" type="curve" smooth="yes"/>
			<point x="359" y="303"/>
			<point x="315" y="267"/>
		</contour>
		<contour>
			<point name="ogonekLC" x="346" y="0" type="move"/>
		</contour>
		<contour>
			<point name="aboveLC" x="279" y="514" type="move"/>
		</contour>
		<contour>
			<point name="belowLC" x="282" y="-22" type="move"/>
		</contour>
	</outline>
</glyph>
<glyph name="ghook" format="1">
	<unicode hex="0260"/>
	<advance width="571"/>
	<outline>
		<contour>
			<point x="260" y="-205" type="curve" smooth="yes"/>
			<point x="410" y="-205"/>
			<point x="494" y="-134"/>
			<point x="494" y="-10" type="curve" smooth="yes"/>
			<point x="494" y="468" type="line" smooth="yes"/>
			<point x="494" y="519"/>
			<point x="509" y="550"/>
			<point x="550" y="550" type="curve" smooth="yes"/>
			<point x="559" y="550"/>
			<point x="568" y="548"/>
			<point x="576" y="545" type="curve"/>
			<point x="597" y="631" type="line"/>
			<point x="581" y="637"/>
			<point x="562" y="641"/>
			<point x="534" y="641" type="curve" smooth="yes"/>
			<point x="425" y="641"/>
			<point x="382" y="570"/>
			<point x="382" y="486" type="curve"/>
			<point x="382" y="449" type="line"/>
			<point x="344" y="482"/>
			<point x="309" y="503"/>
			<point x="257" y="503" type="curve" smooth="yes"/>
			<point x="150" y="503"/>
			<point x="47" y="406"/>
			<point x="47" y="254" type="curve" smooth="yes"/>
			<point x="47" y="106"/>
			<point x="126" y="9"/>
			<point x="248" y="9" type="curve" smooth="yes"/>
			<point x="300" y="9"/>
			<point x="347" y="33"/>
			<point x="382" y="66" type="curve"/>
			<point x="379" y="-10" type="line" smooth="yes"/>
			<point x="376" y="-73"/>
			<point x="341" y="-114"/>
			<point x="260" y="-114" type="curve" smooth="yes"/>
			<point x="217" y="-114"/>
			<point x="167" y="-102"/>
			<point x="120" y="-73" type="curve"/>
			<point x="80" y="-151" type="line"/>
			<point x="134" y="-186"/>
			<point x="203" y="-205"/>
		</contour>
		<contour>
			<point x="277" y="103" type="curve" smooth="yes"/>
			<point x="206" y="103"/>
			<point x="164" y="160"/>
			<point x="164" y="255" type="curve" smooth="yes"/>
			<point x="164" y="349"/>
			<point x="216" y="408"/>
			<point x="279" y="408" type="curve" smooth="yes"/>
			<point x="312" y="408"/>
			<point x="346" y="397"/>
			<point x="379" y="367" type="curve"/>
			<point x="379" y="159" type="line"/>
			<point x="346" y="120"/>
			<point x="315" y="103"/>
		</contour>
		<contour>
			<point name="aboveLC" x="293" y="514" type="move"/>
		</contour>
	</outline>
</glyph>
<glyph name="gscript" format="1">
	<unicode hex="0261"/>
	<advance width="571"/>
	<outline>
		<contour>
			<point x="260" y="-205" type="curve" smooth="yes"/>
			<point x="410" y="-205"/>
			<point x="494" y="-134"/>
			<point x="494" y="-10" type="curve" smooth="yes"/>
			<point x="494" y="491" type="line"/>
			<point x="400" y="491" type="line"/>
			<point x="392" y="446" type="line"/>
			<point x="388" y="446" type="line"/>
			<point x="349" y="485"/>
			<point x="309" y="503"/>
			<point x="257" y="503" type="curve" smooth="yes"/>
			<point x="150" y="503"/>
			<point x="47" y="406"/>
			<point x="47" y="254" type="curve" smooth="yes"/>
			<point x="47" y="106"/>
			<point x="126" y="9"/>
			<point x="248" y="9" type="curve" smooth="yes"/>
			<point x="300" y="9"/>
			<point x="347" y="33"/>
			<point x="382" y="66" type="curve"/>
			<point x="379" y="-10" type="line"/>
			<point x="376" y="-73"/>
			<point x="341" y="-114"/>
			<point x="260" y="-114" type="curve" smooth="yes"/>
			<point x="217" y="-114"/>
			<point x="167" y="-102"/>
			<point x="120" y="-73" type="curve"/>
			<point x="80" y="-151" type="line"/>
			<point x="134" y="-186"/>
			<point x="203" y="-205"/>
		</contour>
		<contour>
			<point x="277" y="103" type="curve" smooth="yes"/>
			<point x="206" y="103"/>
			<point x="164" y="160"/>
			<point x="164" y="255" type="curve" smooth="yes"/>
			<point x="164" y="349"/>
			<point x="216" y="408"/>
			<point x="279" y="408" type="curve" smooth="yes"/>
			<point x="312" y="408"/>
			<point x="346" y="397"/>
			<point x="379" y="367" type="curve"/>
			<point x="379" y="159" type="line"/>
			<point x="346" y="120"/>
			<point x="315" y="103"/>
		</contour>
		<contour>
			<point name="aboveLC" x="293" y="514" type="move"/>
		</contour>
		<contour>
			<point name="belowLC" x="283" y="-218" type="move"/>
		</contour>
	</outline>
</glyph>
<glyph name="gammalatin" format="1">
	<unicode hex="0263"/>
	<advance width="495"/>
	<outline>
		<contour>
			<point x="183" y="49" type="line"/>
			<point x="316" y="49" type="line"/>
			<point x="483" y="491" type="line"/>
			<point x="372" y="491" type="line"/>
			<point x="294" y="258" type="line"/>
			<point x="280" y="215"/>
			<point x="266" y="182"/>
			<point x="252" y="138" type="curve"/>
			<point x="248" y="138" type="line"/>
			<point x="235" y="182"/>
			<point x="220" y="215"/>
			<point x="207" y="258" type="curve"/>
			<point x="129" y="491" type="line"/>
			<point x="12" y="491" type="line"/>
		</contour>
		<contour>
			<point x="250" y="-217" type="curve" smooth="yes"/>
			<point x="332" y="-217"/>
			<point x="383" y="-165"/>
			<point x="383" y="-87" type="curve" smooth="yes"/>
			<point x="383" y="-30"/>
			<point x="354" y="15"/>
			<point x="307" y="104" type="curve"/>
			<point x="194" y="104" type="line"/>
			<point x="147" y="15"/>
			<point x="118" y="-30"/>
			<point x="118" y="-87" type="curve" smooth="yes"/>
			<point x="118" y="-165"/>
			<point x="168" y="-217"/>
		</contour>
		<contour>
			<point x="250" y="-142" type="curve" smooth="yes"/>
			<point x="227" y="-142"/>
			<point x="214" y="-123"/>
			<point x="214" y="-95" type="curve" smooth="yes"/>
			<point x="214" y="-65"/>
			<point x="226" y="-26"/>
			<point x="247" y="18" type="curve"/>
			<point x="252" y="18" type="line"/>
			<point x="275" y="-26"/>
			<point x="287" y="-63"/>
			<point x="287" y="-95" type="curve" smooth="yes"/>
			<point x="287" y="-123"/>
			<point x="274" y="-142"/>
		</contour>
		<contour>
			<point name="aboveLC" x="249" y="514" type="move"/>
		</contour>
		<contour>
			<point name="belowLC" x="249" y="-22" type="move"/>
		</contour>
	</outline>
</glyph>
<glyph name="hturned" format="1">
	<unicode hex="0265"/>
	<advance width="560"/>
	<outline>
		<contour>
			<point x="371" y="-194" type="line"/>
			<point x="486" y="-194" type="line"/>
			<point x="486" y="491" type="line"/>
			<point x="371" y="491" type="line"/>
			<point x="371" y="155" type="line"/>
			<point x="333" y="106"/>
			<point x="302" y="87"/>
			<point x="259" y="87" type="curve" smooth="yes"/>
			<point x="206" y="87"/>
			<point x="183" y="117"/>
			<point x="183" y="198" type="curve" smooth="yes"/>
			<point x="183" y="491" type="line"/>
			<point x="68" y="491" type="line"/>
			<point x="68" y="183" type="line" smooth="yes"/>
			<point x="68" y="59"/>
			<point x="114" y="-12"/>
			<point x="219" y="-12" type="curve" smooth="yes"/>
			<point x="286" y="-12"/>
			<point x="335" y="22"/>
			<point x="377" y="68" type="curve"/>
			<point x="371" y="-32" type="line"/>
		</contour>
		<contour>
			<point name="aboveLC" x="279" y="514" type="move"/>
		</contour>
		<contour>
			<point name="belowLC" x="297" y="-22" type="move"/>
		</contour>
	</outline>
</glyph>
<glyph name="shook" format="1">
	<unicode hex="0282"/>
	<advance width="431"/>
	<outline>
		<contour>
			<point x="210" y="-12" type="curve" smooth="yes"/>
			<point x="334" y="-12"/>
			<point x="401" y="56"/>
			<point x="401" y="140" type="curve" smooth="yes"/>
			<point x="401" y="232"/>
			<point x="327" y="264"/>
			<point x="260" y="289" type="curve" smooth="yes"/>
			<point x="207" y="308"/>
			<point x="158" y="323"/>
			<point x="158" y="362" type="curve" smooth="yes"/>
			<point x="158" y="393"/>
			<point x="181" y="416"/>
			<point x="230" y="416" type="curve" smooth="yes"/>
			<point x="269" y="416"/>
			<point x="304" y="399"/>
			<point x="338" y="374" type="curve"/>
			<point x="391" y="444" type="line"/>
			<point x="351" y="475"/>
			<point x="296" y="503"/>
			<point x="228" y="503" type="curve" smooth="yes"/>
			<point x="118" y="503"/>
			<point x="49" y="442"/>
			<point x="49" y="356" type="curve" smooth="yes"/>
			<point x="49" y="274"/>
			<point x="122" y="237"/>
			<point x="187" y="213" type="curve" smooth="yes"/>
			<point x="239" y="193"/>
			<point x="292" y="175"/>
			<point x="292" y="134" type="curve" smooth="yes"/>
			<point x="292" y="100"/>
			<point x="267" y="75"/>
			<point x="214" y="75" type="curve" smooth="yes"/>
			<point x="164" y="75"/>
			<point x="122" y="91"/>
			<point x="78" y="123" type="curve"/>
			<point x="24" y="50" type="line"/>
			<point x="72" y="12"/>
			<point x="143" y="-12"/>
		</contour>
		<contour>
			<point x="168" y="-185" type="curve" smooth="yes"/>
			<point x="204" y="-185"/>
			<point x="229" y="-179"/>
			<point x="248" y="-172" type="curve"/>
			<point x="226" y="-88" type="line"/>
			<point x="213" y="-92"/>
			<point x="199" y="-96"/>
			<point x="184" y="-96" type="curve" smooth="yes"/>
			<point x="140" y="-96"/>
			<point x="126" y="-63"/>
			<point x="126" y="-6" type="curve"/>
			<point x="126" y="52" type="line"/>
			<point x="24" y="50" type="line"/>
			<point x="24" y="-4" type="line" smooth="yes"/>
			<point x="24" y="-108"/>
			<point x="61" y="-185"/>
		</contour>
		<contour>
			<point name="aboveLC" x="228" y="514" type="move"/>
		</contour>
	</outline>
</glyph>
<glyph name="Lsmall" format="1">
	<unicode hex="029F"/>
	<advance width="422"/>
	<outline>
		<contour>
			<point x="73" y="0" type="line"/>
			<point x="396" y="0" type="line"/>
			<point x="396" y="92" type="line"/>
			<point x="188" y="92" type="line"/>
			<point x="188" y="491" type="line"/>
			<point x="73" y="491" type="line"/>
		</contour>
		<contour>
			<point name="aboveUC" x="136" y="563" type="move"/>
		</contour>
		<contour>
			<point name="belowLC" x="252" y="-22" type="move"/>
		</contour>
	</outline>
</glyph>
<glyph name="caron" format="1">
	<unicode hex="02C7"/>
	<advance width="549"/>
	<outline>
		<component base="caroncmb" xOffset="274"/>
		<contour>
			<point name="_aboveLC" x="274" y="514" type="move"/>
		</contour>
	</outline>
</glyph>
<glyph name="gammalatinsupmod" format="1">
	<unicode hex="02E0"/>
	<advance width="336"/>
	<outline>
		<contour>
			<point x="122" y="419" type="line"/>
			<point x="217" y="419" type="line"/>
			<point x="328" y="710" type="line"/>
			<point x="249" y="710" type="line"/>
			<point x="199" y="560" type="line"/>
			<point x="190" y="532"/>
			<point x="180" y="510"/>
			<point x="172" y="481" type="curve"/>
			<point x="169" y="481" type="line"/>
			<point x="160" y="510"/>
			<point x="150" y="532"/>
			<point x="142" y="560" type="curve"/>
			<point x="91" y="710" type="line"/>
			<point x="8" y="710" type="line"/>
		</contour>
		<contour>
			<point x="170" y="242" type="curve" smooth="yes"/>
			<point x="227" y="242"/>
			<point x="263" y="278"/>
			<point x="263" y="331" type="curve" smooth="yes"/>
			<point x="263" y="368"/>
			<point x="243" y="398"/>
			<point x="210" y="458" type="curve"/>
			<point x="130" y="458" type="line"/>
			<point x="98" y="398"/>
			<point x="78" y="368"/>
			<point x="78" y="331" type="curve" smooth="yes"/>
			<point x="78" y="278"/>
			<point x="113" y="242"/>
		</contour>
		<contour>
			<point x="170" y="295" type="curve" smooth="yes"/>
			<point x="155" y="295"/>
			<point x="146" y="307"/>
			<point x="146" y="325" type="curve" smooth="yes"/>
			<point x="146" y="344"/>
			<point x="154" y="368"/>
			<point x="168" y="398" type="curve"/>
			<point x="171" y="398" type="line"/>
			<point x="187" y="368"/>
			<point x="194" y="345"/>
			<point x="194" y="325" type="curve" smooth="yes"/>
			<point x="194" y="307"/>
			<point x="185" y="295"/>
		</contour>
	</outline>
</glyph>
<glyph name="gravecmb" format="1">
	<unicode hex="0300"/>
	<outline>
		<contour>
			<point x="2" y="573" type="line"/>
			<point x="59" y="630" type="line"/>
			<point x="-88" y="804" type="line"/>
			<point x="-168" y="728" type="line"/>
		</contour>
		<contour>
			<point name="_aboveLC" x="0" y="514" type="move"/>
		</contour>
	</outline>
</glyph>
<glyph name="dotaccentcmb" format="1">
	<unicode hex="0307"/>
	<outline>
		<contour>
			<point x="0" y="577" type="curve" smooth="yes"/>
			<point x="40" y="577"/>
			<point x="68" y="604"/>
			<point x="68" y="643" type="curve" smooth="yes"/>
			<point x="68" y="681"/>
			<point x="40" y="708"/>
			<point x="0" y="708" type="curve" smooth="yes"/>
			<point x="-40" y="708"/>
			<point x="-68" y="681"/>
			<point x="-68" y="643" type="curve" smooth="yes"/>
			<point x="-68" y="604"/>
			<point x="-40" y="577"/>
		</contour>
		<contour>
			<point name="_aboveLC" x="0" y="514" type="move"/>
		</contour>
		<contour>
			<point name="aboveLC" x="0" y="708" type="move"/>
		</contour>
	</outline>
</glyph>
<glyph name="uptackbelowcmb" format="1">
	<unicode hex="031D"/>
	<outline>
		<contour>
			<point x="102" y="-220" type="line"/>
			<point x="102" y="-161" type="line"/>
			<point x="32" y="-161" type="line"/>
			<point x="32" y="-56" type="line"/>
			<point x="-32" y="-56" type="line"/>
			<point x="-32" y="-161" type="line"/>
			<point x="-102" y="-161" type="line"/>
			<point x="-102" y="-220" type="line"/>
		</contour>
		<contour>
			<point name="_belowLC" x="0" y="-22" type="move"/>
		</contour>
	</outline>
</glyph>
<glyph name="delta" format="1">
	<unicode hex="03B4"/>
	<advance width="540"/>
	<outline>
		<contour>
			<point x="271" y="-12" type="curve" smooth="yes"/>
			<point x="412" y="-12"/>
			<point x="496" y="82"/>
			<point x="496" y="221" type="curve" smooth="yes"/>
			<point x="496" y="333"/>
			<point x="433" y="394"/>
			<point x="347" y="456" type="curve" smooth="yes"/>
			<point x="270" y="512"/>
			<point x="204" y="550"/>
			<point x="204" y="593" type="curve" smooth="yes"/>
			<point x="204" y="614"/>
			<point x="223" y="632"/>
			<point x="266" y="632" type="curve" smooth="yes"/>
			<point x="316" y="632"/>
			<point x="379" y="618"/>
			<point x="455" y="591" type="curve"/>
			<point x="482" y="679" type="line"/>
			<point x="407" y="704"/>
			<point x="334" y="718"/>
			<point x="267" y="718" type="curve" smooth="yes"/>
			<point x="150" y="718"/>
			<point x="96" y="664"/>
			<point x="96" y="603" type="curve" smooth="yes"/>
			<point x="96" y="511"/>
			<point x="178" y="454"/>
			<point x="253" y="403" type="curve" smooth="yes"/>
			<point x="323" y="355"/>
			<point x="384" y="306"/>
			<point x="384" y="221" type="curve" smooth="yes"/>
			<point x="384" y="132"/>
			<point x="344" y="82"/>
			<point x="273" y="82" type="curve" smooth="yes"/>
			<point x="211" y="82"/>
			<point x="156" y="131"/>
			<point x="156" y="214" type="curve" smooth="yes"/>
			<point x="156" y="301"/>
			<point x="211" y="357"/>
			<point x="299" y="376" type="curve"/>
			<point x="246" y="440" type="line"/>
			<point x="140" y="410"/>
			<point x="46" y="335"/>
			<point x="46" y="212" type="curve" smooth="yes"/>
			<point x="46" y="72"/>
			<point x="152" y="-12"/>
		</contour>
	</outline>
</glyph>
<glyph name="El" format="1">
	<unicode hex="041B"/>
	<advance width="644"/>
	<outline>
		<contour>
			<point x="61" y="-12" type="curve" smooth="yes"/>
			<point x="153" y="-12"/>
			<point x="201" y="41"/>
			<point x="241" y="251" type="curve" smooth="yes"/>
			<point x="260" y="352"/>
			<point x="277" y="450"/>
			<point x="296" y="556" type="curve"/>
			<point x="445" y="556" type="line"/>
			<point x="445" y="0" type="line"/>
			<point x="561" y="0" type="line"/>
			<point x="561" y="654" type="line"/>
			<point x="206" y="654" type="line"/>
			<point x="182" y="519"/>
			<point x="160" y="392"/>
			<point x="134" y="263" type="curve" smooth="yes"/>
			<point x="103" y="116"/>
			<point x="78" y="98"/>
			<point x="45" y="98" type="curve" smooth="yes"/>
			<point x="34" y="98"/>
			<point x="26" y="100"/>
			<point x="17" y="102" type="curve"/>
			<point x="-5" y="-3" type="line"/>
			<point x="14" y="-10"/>
			<point x="33" y="-12"/>
		</contour>
	</outline>
</glyph>
<glyph name="Shcha" format="1">
	<unicode hex="0429"/>
	<advance width="900"/>
	<outline>
		<contour>
			<point x="768" y="-188" type="line"/>
			<point x="870" y="-188" type="line"/>
			<point x="881" y="26" type="line"/>
			<point x="881" y="98" type="line"/>
			<point x="735" y="98" type="line"/>
			<point x="735" y="0" type="line"/>
			<point x="768" y="0" type="line"/>
		</contour>
		<component base="Sha"/>
	</outline>
</glyph>
<glyph name="be" format="1">
	<unicode hex="0431"/>
	<advance width="553"/>
	<outline>
		<contour>
			<point x="285" y="-12" type="curve" smooth="yes"/>
			<point x="411" y="-12"/>
			<point x="508" y="88"/>
			<point x="508" y="241" type="curve" smooth="yes"/>
			<point x="508" y="388"/>
			<point x="425" y="470"/>
			<point x="315" y="470" type="curve" smooth="yes"/>
			<point x="252" y="470"/>
			<point x="191" y="441"/>
			<point x="152" y="386" type="curve"/>
			<point x="157" y="308" type="line"/>
			<point x="197" y="365"/>
			<point x="242" y="383"/>
			<point x="283" y="383" type="curve" smooth="yes"/>
			<point x="351" y="383"/>
			<point x="390" y="336"/>
			<point x="390" y="241" type="curve" smooth="yes"/>
			<point x="390" y="145"/>
			<point x="348" y="82"/>
			<point x="284" y="82" type="curve" smooth="yes"/>
			<point x="202" y="82"/>
			<point x="158" y="150"/>
			<point x="158" y="277" type="curve" smooth="yes"/>
			<point x="158" y="560"/>
			<point x="202" y="569"/>
			<point x="380" y="594" type="curve" smooth="yes"/>
			<point x="423" y="600"/>
			<point x="463" y="610"/>
			<point x="489" y="628" type="curve"/>
			<point x="466" y="730" type="line"/>
			<point x="436" y="716"/>
			<point x="414" y="710"/>
			<point x="356" y="702" type="curve" smooth="yes"/>
			<point x="172" y="675"/>
			<point x="48" y="616"/>
			<point x="48" y="302" type="curve" smooth="yes"/>
			<point x="48" y="103"/>
			<point x="134" y="-12"/>
		</contour>
	</outline>
</glyph>
<glyph name="ghe" format="1">
	<unicode hex="0433"/>
	<advance width="422"/>
	<outline>
		<contour>
			<point x="73" y="0" type="line"/>
			<point x="188" y="0" type="line"/>
			<point x="188" y="400" type="line"/>
			<point x="396" y="400" type="line"/>
			<point x="396" y="491" type="line"/>
			<point x="73" y="491" type="line"/>
		</contour>
		<contour>
			<point name="aboveLC" x="245" y="514" type="move"/>
		</contour>
	</outline>
</glyph>
<glyph name="ocyr" format="1">
	<unicode hex="043E"/>
	<advance width="549"/>
	<outline>
		<component base="o"/>
		<contour>
			<point name="aboveLC" x="274" y="514" type="move"/>
		</contour>
	</outline>
</glyph>
<glyph name="te" format="1">
	<unicode hex="0442"/>
	<advance width="476"/>
	<outline>
		<contour>
			<point x="180" y="0" type="line"/>
			<point x="296" y="0" type="line"/>
			<point x="296" y="400" type="line"/>
			<point x="450" y="400" type="line"/>
			<point x="450" y="491" type="line"/>
			<point x="26" y="491" type="line"/>
			<point x="26" y="400" type="line"/>
			<point x="180" y="400" type="line"/>
		</contour>
	</outline>
</glyph>
<glyph name="obarcyr" format="1">
	<unicode hex="04E9"/>
	<advance width="549"/>
	<outline>
		<component base="obar"/>
		<contour>
			<point name="aboveLC" x="274" y="514" type="move"/>
		</contour>
	</outline>
</glyph>
<glyph name="lenisgrave" format="1">
	<unicode hex="1FCD"/>
	<advance width="549"/>
	<outline>
		<component base="lenisgravecmb" xOffset="274"/>
		<contour>
			<point name="_aboveLC" x="274" y="514" type="move"/>
		</contour>
	</outline>
</glyph>
<glyph name="lenistilde" format="1">
	<unicode hex="1FCF"/>
	<advance width="549"/>
	<outline>
		<component base="lenistildecmb" xOffset="274"/>
		<contour>
			<point name="_aboveLC" x="274" y="514" type="move"/>
		</contour>
	</outline>
</glyph>
<glyph name="aspertilde" format="1">
	<unicode hex="1FDF"/>
	<advance width="549"/>
	<outline>
		<component base="aspertildecmb" xOffset="274"/>
		<contour>
			<point name="_aboveLC" x="274" y="514" type="move"/>
		</contour>
	</outline>
</glyph>
<glyph name="guilsinglright" format="1">
	<unicode hex="203A"/>
	<advance width="282"/>
	<outline>
		<contour>
			<point x="99" y="61" type="line"/>
			<point x="235" y="210" type="line"/>
			<point x="235" y="294" type="line"/>
			<point x="99" y="443" type="line"/>
			<point x="54" y="406" type="line"/>
			<point x="168" y="252" type="line"/>
			<point x="54" y="97" type="line"/>
		</contour>
	</outline>
</glyph>
<glyph name="numero" format="1">
	<unicode hex="2116"/>
	<advance width="931"/>
	<outline>
		<contour>
			<point x="94" y="-12" type="curve" smooth="yes"/>
			<point x="163" y="-12"/>
			<point x="192" y="27"/>
			<point x="192" y="103" type="curve" smooth="yes"/>
			<point x="192" y="230" type="line" smooth="yes"/>
			<point x="192" y="310"/>
			<point x="188" y="384"/>
			<point x="176" y="507" type="curve"/>
			<point x="180" y="507" type="line"/>
			<point x="222" y="409" type="line" smooth="yes"/>
			<point x="275" y="271"/>
			<point x="331" y="136"/>
			<point x="388" y="0" type="curve"/>
			<point x="516" y="0" type="line"/>
			<point x="516" y="512" type="line" smooth="yes"/>
			<point x="516" y="546"/>
			<point x="526" y="554"/>
			<point x="553" y="554" type="curve"/>
			<point x="544" y="644" type="line"/>
			<point x="532" y="647"/>
			<point x="527" y="648"/>
			<point x="510" y="648" type="curve" smooth="yes"/>
			<point x="442" y="648"/>
			<point x="412" y="609"/>
			<point x="412" y="533" type="curve" smooth="yes"/>
			<point x="412" y="406" type="line" smooth="yes"/>
			<point x="412" y="327"/>
			<point x="416" y="253"/>
			<point x="428" y="129" type="curve"/>
			<point x="424" y="129" type="line"/>
			<point x="383" y="228" type="line"/>
			<point x="330" y="365"/>
			<point x="273" y="501"/>
			<point x="216" y="636" type="curve"/>
			<point x="89" y="636" type="line"/>
			<point x="89" y="124" type="line" smooth="yes"/>
			<point x="89" y="91"/>
			<point x="78" y="82"/>
			<point x="52" y="82" type="curve"/>
			<point x="61" y="-8" type="line"/>
			<point x="73" y="-11"/>
			<point x="78" y="-12"/>
		</contour>
		<contour>
			<point x="756" y="272" type="curve" smooth="yes"/>
			<point x="842" y="272"/>
			<point x="916" y="332"/>
			<point x="916" y="436" type="curve" smooth="yes"/>
			<point x="916" y="542"/>
			<point x="842" y="601"/>
			<point x="756" y="601" type="curve" smooth="yes"/>
			<point x="670" y="601"/>
			<point x="596" y="542"/>
			<point x="596" y="436" type="curve" smooth="yes"/>
			<point x="596" y="332"/>
			<point x="670" y="272"/>
		</contour>
		<contour>
			<point x="756" y="345" type="curve" smooth="yes"/>
			<point x="714" y="345"/>
			<point x="688" y="376"/>
			<point x="688" y="436" type="curve" smooth="yes"/>
			<point x="688" y="497"/>
			<point x="714" y="528"/>
			<point x="756" y="528" type="curve" smooth="yes"/>
			<point x="798" y="528"/>
			<point x="824" y="497"/>
			<point x="824" y="436" type="curve" smooth="yes"/>
			<point x="824" y="376"/>
			<point x="798" y="345"/>
		</contour>
		<contour>
			<point x="627" y="139" type="line"/>
			<point x="885" y="139" type="line"/>
			<point x="885" y="203" type="line"/>
			<point x="627" y="203" type="line"/>
		</contour>
	</outline>
</glyph>
<glyph name="deposeemark" format="1">
	<unicode hex="1F16B"/>
	<advance width="686"/>
	<outline>
		<contour>
			<point x="26" y="364" type="line"/>
			<point x="98" y="364" type="line"/>
			<point x="98" y="480" type="line"/>
			<point x="89" y="590" type="line"/>
			<point x="93" y="590" type="line"/>
			<point x="158" y="411" type="line"/>
			<point x="215" y="411" type="line"/>
			<point x="280" y="590" type="line"/>
			<point x="284" y="590" type="line"/>
			<point x="275" y="480" type="line"/>
			<point x="275" y="364" type="line"/>
			<point x="347" y="364" type="line"/>
			<point x="347" y="676" type="line"/>
			<point x="256" y="676" type="line"/>
			<point x="214" y="569" type="line"/>
			<point x="189" y="496" type="line"/>
			<point x="185" y="496" type="line"/>
			<point x="160" y="569" type="line"/>
			<point x="117" y="676" type="line"/>
			<point x="26" y="676" type="line"/>
		</contour>
		<contour>
			<point x="418" y="364" type="line"/>
			<point x="526" y="364" type="line" smooth="yes"/>
			<point x="623" y="364"/>
			<point x="681" y="420"/>
			<point x="681" y="523" type="curve" smooth="yes"/>
			<point x="681" y="624"/>
			<point x="623" y="676"/>
			<point x="522" y="676" type="curve" smooth="yes"/>
			<point x="418" y="676" type="line"/>
		</contour>
		<contour>
			<point x="496" y="423" type="line"/>
			<point x="496" y="617" type="line"/>
			<point x="520" y="617" type="line" smooth="yes"/>
			<point x="573" y="617"/>
			<point x="601" y="588"/>
			<point x="601" y="523" type="curve" smooth="yes"/>
			<point x="601" y="456"/>
			<point x="573" y="423"/>
			<point x="521" y="423" type="curve" smooth="yes"/>
		</contour>
	</outline>
</glyph>
<glyph name="A.sc" format="1">
  <advance width="487"/>
  <outline>
    <contour>
      <point x="241" y="563" type="move" name="aboveUC"/>
    </contour>
    <contour>
      <point x="392" y="0" type="move" name="ogonekUC"/>
    </contour>
    <contour>
      <point x="241" y="-22" type="move" name="belowLC"/>
    </contour>
    <contour>
      <point x="-2" y="0" type="line"/>
      <point x="115" y="0" type="line"/>
      <point x="195" y="268" type="line" smooth="yes"/>
      <point x="210" y="322"/>
      <point x="224" y="380"/>
      <point x="239" y="435" type="curve"/>
      <point x="243" y="435" type="line"/>
      <point x="259" y="381"/>
      <point x="273" y="322"/>
      <point x="289" y="268" type="curve" smooth="yes"/>
      <point x="368" y="0" type="line"/>
      <point x="489" y="0" type="line"/>
      <point x="311" y="523" type="line"/>
      <point x="176" y="523" type="line"/>
    </contour>
    <contour>
      <point x="110" y="127" type="line"/>
      <point x="376" y="127" type="line"/>
      <point x="376" y="211" type="line"/>
      <point x="110" y="211" type="line"/>
    </contour>
  </outline>
</glyph>
<glyph name="A.sups" format="1">
  <advance width="375"/>
  <outline>
    <contour>
      <point x="-3" y="264" type="line"/>
      <point x="82" y="264" type="line"/>
      <point x="147" y="492" type="line" smooth="yes"/>
      <point x="160" y="537"/>
      <point x="174" y="585"/>
      <point x="185" y="632" type="curve"/>
      <point x="187" y="632" type="line"/>
      <point x="200" y="586"/>
      <point x="214" y="537"/>
      <point x="226" y="492" type="curve" smooth="yes"/>
      <point x="290" y="264" type="line"/>
      <point x="379" y="264" type="line"/>
      <point x="238" y="696" type="line"/>
      <point x="139" y="696" type="line"/>
    </contour>
    <contour>
      <point x="83" y="378" type="line"/>
      <point x="291" y="378" type="line"/>
      <point x="291" y="442" type="line"/>
      <point x="83" y="442" type="line"/>
    </contour>
  </outline>
</glyph>
<glyph name="AE" format="1">
  <advance width="834"/>
  <outline>
    <contour>
      <point x="550" y="694" type="move" name="aboveUC"/>
    </contour>
    <contour>
      <point x="-3" y="0" type="line"/>
      <point x="119" y="0" type="line"/>
      <point x="297" y="366" type="line"/>
      <point x="328" y="430"/>
      <point x="358" y="498"/>
      <point x="390" y="565" type="curve"/>
      <point x="394" y="565" type="line"/>
      <point x="394" y="0" type="line"/>
      <point x="783" y="0" type="line"/>
      <point x="783" y="98" type="line"/>
      <point x="510" y="98" type="line"/>
      <point x="510" y="291" type="line"/>
      <point x="731" y="291" type="line"/>
      <point x="731" y="389" type="line"/>
      <point x="510" y="389" type="line"/>
      <point x="510" y="556" type="line"/>
      <point x="773" y="556" type="line"/>
      <point x="773" y="654" type="line"/>
      <point x="324" y="654" type="line"/>
    </contour>
    <contour>
      <point x="148" y="170" type="line"/>
      <point x="458" y="170" type="line"/>
      <point x="458" y="261" type="line"/>
      <point x="148" y="261" type="line"/>
    </contour>
  </outline>
</glyph>
<glyph name="Acyr" format="1">
  <advance width="558"/>
  <outline>
    <contour>
      <point x="277" y="676" type="move" name="aboveUC"/>
    </contour>
    <component base="A"/>
  </outline>
</glyph>
<glyph name="Alpha.sc" format="1">
	<advance width="487"/>
	<outline>
		<component base="A.sc"/>
		<contour>
			<point name="aboveLC" x="241" y="563" type="move"/>
		</contour>
		<contour>
			<point name="belowLC" x="241" y="-22" type="move"/>
		</contour>
	</outline>
</glyph>
<glyph name="Alpha.sc" format="1">
  <advance width="487"/>
  <outline>
    <contour>
      <point x="241" y="563" type="move" name="aboveLC"/>
    </contour>
    <contour>
      <point x="241" y="-22" type="move" name="belowLC"/>
    </contour>
    <component base="A.sc"/>
  </outline>
</glyph>
<glyph name="Aogonek.sc" format="1">
  <advance width="487"/>
  <outline>
    <contour>
      <point x="241" y="563" type="move" name="aboveUC"/>
    </contour>
    <contour>
      <point x="423" y="-218" type="curve" smooth="yes"/>
      <point x="454" y="-218"/>
      <point x="493" y="-204"/>
      <point x="515" y="-186" type="curve"/>
      <point x="487" y="-126" type="line"/>
      <point x="476" y="-135"/>
      <point x="463" y="-140"/>
      <point x="446" y="-140" type="curve" smooth="yes"/>
      <point x="424" y="-140"/>
      <point x="404" y="-126"/>
      <point x="404" y="-98" type="curve" smooth="yes"/>
      <point x="404" y="-58"/>
      <point x="438" y="-12"/>
      <point x="489" y="0" type="curve"/>
      <point x="311" y="523" type="line"/>
      <point x="176" y="523" type="line"/>
      <point x="-2" y="0" type="line"/>
      <point x="115" y="0" type="line"/>
      <point x="195" y="268" type="line" smooth="yes"/>
      <point x="210" y="322"/>
      <point x="224" y="380"/>
      <point x="239" y="435" type="curve"/>
      <point x="243" y="435" type="line"/>
      <point x="259" y="381"/>
      <point x="273" y="322"/>
      <point x="289" y="268" type="curve" smooth="yes"/>
      <point x="368" y="0" type="line"/>
      <point x="396" y="0" type="line"/>
      <point x="362" y="-21"/>
      <point x="318" y="-69"/>
      <point x="318" y="-127" type="curve" smooth="yes"/>
      <point x="318" y="-186"/>
      <point x="364" y="-218"/>
    </contour>
    <contour>
      <point x="110" y="127" type="line"/>
      <point x="376" y="127" type="line"/>
      <point x="376" y="211" type="line"/>
      <point x="110" y="211" type="line"/>
    </contour>
  </outline>
</glyph>
<glyph name="B.sc" format="1">
  <advance width="536"/>
  <outline>
    <contour>
      <point x="283" y="563" type="move" name="aboveUC"/>
    </contour>
    <contour>
      <point x="293" y="-22" type="move" name="belowLC"/>
    </contour>
    <contour>
      <point x="83" y="0" type="line"/>
      <point x="283" y="0" type="line" smooth="yes"/>
      <point x="406" y="0"/>
      <point x="500" y="46"/>
      <point x="500" y="153" type="curve" smooth="yes"/>
      <point x="500" y="223"/>
      <point x="456" y="262"/>
      <point x="381" y="277" type="curve"/>
      <point x="381" y="281" type="line"/>
      <point x="443" y="297"/>
      <point x="472" y="346"/>
      <point x="472" y="393" type="curve" smooth="yes"/>
      <point x="472" y="493"/>
      <point x="384" y="523"/>
      <point x="268" y="523" type="curve" smooth="yes"/>
      <point x="83" y="523" type="line"/>
    </contour>
    <contour>
      <point x="199" y="308" type="line"/>
      <point x="199" y="438" type="line"/>
      <point x="266" y="438" type="line" smooth="yes"/>
      <point x="333" y="438"/>
      <point x="366" y="421"/>
      <point x="366" y="377" type="curve" smooth="yes"/>
      <point x="366" y="334"/>
      <point x="337" y="308"/>
      <point x="265" y="308" type="curve" smooth="yes"/>
    </contour>
    <contour>
      <point x="199" y="85" type="line"/>
      <point x="199" y="234" type="line"/>
      <point x="273" y="234" type="line" smooth="yes"/>
      <point x="349" y="234"/>
      <point x="388" y="210"/>
      <point x="388" y="162" type="curve" smooth="yes"/>
      <point x="388" y="109"/>
      <point x="346" y="85"/>
      <point x="273" y="85" type="curve" smooth="yes"/>
    </contour>
  </outline>
</glyph>
<glyph name="B.sups" format="1">
  <advance width="399"/>
  <outline>
    <contour>
      <point x="53" y="264" type="line"/>
      <point x="209" y="264" type="line" smooth="yes"/>
      <point x="304" y="264"/>
      <point x="377" y="305"/>
      <point x="377" y="392" type="curve" smooth="yes"/>
      <point x="377" y="449"/>
      <point x="343" y="483"/>
      <point x="280" y="494" type="curve"/>
      <point x="280" y="496" type="line"/>
      <point x="331" y="511"/>
      <point x="354" y="550"/>
      <point x="354" y="590" type="curve" smooth="yes"/>
      <point x="354" y="670"/>
      <point x="287" y="696"/>
      <point x="197" y="696" type="curve" smooth="yes"/>
      <point x="53" y="696" type="line"/>
    </contour>
    <contour>
      <point x="137" y="519" type="line"/>
      <point x="137" y="632" type="line"/>
      <point x="192" y="632" type="line" smooth="yes"/>
      <point x="246" y="632"/>
      <point x="273" y="616"/>
      <point x="273" y="579" type="curve" smooth="yes"/>
      <point x="273" y="541"/>
      <point x="248" y="519"/>
      <point x="190" y="519" type="curve" smooth="yes"/>
    </contour>
    <contour>
      <point x="137" y="328" type="line"/>
      <point x="137" y="460" type="line"/>
      <point x="200" y="460" type="line" smooth="yes"/>
      <point x="263" y="460"/>
      <point x="295" y="440"/>
      <point x="295" y="397" type="curve" smooth="yes"/>
      <point x="295" y="350"/>
      <point x="262" y="328"/>
      <point x="200" y="328" type="curve" smooth="yes"/>
    </contour>
  </outline>
</glyph>
<glyph name="B.sups" format="1">
  <advance width="399"/>
  <outline>
    <contour>
      <point x="53" y="385" type="line"/>
      <point x="209" y="385" type="line" smooth="yes"/>
      <point x="304" y="385"/>
      <point x="377" y="426"/>
      <point x="377" y="513" type="curve" smooth="yes"/>
      <point x="377" y="570"/>
      <point x="343" y="603"/>
      <point x="280" y="615" type="curve"/>
      <point x="280" y="617" type="line"/>
      <point x="331" y="631"/>
      <point x="354" y="671"/>
      <point x="354" y="711" type="curve" smooth="yes"/>
      <point x="354" y="790"/>
      <point x="287" y="817"/>
      <point x="197" y="817" type="curve" smooth="yes"/>
      <point x="53" y="817" type="line"/>
    </contour>
    <contour>
      <point x="137" y="639" type="line"/>
      <point x="137" y="753" type="line"/>
      <point x="192" y="753" type="line" smooth="yes"/>
      <point x="246" y="753"/>
      <point x="273" y="736"/>
      <point x="273" y="700" type="curve" smooth="yes"/>
      <point x="273" y="662"/>
      <point x="248" y="639"/>
      <point x="190" y="639" type="curve" smooth="yes"/>
    </contour>
    <contour>
      <point x="137" y="449" type="line"/>
      <point x="137" y="581" type="line"/>
      <point x="200" y="581" type="line" smooth="yes"/>
      <point x="263" y="581"/>
      <point x="295" y="561"/>
      <point x="295" y="518" type="curve" smooth="yes"/>
      <point x="295" y="471"/>
      <point x="262" y="449"/>
      <point x="200" y="449" type="curve" smooth="yes"/>
    </contour>
  </outline>
</glyph>
<glyph name="Be.sc" format="1">
  <advance width="531"/>
  <outline>
    <contour>
      <point x="83" y="0" type="line"/>
      <point x="284" y="0" type="line" smooth="yes"/>
      <point x="402" y="0"/>
      <point x="493" y="45"/>
      <point x="493" y="160" type="curve" smooth="yes"/>
      <point x="493" y="275"/>
      <point x="398" y="308"/>
      <point x="280" y="308" type="curve" smooth="yes"/>
      <point x="199" y="308" type="line"/>
      <point x="199" y="428" type="line"/>
      <point x="456" y="428" type="line"/>
      <point x="456" y="523" type="line"/>
      <point x="83" y="523" type="line"/>
    </contour>
    <contour>
      <point x="199" y="85" type="line"/>
      <point x="199" y="234" type="line"/>
      <point x="270" y="234" type="line" smooth="yes"/>
      <point x="342" y="234"/>
      <point x="381" y="215"/>
      <point x="381" y="164" type="curve" smooth="yes"/>
      <point x="381" y="111"/>
      <point x="344" y="85"/>
      <point x="271" y="85" type="curve" smooth="yes"/>
    </contour>
  </outline>
</glyph>
<glyph name="Beta.sc" format="1">
  <advance width="536"/>
  <outline>
    <contour>
      <point x="283" y="563" type="move" name="aboveLC"/>
    </contour>
    <contour>
      <point x="293" y="-22" type="move" name="belowLC"/>
    </contour>
    <component base="B.sc"/>
  </outline>
</glyph>
<glyph name="Bsmall" format="1">
  <advance width="518"/>
  <outline>
    <contour>
      <point x="256" y="502" type="move" name="aboveLC"/>
    </contour>
    <contour>
      <point x="274" y="-22" type="move" name="belowLC"/>
    </contour>
    <component base="ve"/>
  </outline>
</glyph>
<glyph name="Bstroke.sc" format="1">
  <advance width="558"/>
  <outline>
    <contour>
      <point x="105" y="0" type="line"/>
      <point x="305" y="0" type="line" smooth="yes"/>
      <point x="428" y="0"/>
      <point x="522" y="46"/>
      <point x="522" y="153" type="curve" smooth="yes"/>
      <point x="522" y="223"/>
      <point x="478" y="262"/>
      <point x="403" y="277" type="curve"/>
      <point x="403" y="281" type="line"/>
      <point x="465" y="297"/>
      <point x="494" y="346"/>
      <point x="494" y="393" type="curve" smooth="yes"/>
      <point x="494" y="493"/>
      <point x="406" y="523"/>
      <point x="290" y="523" type="curve" smooth="yes"/>
      <point x="105" y="523" type="line"/>
    </contour>
    <contour>
      <point x="221" y="306" type="line"/>
      <point x="221" y="450" type="line"/>
      <point x="288" y="450" type="line" smooth="yes"/>
      <point x="355" y="450"/>
      <point x="388" y="430"/>
      <point x="388" y="382" type="curve" smooth="yes"/>
      <point x="388" y="335"/>
      <point x="359" y="306"/>
      <point x="287" y="306" type="curve" smooth="yes"/>
    </contour>
    <contour>
      <point x="221" y="73" type="line"/>
      <point x="221" y="236" type="line"/>
      <point x="295" y="236" type="line" smooth="yes"/>
      <point x="371" y="236"/>
      <point x="410" y="210"/>
      <point x="410" y="157" type="curve" smooth="yes"/>
      <point x="410" y="101"/>
      <point x="368" y="73"/>
      <point x="295" y="73" type="curve" smooth="yes"/>
    </contour>
    <contour>
      <point x="30" y="132" type="line"/>
      <point x="331" y="132" type="line"/>
      <point x="331" y="179" type="line"/>
      <point x="107" y="179" type="line"/>
      <point x="30" y="175" type="line"/>
    </contour>
  </outline>
</glyph>
<glyph name="Be.sc" format="1">
  <advance width="528"/>
  <outline>
    <contour>
      <point x="83" y="0" type="line"/>
      <point x="276" y="0" type="line" smooth="yes"/>
      <point x="398" y="0"/>
      <point x="492" y="44"/>
      <point x="492" y="162" type="curve" smooth="yes"/>
      <point x="492" y="271"/>
      <point x="397" y="311"/>
      <point x="276" y="311" type="curve" smooth="yes"/>
      <point x="197" y="311" type="line"/>
      <point x="197" y="427" type="line"/>
      <point x="446" y="427" type="line"/>
      <point x="446" y="523" type="line"/>
      <point x="83" y="523" type="line"/>
    </contour>
    <contour>
      <point x="197" y="88" type="line"/>
      <point x="197" y="230" type="line"/>
      <point x="266" y="230" type="line" smooth="yes"/>
      <point x="341" y="230"/>
      <point x="380" y="209"/>
      <point x="380" y="162" type="curve" smooth="yes"/>
      <point x="380" y="113"/>
      <point x="341" y="88"/>
      <point x="266" y="88" type="curve" smooth="yes"/>
    </contour>
  </outline>
</glyph>
<glyph name="C" format="1">
  <advance width="576"/>
  <outline>
    <contour>
      <point x="336" y="676" type="move" name="aboveUC"/>
    </contour>
    <contour>
      <point x="346" y="0" type="move" name="baseLC"/>
    </contour>
    <contour>
      <point x="346" y="-22" type="move" name="belowLC"/>
    </contour>
    <contour>
      <point x="344" y="-12" type="curve" smooth="yes"/>
      <point x="428" y="-12"/>
      <point x="497" y="22"/>
      <point x="550" y="83" type="curve"/>
      <point x="488" y="156" type="line"/>
      <point x="451" y="116"/>
      <point x="406" y="89"/>
      <point x="348" y="89" type="curve" smooth="yes"/>
      <point x="238" y="89"/>
      <point x="168" y="179"/>
      <point x="168" y="328" type="curve" smooth="yes"/>
      <point x="168" y="475"/>
      <point x="244" y="565"/>
      <point x="351" y="565" type="curve" smooth="yes"/>
      <point x="402" y="565"/>
      <point x="441" y="542"/>
      <point x="475" y="508" type="curve"/>
      <point x="537" y="583" type="line"/>
      <point x="496" y="627"/>
      <point x="430" y="666"/>
      <point x="348" y="666" type="curve" smooth="yes"/>
      <point x="183" y="666"/>
      <point x="49" y="539"/>
      <point x="49" y="325" type="curve" smooth="yes"/>
      <point x="49" y="108"/>
      <point x="179" y="-12"/>
    </contour>
  </outline>
</glyph>
<glyph name="C.sups" format="1">
  <advance width="385"/>
  <outline>
    <contour>
      <point x="229" y="256" type="curve" smooth="yes"/>
      <point x="287" y="256"/>
      <point x="333" y="278"/>
      <point x="369" y="320" type="curve"/>
      <point x="323" y="370" type="line"/>
      <point x="299" y="344"/>
      <point x="271" y="328"/>
      <point x="233" y="328" type="curve" smooth="yes"/>
      <point x="162" y="328"/>
      <point x="117" y="385"/>
      <point x="117" y="480" type="curve" smooth="yes"/>
      <point x="117" y="573"/>
      <point x="167" y="632"/>
      <point x="236" y="632" type="curve" smooth="yes"/>
      <point x="268" y="632"/>
      <point x="292" y="618"/>
      <point x="315" y="597" type="curve"/>
      <point x="361" y="648" type="line"/>
      <point x="334" y="679"/>
      <point x="289" y="704"/>
      <point x="235" y="704" type="curve" smooth="yes"/>
      <point x="123" y="704"/>
      <point x="31" y="618"/>
      <point x="31" y="477" type="curve" smooth="yes"/>
      <point x="31" y="335"/>
      <point x="118" y="256"/>
    </contour>
  </outline>
</glyph>
<glyph name="Che" format="1">
  <advance width="614"/>
  <outline>
    <contour>
      <point x="300" y="676" type="move" name="aboveUC"/>
    </contour>
    <contour>
      <point x="415" y="0" type="line"/>
      <point x="531" y="0" type="line"/>
      <point x="531" y="654" type="line"/>
      <point x="415" y="654" type="line"/>
      <point x="415" y="372" type="line"/>
      <point x="391" y="367"/>
      <point x="361" y="364"/>
      <point x="318" y="364" type="curve" smooth="yes"/>
      <point x="224" y="364"/>
      <point x="177" y="397"/>
      <point x="177" y="496" type="curve" smooth="yes"/>
      <point x="177" y="654" type="line"/>
      <point x="64" y="654" type="line"/>
      <point x="64" y="496" type="line" smooth="yes"/>
      <point x="64" y="330"/>
      <point x="155" y="270"/>
      <point x="306" y="270" type="curve" smooth="yes"/>
      <point x="354" y="270"/>
      <point x="384" y="274"/>
      <point x="415" y="278" type="curve"/>
    </contour>
  </outline>
</glyph>
<glyph name="Chedescender" format="1">
  <advance width="626"/>
  <outline>
    <contour>
      <point x="496" y="-188" type="line"/>
      <point x="596" y="-188" type="line"/>
      <point x="607" y="26" type="line"/>
      <point x="607" y="98" type="line"/>
      <point x="461" y="98" type="line"/>
      <point x="461" y="0" type="line"/>
      <point x="496" y="0" type="line"/>
    </contour>
    <component base="Che"/>
  </outline>
</glyph>
<glyph name="Chedescender.sc" format="1">
  <advance width="541"/>
  <outline>
    <contour>
      <point x="411" y="-172" type="line"/>
      <point x="510" y="-172" type="line"/>
      <point x="522" y="19" type="line"/>
      <point x="522" y="96" type="line"/>
      <point x="377" y="96" type="line"/>
      <point x="377" y="0" type="line"/>
      <point x="411" y="0" type="line"/>
    </contour>
    <component base="Che.sc" xOffset="-29"/>
  </outline>
</glyph>
<glyph name="Chi.sc" format="1">
  <advance width="481"/>
  <outline>
    <contour>
      <point x="301" y="571" type="move" name="aboveUC"/>
    </contour>
    <contour>
      <point x="301" y="0" type="move" name="baseLC"/>
    </contour>
    <contour>
      <point x="301" y="-22" type="move" name="belowLC"/>
    </contour>
    <component base="X.sc"/>
  </outline>
</glyph>
<glyph name="Che.sc" format="1">
  <advance width="557"/>
  <outline>
    <contour>
      <point x="360" y="0" type="line"/>
      <point x="474" y="0" type="line"/>
      <point x="474" y="523" type="line"/>
      <point x="360" y="523" type="line"/>
      <point x="360" y="306" type="line"/>
      <point x="337" y="297"/>
      <point x="308" y="294"/>
      <point x="282" y="294" type="curve" smooth="yes"/>
      <point x="213" y="294"/>
      <point x="175" y="324"/>
      <point x="175" y="393" type="curve"/>
      <point x="175" y="523" type="line"/>
      <point x="64" y="523" type="line"/>
      <point x="64" y="393" type="line"/>
      <point x="64" y="259"/>
      <point x="149" y="203"/>
      <point x="271" y="203" type="curve"/>
      <point x="300" y="203"/>
      <point x="330" y="208"/>
      <point x="360" y="216" type="curve"/>
    </contour>
  </outline>
</glyph>
<glyph name="Chedescender" format="1">
  <advance width="606"/>
  <outline>
    <contour>
      <point x="467" y="-188" type="line"/>
      <point x="568" y="-188" type="line"/>
      <point x="578" y="26" type="line"/>
      <point x="578" y="98" type="line"/>
      <point x="432" y="98" type="line"/>
      <point x="432" y="0" type="line"/>
      <point x="467" y="0" type="line"/>
    </contour>
    <component base="Che" xOffset="-29"/>
  </outline>
</glyph>
<glyph name="D" format="1">
  <advance width="625"/>
  <outline>
    <contour>
      <point x="83" y="0" type="line"/>
      <point x="264" y="0" type="line" smooth="yes"/>
      <point x="458" y="0"/>
      <point x="576" y="113"/>
      <point x="576" y="330" type="curve" smooth="yes"/>
      <point x="576" y="546"/>
      <point x="458" y="654"/>
      <point x="258" y="654" type="curve" smooth="yes"/>
      <point x="83" y="654" type="line"/>
    </contour>
    <contour>
      <point x="199" y="94" type="line"/>
      <point x="199" y="560" type="line"/>
      <point x="250" y="560" type="line" smooth="yes"/>
      <point x="382" y="560"/>
      <point x="457" y="490"/>
      <point x="457" y="330" type="curve" smooth="yes"/>
      <point x="457" y="169"/>
      <point x="382" y="94"/>
      <point x="250" y="94" type="curve" smooth="yes"/>
    </contour>
    <contour>
      <point x="313" y="676" type="move" name="aboveUC"/>
    </contour>
    <contour>
      <point x="309" y="-22" type="move" name="belowLC"/>
    </contour>
  </outline>
</glyph>
<glyph name="D.sc" format="1">
  <advance width="568"/>
  <outline>
    <contour>
      <point x="290" y="563" type="move" name="aboveUC"/>
    </contour>
    <contour>
      <point x="288" y="-22" type="move" name="belowLC"/>
    </contour>
    <contour>
      <point x="83" y="0" type="line"/>
      <point x="245" y="0" type="line" smooth="yes"/>
      <point x="408" y="0"/>
      <point x="519" y="83"/>
      <point x="519" y="264" type="curve" smooth="yes"/>
      <point x="519" y="444"/>
      <point x="408" y="523"/>
      <point x="238" y="523" type="curve" smooth="yes"/>
      <point x="83" y="523" type="line"/>
    </contour>
    <contour>
      <point x="199" y="90" type="line"/>
      <point x="199" y="433" type="line"/>
      <point x="243" y="433" type="line" smooth="yes"/>
      <point x="346" y="433"/>
      <point x="400" y="378"/>
      <point x="400" y="264" type="curve" smooth="yes"/>
      <point x="400" y="146"/>
      <point x="346" y="90"/>
      <point x="243" y="90" type="curve" smooth="yes"/>
    </contour>
  </outline>
</glyph>
<glyph name="D.sups" format="1">
  <advance width="419"/>
  <outline>
    <contour>
      <point x="53" y="264" type="line"/>
      <point x="176" y="264" type="line" smooth="yes"/>
      <point x="307" y="264"/>
      <point x="388" y="338"/>
      <point x="388" y="483" type="curve" smooth="yes"/>
      <point x="388" y="626"/>
      <point x="307" y="696"/>
      <point x="172" y="696" type="curve" smooth="yes"/>
      <point x="53" y="696" type="line"/>
    </contour>
    <contour>
      <point x="137" y="331" type="line"/>
      <point x="137" y="629" type="line"/>
      <point x="169" y="629" type="line" smooth="yes"/>
      <point x="253" y="629"/>
      <point x="301" y="588"/>
      <point x="301" y="482" type="curve" smooth="yes"/>
      <point x="301" y="377"/>
      <point x="253" y="331"/>
      <point x="170" y="331" type="curve" smooth="yes"/>
    </contour>
  </outline>
</glyph>
<glyph name="D.sups" format="1">
  <advance width="419"/>
  <outline>
    <contour>
      <point x="53" y="385" type="line"/>
      <point x="176" y="385" type="line" smooth="yes"/>
      <point x="307" y="385"/>
      <point x="388" y="459"/>
      <point x="388" y="604" type="curve" smooth="yes"/>
      <point x="388" y="747"/>
      <point x="307" y="817"/>
      <point x="172" y="817" type="curve" smooth="yes"/>
      <point x="53" y="817" type="line"/>
    </contour>
    <contour>
      <point x="137" y="452" type="line"/>
      <point x="137" y="750" type="line"/>
      <point x="169" y="750" type="line" smooth="yes"/>
      <point x="253" y="750"/>
      <point x="301" y="709"/>
      <point x="301" y="603" type="curve" smooth="yes"/>
      <point x="301" y="498"/>
      <point x="253" y="452"/>
      <point x="170" y="452" type="curve" smooth="yes"/>
    </contour>
  </outline>
</glyph>
<glyph name="De" format="1">
  <advance width="654"/>
  <outline>
    <contour>
      <point x="133" y="0" type="line"/>
      <point x="521" y="0" type="line"/>
      <point x="521" y="-188" type="line"/>
      <point x="624" y="-188" type="line"/>
      <point x="635" y="26" type="line"/>
      <point x="635" y="98" type="line"/>
      <point x="19" y="98" type="line"/>
      <point x="19" y="26" type="line"/>
      <point x="30" y="-188" type="line"/>
      <point x="133" y="-188" type="line"/>
    </contour>
    <contour>
      <point x="442" y="38" type="line"/>
      <point x="558" y="38" type="line"/>
      <point x="558" y="654" type="line"/>
      <point x="198" y="654" type="line"/>
      <point x="176" y="522"/>
      <point x="165" y="450"/>
      <point x="142" y="328" type="curve" smooth="yes"/>
      <point x="110" y="163"/>
      <point x="78" y="108"/>
      <point x="49" y="98" type="curve"/>
      <point x="73" y="27" type="line"/>
      <point x="157" y="34"/>
      <point x="210" y="122"/>
      <point x="246" y="312" type="curve" smooth="yes"/>
      <point x="264" y="407"/>
      <point x="271" y="462"/>
      <point x="288" y="556" type="curve"/>
      <point x="442" y="556" type="line"/>
    </contour>
  </outline>
</glyph>
<glyph name="De.sc" format="1">
  <advance width="584"/>
  <outline>
    <contour>
      <point x="130" y="-172" type="line"/>
      <point x="130" y="0" type="line"/>
      <point x="458" y="0" type="line"/>
      <point x="458" y="-172" type="line"/>
      <point x="557" y="-172" type="line"/>
      <point x="568" y="19" type="line"/>
      <point x="568" y="96" type="line"/>
      <point x="19" y="96" type="line"/>
      <point x="19" y="19" type="line"/>
      <point x="30" y="-172" type="line"/>
    </contour>
    <contour>
      <point x="377" y="34" type="line"/>
      <point x="493" y="34" type="line"/>
      <point x="493" y="523" type="line"/>
      <point x="171" y="523" type="line"/>
      <point x="153" y="422"/>
      <point x="143" y="369"/>
      <point x="123" y="277" type="curve" smooth="yes"/>
      <point x="97" y="149"/>
      <point x="69" y="104"/>
      <point x="45" y="95" type="curve"/>
      <point x="64" y="25" type="line"/>
      <point x="146" y="28"/>
      <point x="196" y="111"/>
      <point x="227" y="262" type="curve" smooth="yes"/>
      <point x="240" y="327"/>
      <point x="246" y="363"/>
      <point x="259" y="428" type="curve"/>
      <point x="377" y="428" type="line"/>
    </contour>
  </outline>
</glyph>
<glyph name="Delta.sc" format="1">
  <advance width="543"/>
  <outline>
    <contour>
      <point x="32" y="0" type="line"/>
      <point x="511" y="0" type="line"/>
      <point x="511" y="68" type="line"/>
      <point x="339" y="523" type="line"/>
      <point x="204" y="523" type="line"/>
      <point x="32" y="68" type="line"/>
    </contour>
    <contour>
      <point x="155" y="95" type="line"/>
      <point x="218" y="277" type="line"/>
      <point x="268" y="436" type="line"/>
      <point x="271" y="436" type="line"/>
      <point x="321" y="277" type="line"/>
      <point x="386" y="95" type="line"/>
    </contour>
  </outline>
</glyph>
<glyph name="Dzhe.sc" format="1">
  <advance width="592"/>
  <outline>
    <contour>
      <point x="83" y="0" type="line"/>
      <point x="512" y="0" type="line"/>
      <point x="512" y="523" type="line"/>
      <point x="396" y="523" type="line"/>
      <point x="396" y="96" type="line"/>
      <point x="199" y="96" type="line"/>
      <point x="199" y="523" type="line"/>
      <point x="83" y="523" type="line"/>
    </contour>
    <contour>
      <point x="246" y="-172" type="line"/>
      <point x="344" y="-172" type="line"/>
      <point x="358" y="10" type="line"/>
      <point x="241" y="10" type="line"/>
    </contour>
  </outline>
</glyph>
<glyph name="De.sc" format="1">
  <advance width="558"/>
  <outline>
    <contour>
      <point x="358" y="0" type="line"/>
      <point x="473" y="0" type="line"/>
      <point x="473" y="523" type="line"/>
      <point x="125" y="523" type="line"/>
      <point x="125" y="356" type="line" smooth="yes"/>
      <point x="125" y="303"/>
      <point x="121" y="249"/>
      <point x="109" y="200" type="curve" smooth="yes"/>
      <point x="97" y="149"/>
      <point x="75" y="109"/>
      <point x="39" y="95" type="curve"/>
      <point x="47" y="31" type="line"/>
      <point x="145" y="46"/>
      <point x="197" y="103"/>
      <point x="214" y="181" type="curve" smooth="yes"/>
      <point x="225" y="237"/>
      <point x="231" y="309"/>
      <point x="231" y="368" type="curve" smooth="yes"/>
      <point x="231" y="427" type="line"/>
      <point x="358" y="427" type="line"/>
    </contour>
    <contour>
      <point x="28" y="-153" type="line"/>
      <point x="125" y="-153" type="line"/>
      <point x="125" y="0" type="line"/>
      <point x="524" y="0" type="line"/>
      <point x="524" y="95" type="line"/>
      <point x="16" y="95" type="line"/>
      <point x="16" y="17" type="line"/>
    </contour>
    <contour>
      <point x="430" y="-153" type="line"/>
      <point x="526" y="-153" type="line"/>
      <point x="539" y="17" type="line"/>
      <point x="539" y="95" type="line"/>
      <point x="37" y="95" type="line"/>
      <point x="37" y="0" type="line"/>
      <point x="430" y="0" type="line"/>
    </contour>
  </outline>
</glyph>
<glyph name="Dje.sc" format="1">
  <advance width="629"/>
  <outline>
    <contour>
      <point x="403" y="-141" type="curve" smooth="yes"/>
      <point x="499" y="-141"/>
      <point x="573" y="-62"/>
      <point x="573" y="113" type="curve" smooth="yes"/>
      <point x="573" y="272"/>
      <point x="487" y="328"/>
      <point x="361" y="328" type="curve" smooth="yes"/>
      <point x="334" y="328"/>
      <point x="307" y="324"/>
      <point x="280" y="315" type="curve"/>
      <point x="280" y="523" type="line"/>
      <point x="166" y="523" type="line"/>
      <point x="166" y="0" type="line"/>
      <point x="280" y="0" type="line"/>
      <point x="280" y="225" type="line"/>
      <point x="299" y="234"/>
      <point x="326" y="238"/>
      <point x="349" y="238" type="curve" smooth="yes"/>
      <point x="423" y="238"/>
      <point x="461" y="203"/>
      <point x="461" y="113" type="curve" smooth="yes"/>
      <point x="461" y="-23"/>
      <point x="424" y="-51"/>
      <point x="390" y="-51" type="curve" smooth="yes"/>
      <point x="376" y="-51"/>
      <point x="361" y="-49"/>
      <point x="351" y="-45" type="curve"/>
      <point x="331" y="-127" type="line"/>
      <point x="346" y="-137"/>
      <point x="372" y="-141"/>
    </contour>
    <contour>
      <point x="26" y="428" type="line"/>
      <point x="436" y="428" type="line"/>
      <point x="436" y="523" type="line"/>
      <point x="26" y="523" type="line"/>
    </contour>
  </outline>
</glyph>
<glyph name="Dzhe.sc" format="1">
  <advance width="597"/>
  <outline>
    <contour>
      <point x="83" y="0" type="line"/>
      <point x="514" y="0" type="line"/>
      <point x="514" y="523" type="line"/>
      <point x="400" y="523" type="line"/>
      <point x="400" y="95" type="line"/>
      <point x="197" y="95" type="line"/>
      <point x="197" y="523" type="line"/>
      <point x="83" y="523" type="line"/>
    </contour>
    <contour>
      <point x="252" y="-153" type="line"/>
      <point x="347" y="-153" type="line"/>
      <point x="359" y="17" type="line"/>
      <point x="252" y="0" type="line"/>
    </contour>
  </outline>
</glyph>
<glyph name="E" format="1">
  <advance width="538"/>
  <outline>
    <contour>
      <point x="287" y="676" type="move" name="aboveUC"/>
    </contour>
    <contour>
      <point x="391" y="0" type="move" name="ogonekUC"/>
    </contour>
    <contour>
      <point x="296" y="-22" type="move" name="belowLC"/>
    </contour>
    <contour>
      <point x="83" y="0" type="line"/>
      <point x="487" y="0" type="line"/>
      <point x="487" y="98" type="line"/>
      <point x="199" y="98" type="line"/>
      <point x="199" y="291" type="line"/>
      <point x="434" y="291" type="line"/>
      <point x="434" y="389" type="line"/>
      <point x="199" y="389" type="line"/>
      <point x="199" y="556" type="line"/>
      <point x="477" y="556" type="line"/>
      <point x="477" y="654" type="line"/>
      <point x="83" y="654" type="line"/>
    </contour>
  </outline>
</glyph>
<glyph name="E.sc" format="1">
  <advance width="487"/>
  <outline>
    <contour>
      <point x="267" y="563" type="move" name="aboveUC"/>
    </contour>
    <contour>
      <point x="331" y="0" type="move" name="ogonekUC"/>
    </contour>
    <contour>
      <point x="269" y="-22" type="move" name="belowLC"/>
    </contour>
    <contour>
      <point x="83" y="0" type="line"/>
      <point x="436" y="0" type="line"/>
      <point x="436" y="90" type="line"/>
      <point x="199" y="90" type="line"/>
      <point x="199" y="227" type="line"/>
      <point x="393" y="227" type="line"/>
      <point x="393" y="312" type="line"/>
      <point x="199" y="312" type="line"/>
      <point x="199" y="433" type="line"/>
      <point x="426" y="433" type="line"/>
      <point x="426" y="523" type="line"/>
      <point x="83" y="523" type="line"/>
    </contour>
  </outline>
</glyph>
<glyph name="E.sups" format="1">
  <advance width="360"/>
  <outline>
    <contour>
      <point x="53" y="264" type="line"/>
      <point x="327" y="264" type="line"/>
      <point x="327" y="333" type="line"/>
      <point x="137" y="333" type="line"/>
      <point x="137" y="454" type="line"/>
      <point x="293" y="454" type="line"/>
      <point x="293" y="523" type="line"/>
      <point x="137" y="523" type="line"/>
      <point x="137" y="627" type="line"/>
      <point x="321" y="627" type="line"/>
      <point x="321" y="696" type="line"/>
      <point x="53" y="696" type="line"/>
    </contour>
  </outline>
</glyph>
<glyph name="Ecyr" format="1">
  <advance width="576"/>
  <outline>
    <contour>
      <point x="241" y="-12" type="curve" smooth="yes"/>
      <point x="403" y="-12"/>
      <point x="528" y="98"/>
      <point x="528" y="325" type="curve" smooth="yes"/>
      <point x="528" y="552"/>
      <point x="408" y="666"/>
      <point x="243" y="666" type="curve" smooth="yes"/>
      <point x="159" y="666"/>
      <point x="84" y="627"/>
      <point x="40" y="583" type="curve"/>
      <point x="102" y="508" type="line"/>
      <point x="139" y="543"/>
      <point x="184" y="565"/>
      <point x="237" y="565" type="curve" smooth="yes"/>
      <point x="349" y="565"/>
      <point x="413" y="488"/>
      <point x="413" y="331" type="curve" smooth="yes"/>
      <point x="413" y="165"/>
      <point x="346" y="89"/>
      <point x="239" y="89" type="curve" smooth="yes"/>
      <point x="176" y="89"/>
      <point x="129" y="116"/>
      <point x="89" y="156" type="curve"/>
      <point x="27" y="83" type="line"/>
      <point x="84" y="22"/>
      <point x="154" y="-12"/>
    </contour>
    <contour>
      <point x="160" y="291" type="line"/>
      <point x="465" y="291" type="line"/>
      <point x="465" y="389" type="line"/>
      <point x="160" y="389" type="line"/>
    </contour>
    <contour>
      <point x="262" y="676" type="move" name="aboveUC"/>
    </contour>
  </outline>
</glyph>
<glyph name="Eng" format="1">
  <advance width="651"/>
  <outline>
    <contour>
      <point x="409" y="-12" type="curve" smooth="yes"/>
      <point x="534" y="-12"/>
      <point x="602" y="91"/>
      <point x="602" y="333" type="curve" smooth="yes"/>
      <point x="602" y="577"/>
      <point x="505" y="666"/>
      <point x="376" y="666" type="curve" smooth="yes"/>
      <point x="308" y="666"/>
      <point x="244" y="632"/>
      <point x="196" y="578" type="curve"/>
      <point x="196" y="654" type="line"/>
      <point x="83" y="654" type="line"/>
      <point x="83" y="0" type="line"/>
      <point x="199" y="0" type="line"/>
      <point x="199" y="476" type="line"/>
      <point x="235" y="531"/>
      <point x="297" y="565"/>
      <point x="344" y="565" type="curve" smooth="yes"/>
      <point x="428" y="565"/>
      <point x="483" y="506"/>
      <point x="483" y="333" type="curve" smooth="yes"/>
      <point x="483" y="145"/>
      <point x="443" y="97"/>
      <point x="396" y="97" type="curve" smooth="yes"/>
      <point x="377" y="97"/>
      <point x="364" y="101"/>
      <point x="351" y="106" type="curve"/>
      <point x="325" y="5" type="line"/>
      <point x="344" y="-7"/>
      <point x="381" y="-12"/>
    </contour>
    <contour>
      <point x="359" y="676" type="move" name="aboveUC"/>
    </contour>
  </outline>
</glyph>
<glyph name="Eogonek" format="1">
  <advance width="538"/>
  <outline>
    <contour>
      <point x="412" y="-218" type="curve" smooth="yes"/>
      <point x="443" y="-218"/>
      <point x="482" y="-204"/>
      <point x="505" y="-186" type="curve"/>
      <point x="476" y="-126" type="line"/>
      <point x="465" y="-134"/>
      <point x="453" y="-140"/>
      <point x="438" y="-140" type="curve" smooth="yes"/>
      <point x="416" y="-140"/>
      <point x="394" y="-127"/>
      <point x="394" y="-98" type="curve" smooth="yes"/>
      <point x="394" y="-50"/>
      <point x="437" y="-4"/>
      <point x="482" y="0" type="curve" smooth="yes"/>
      <point x="487" y="0" type="line"/>
      <point x="487" y="98" type="line"/>
      <point x="199" y="98" type="line"/>
      <point x="199" y="291" type="line"/>
      <point x="434" y="291" type="line"/>
      <point x="434" y="389" type="line"/>
      <point x="199" y="389" type="line"/>
      <point x="199" y="556" type="line"/>
      <point x="477" y="556" type="line"/>
      <point x="477" y="654" type="line"/>
      <point x="83" y="654" type="line"/>
      <point x="83" y="0" type="line"/>
      <point x="384" y="0" type="line"/>
      <point x="348" y="-22"/>
      <point x="307" y="-69"/>
      <point x="307" y="-127" type="curve" smooth="yes"/>
      <point x="307" y="-186"/>
      <point x="354" y="-218"/>
    </contour>
    <contour>
      <point x="287" y="676" type="move" name="aboveUC"/>
    </contour>
  </outline>
</glyph>
<glyph name="Epsilon.sc" format="1">
	<advance width="487"/>
	<outline>
		<component base="E.sc"/>
		<contour>
			<point name="aboveLC" x="267" y="563" type="move"/>
		</contour>
		<contour>
			<point name="belowLC" x="269" y="-22" type="move"/>
		</contour>
	</outline>
</glyph>
<glyph name="Esdescender.sc" format="1">
  <advance width="512"/>
  <outline>
    <contour>
      <point x="238" y="-172" type="line"/>
      <point x="337" y="-172" type="line"/>
      <point x="350" y="10" type="line"/>
      <point x="234" y="10" type="line"/>
    </contour>
    <component base="Es.sc"/>
  </outline>
</glyph>
<glyph name="Eta.sc" format="1">
  <advance width="608"/>
  <outline>
    <contour>
      <point x="304" y="563" type="move" name="aboveLC"/>
    </contour>
    <contour>
      <point x="304" y="-22" type="move" name="belowLC"/>
    </contour>
    <component base="H.sc"/>
  </outline>
</glyph>
<glyph name="Eth.sc" format="1">
  <advance width="590"/>
  <outline>
    <contour>
      <point x="30" y="241" type="line"/>
      <point x="331" y="241" type="line"/>
      <point x="331" y="300" type="line"/>
      <point x="107" y="300" type="line"/>
      <point x="30" y="296" type="line"/>
    </contour>
    <component base="D.sc" xOffset="22"/>
  </outline>
</glyph>
<glyph name="Euro" format="1">
  <advance width="513"/>
  <outline>
    <contour>
      <point x="328" y="-12" type="curve" smooth="yes"/>
      <point x="401" y="-12"/>
      <point x="459" y="22"/>
      <point x="505" y="81" type="curve"/>
      <point x="440" y="141" type="line"/>
      <point x="410" y="100"/>
      <point x="378" y="78"/>
      <point x="335" y="78" type="curve" smooth="yes"/>
      <point x="246" y="78"/>
      <point x="194" y="169"/>
      <point x="194" y="320" type="curve" smooth="yes"/>
      <point x="194" y="468"/>
      <point x="245" y="558"/>
      <point x="337" y="558" type="curve" smooth="yes"/>
      <point x="375" y="558"/>
      <point x="405" y="537"/>
      <point x="431" y="507" type="curve"/>
      <point x="496" y="570" type="line"/>
      <point x="458" y="618"/>
      <point x="400" y="648"/>
      <point x="340" y="648" type="curve" smooth="yes"/>
      <point x="184" y="648"/>
      <point x="78" y="524"/>
      <point x="78" y="316" type="curve" smooth="yes"/>
      <point x="78" y="106"/>
      <point x="183" y="-12"/>
    </contour>
    <contour>
      <point x="22" y="225" type="line"/>
      <point x="395" y="225" type="line"/>
      <point x="395" y="286" type="line"/>
      <point x="93" y="286" type="line"/>
      <point x="22" y="281" type="line"/>
    </contour>
    <contour>
      <point x="22" y="345" type="line"/>
      <point x="435" y="345" type="line"/>
      <point x="435" y="406" type="line"/>
      <point x="94" y="406" type="line"/>
      <point x="22" y="401" type="line"/>
    </contour>
  </outline>
</glyph>
<glyph name="Ecyr.sc" format="1">
  <advance width="508"/>
  <outline>
    <contour>
      <point x="211" y="-10" type="curve" smooth="yes"/>
      <point x="346" y="-10"/>
      <point x="460" y="85"/>
      <point x="460" y="258" type="curve" smooth="yes"/>
      <point x="460" y="431"/>
      <point x="352" y="531"/>
      <point x="212" y="531" type="curve" smooth="yes"/>
      <point x="140" y="531"/>
      <point x="76" y="500"/>
      <point x="36" y="464" type="curve"/>
      <point x="97" y="391" type="line"/>
      <point x="129" y="417"/>
      <point x="163" y="433"/>
      <point x="206" y="433" type="curve" smooth="yes"/>
      <point x="293" y="433"/>
      <point x="347" y="368"/>
      <point x="347" y="263" type="curve" smooth="yes"/>
      <point x="347" y="152"/>
      <point x="292" y="89"/>
      <point x="209" y="89" type="curve" smooth="yes"/>
      <point x="159" y="89"/>
      <point x="119" y="110"/>
      <point x="87" y="138" type="curve"/>
      <point x="27" y="67" type="line"/>
      <point x="76" y="17"/>
      <point x="137" y="-10"/>
    </contour>
    <contour>
      <point x="124" y="222" type="line"/>
      <point x="396" y="222" type="line"/>
      <point x="396" y="317" type="line"/>
      <point x="124" y="317" type="line"/>
    </contour>
  </outline>
</glyph>
<glyph name="El.sc" format="1">
  <advance width="588"/>
  <outline>
    <contour>
      <point x="69" y="-10" type="curve" smooth="yes"/>
      <point x="163" y="-10"/>
      <point x="220" y="46"/>
      <point x="242" y="164" type="curve" smooth="yes"/>
      <point x="252" y="222"/>
      <point x="258" y="306"/>
      <point x="258" y="368" type="curve" smooth="yes"/>
      <point x="258" y="427" type="line"/>
      <point x="388" y="427" type="line"/>
      <point x="388" y="0" type="line"/>
      <point x="501" y="0" type="line"/>
      <point x="501" y="523" type="line"/>
      <point x="153" y="523" type="line"/>
      <point x="153" y="356" type="line" smooth="yes"/>
      <point x="153" y="301"/>
      <point x="147" y="235"/>
      <point x="136" y="185" type="curve" smooth="yes"/>
      <point x="123" y="121"/>
      <point x="95" y="96"/>
      <point x="56" y="96" type="curve" smooth="yes"/>
      <point x="45" y="96"/>
      <point x="36" y="100"/>
      <point x="29" y="101" type="curve"/>
      <point x="8" y="-1" type="line"/>
      <point x="27" y="-7"/>
      <point x="39" y="-10"/>
    </contour>
  </outline>
</glyph>
<glyph name="Endescender.sc" format="1">
  <advance width="675"/>
  <outline>
    <contour>
      <point x="542" y="-188" type="line"/>
      <point x="645" y="-188" type="line"/>
      <point x="656" y="26" type="line"/>
      <point x="656" y="98" type="line"/>
      <point x="510" y="98" type="line"/>
      <point x="510" y="0" type="line"/>
      <point x="542" y="0" type="line"/>
    </contour>
    <component base="H"/>
  </outline>
</glyph>
<glyph name="F" format="1">
  <advance width="510"/>
  <outline>
    <contour>
      <point x="288" y="676" type="move" name="aboveUC"/>
    </contour>
    <contour>
      <point x="147" y="-22" type="move" name="belowLC"/>
    </contour>
    <contour>
      <point x="83" y="0" type="line"/>
      <point x="199" y="0" type="line"/>
      <point x="199" y="273" type="line"/>
      <point x="437" y="273" type="line"/>
      <point x="437" y="371" type="line"/>
      <point x="199" y="371" type="line"/>
      <point x="199" y="556" type="line"/>
      <point x="478" y="556" type="line"/>
      <point x="478" y="654" type="line"/>
      <point x="83" y="654" type="line"/>
    </contour>
  </outline>
</glyph>
<glyph name="F.sc" format="1">
  <advance width="460"/>
  <outline>
    <contour>
      <point x="268" y="563" type="move" name="aboveUC"/>
    </contour>
    <contour>
      <point x="147" y="-22" type="move" name="belowLC"/>
    </contour>
    <contour>
      <point x="83" y="0" type="line"/>
      <point x="199" y="0" type="line"/>
      <point x="199" y="207" type="line"/>
      <point x="395" y="207" type="line"/>
      <point x="395" y="295" type="line"/>
      <point x="199" y="295" type="line"/>
      <point x="199" y="428" type="line"/>
      <point x="428" y="428" type="line"/>
      <point x="428" y="523" type="line"/>
      <point x="83" y="523" type="line"/>
    </contour>
  </outline>
</glyph>
<glyph name="F.sups" format="1">
  <advance width="342"/>
  <outline>
    <contour>
      <point x="53" y="264" type="line"/>
      <point x="137" y="264" type="line"/>
      <point x="137" y="441" type="line"/>
      <point x="295" y="441" type="line"/>
      <point x="295" y="510" type="line"/>
      <point x="137" y="510" type="line"/>
      <point x="137" y="627" type="line"/>
      <point x="322" y="627" type="line"/>
      <point x="322" y="696" type="line"/>
      <point x="53" y="696" type="line"/>
    </contour>
  </outline>
</glyph>
<glyph name="F.sups" format="1">
  <advance width="342"/>
  <outline>
    <contour>
      <point x="53" y="385" type="line"/>
      <point x="137" y="385" type="line"/>
      <point x="137" y="561" type="line"/>
      <point x="295" y="561" type="line"/>
      <point x="295" y="631" type="line"/>
      <point x="137" y="631" type="line"/>
      <point x="137" y="747" type="line"/>
      <point x="322" y="747" type="line"/>
      <point x="322" y="817" type="line"/>
      <point x="53" y="817" type="line"/>
    </contour>
  </outline>
</glyph>
<glyph name="Fita" format="1">
  <advance width="674"/>
  <outline>
    <contour>
      <point x="337" y="-12" type="curve" smooth="yes"/>
      <point x="507" y="-12"/>
      <point x="626" y="110"/>
      <point x="626" y="330" type="curve" smooth="yes"/>
      <point x="626" y="549"/>
      <point x="507" y="666"/>
      <point x="337" y="666" type="curve" smooth="yes"/>
      <point x="167" y="666"/>
      <point x="49" y="549"/>
      <point x="49" y="330" type="curve" smooth="yes"/>
      <point x="49" y="110"/>
      <point x="167" y="-12"/>
    </contour>
    <contour>
      <point x="337" y="84" type="curve" smooth="yes"/>
      <point x="231" y="84"/>
      <point x="164" y="172"/>
      <point x="164" y="332" type="curve" smooth="yes"/>
      <point x="164" y="486"/>
      <point x="231" y="570"/>
      <point x="337" y="570" type="curve" smooth="yes"/>
      <point x="443" y="570"/>
      <point x="511" y="486"/>
      <point x="511" y="332" type="curve" smooth="yes"/>
      <point x="511" y="172"/>
      <point x="443" y="84"/>
    </contour>
    <contour>
      <point x="129" y="294" type="line"/>
      <point x="556" y="294" type="line"/>
      <point x="556" y="386" type="line"/>
      <point x="129" y="386" type="line"/>
    </contour>
    <contour>
      <point x="337" y="676" type="move" name="aboveUC"/>
    </contour>
  </outline>
</glyph>
<glyph name="Fita.sc" format="1">
  <advance width="603"/>
  <outline>
    <contour>
      <point x="302" y="-12" type="curve" smooth="yes"/>
      <point x="450" y="-12"/>
      <point x="554" y="88"/>
      <point x="554" y="264" type="curve" smooth="yes"/>
      <point x="554" y="440"/>
      <point x="450" y="535"/>
      <point x="302" y="535" type="curve" smooth="yes"/>
      <point x="152" y="535"/>
      <point x="49" y="440"/>
      <point x="49" y="264" type="curve" smooth="yes"/>
      <point x="49" y="88"/>
      <point x="152" y="-12"/>
    </contour>
    <contour>
      <point x="302" y="78" type="curve" smooth="yes"/>
      <point x="216" y="78"/>
      <point x="162" y="146"/>
      <point x="162" y="265" type="curve" smooth="yes"/>
      <point x="162" y="382"/>
      <point x="216" y="445"/>
      <point x="302" y="445" type="curve" smooth="yes"/>
      <point x="387" y="445"/>
      <point x="440" y="382"/>
      <point x="440" y="265" type="curve" smooth="yes"/>
      <point x="440" y="146"/>
      <point x="387" y="78"/>
    </contour>
    <contour>
      <point x="482" y="227" type="line"/>
      <point x="482" y="312" type="line"/>
      <point x="131" y="312" type="line"/>
      <point x="131" y="227" type="line"/>
    </contour>
  </outline>
</glyph>
<glyph name="Fita.sc" format="1">
  <advance width="603"/>
  <outline>
    <contour>
      <point x="131" y="227" type="line"/>
      <point x="482" y="227" type="line"/>
      <point x="482" y="312" type="line"/>
      <point x="131" y="312" type="line"/>
    </contour>
    <component base="O.sc"/>
  </outline>
</glyph>
<glyph name="G" format="1">
  <advance width="628"/>
  <outline>
    <contour>
      <point x="360" y="676" type="move" name="aboveUC"/>
    </contour>
    <contour>
      <point x="355" y="-22" type="move" name="belowLC"/>
    </contour>
    <contour>
      <point x="357" y="-12" type="curve" smooth="yes"/>
      <point x="446" y="-12"/>
      <point x="522" y="22"/>
      <point x="566" y="66" type="curve"/>
      <point x="566" y="354" type="line"/>
      <point x="338" y="354" type="line"/>
      <point x="338" y="259" type="line"/>
      <point x="462" y="259" type="line"/>
      <point x="462" y="118" type="line"/>
      <point x="441" y="99"/>
      <point x="405" y="89"/>
      <point x="368" y="89" type="curve" smooth="yes"/>
      <point x="237" y="89"/>
      <point x="168" y="179"/>
      <point x="168" y="328" type="curve" smooth="yes"/>
      <point x="168" y="475"/>
      <point x="246" y="565"/>
      <point x="362" y="565" type="curve" smooth="yes"/>
      <point x="423" y="565"/>
      <point x="461" y="540"/>
      <point x="494" y="508" type="curve"/>
      <point x="556" y="583" type="line"/>
      <point x="515" y="625"/>
      <point x="451" y="666"/>
      <point x="358" y="666" type="curve" smooth="yes"/>
      <point x="184" y="666"/>
      <point x="49" y="539"/>
      <point x="49" y="325" type="curve" smooth="yes"/>
      <point x="49" y="108"/>
      <point x="180" y="-12"/>
    </contour>
  </outline>
</glyph>
<glyph name="G.sc" format="1">
  <advance width="563"/>
  <outline>
    <contour>
      <point x="317" y="-12" type="curve" smooth="yes"/>
      <point x="393" y="-12"/>
      <point x="461" y="14"/>
      <point x="501" y="50" type="curve"/>
      <point x="501" y="289" type="line"/>
      <point x="300" y="289" type="line"/>
      <point x="300" y="207" type="line"/>
      <point x="398" y="207" type="line"/>
      <point x="398" y="102" type="line"/>
      <point x="381" y="89"/>
      <point x="355" y="82"/>
      <point x="326" y="82" type="curve" smooth="yes"/>
      <point x="220" y="82"/>
      <point x="167" y="150"/>
      <point x="167" y="259" type="curve" smooth="yes"/>
      <point x="167" y="374"/>
      <point x="230" y="440"/>
      <point x="322" y="440" type="curve" smooth="yes"/>
      <point x="370" y="440"/>
      <point x="400" y="424"/>
      <point x="428" y="398" type="curve"/>
      <point x="491" y="467" type="line"/>
      <point x="454" y="502"/>
      <point x="399" y="535"/>
      <point x="321" y="535" type="curve" smooth="yes"/>
      <point x="169" y="535"/>
      <point x="49" y="433"/>
      <point x="49" y="259" type="curve" smooth="yes"/>
      <point x="49" y="81"/>
      <point x="165" y="-12"/>
    </contour>
    <contour>
      <point x="314" y="563" type="move" name="aboveUC"/>
    </contour>
    <contour>
      <point x="314" y="-22" type="move" name="belowLC"/>
    </contour>
  </outline>
</glyph>
<glyph name="G.sups" format="1">
  <advance width="421"/>
  <outline>
    <contour>
      <point x="239" y="256" type="curve" smooth="yes"/>
      <point x="298" y="256"/>
      <point x="350" y="280"/>
      <point x="382" y="308" type="curve"/>
      <point x="382" y="501" type="line"/>
      <point x="227" y="501" type="line"/>
      <point x="227" y="433" type="line"/>
      <point x="306" y="433" type="line"/>
      <point x="306" y="345" type="line"/>
      <point x="294" y="334"/>
      <point x="271" y="328"/>
      <point x="247" y="328" type="curve" smooth="yes"/>
      <point x="162" y="328"/>
      <point x="117" y="386"/>
      <point x="117" y="481" type="curve" smooth="yes"/>
      <point x="117" y="575"/>
      <point x="168" y="632"/>
      <point x="242" y="632" type="curve" smooth="yes"/>
      <point x="283" y="632"/>
      <point x="306" y="618"/>
      <point x="328" y="597" type="curve"/>
      <point x="375" y="651" type="line"/>
      <point x="345" y="678"/>
      <point x="303" y="704"/>
      <point x="242" y="704" type="curve" smooth="yes"/>
      <point x="123" y="704"/>
      <point x="31" y="620"/>
      <point x="31" y="479" type="curve" smooth="yes"/>
      <point x="31" y="335"/>
      <point x="121" y="256"/>
    </contour>
  </outline>
</glyph>
<glyph name="Gamma.sc" format="1">
  <advance width="460"/>
  <outline>
    <contour>
      <point x="83" y="0" type="line"/>
      <point x="199" y="0" type="line"/>
      <point x="199" y="427" type="line"/>
      <point x="429" y="427" type="line"/>
      <point x="429" y="523" type="line"/>
      <point x="83" y="523" type="line"/>
    </contour>
  </outline>
</glyph>
<glyph name="Germandbls" format="1">
  <advance width="686"/>
  <outline>
    <contour>
      <point x="448" y="-12" type="curve" smooth="yes"/>
      <point x="572" y="-12"/>
      <point x="645" y="69"/>
      <point x="645" y="174" type="curve" smooth="yes"/>
      <point x="645" y="271"/>
      <point x="582" y="331"/>
      <point x="464" y="360" type="curve"/>
      <point x="587" y="497" type="line"/>
      <point x="554" y="598"/>
      <point x="475" y="666"/>
      <point x="354" y="666" type="curve" smooth="yes"/>
      <point x="176" y="666"/>
      <point x="86" y="564"/>
      <point x="86" y="413" type="curve" smooth="yes"/>
      <point x="86" y="0" type="line"/>
      <point x="202" y="0" type="line"/>
      <point x="202" y="395" type="line" smooth="yes"/>
      <point x="202" y="514"/>
      <point x="255" y="571"/>
      <point x="351" y="571" type="curve" smooth="yes"/>
      <point x="411" y="571"/>
      <point x="451" y="539"/>
      <point x="470" y="501" type="curve"/>
      <point x="347" y="362" type="line"/>
      <point x="355" y="292" type="line"/>
      <point x="486" y="270"/>
      <point x="526" y="226"/>
      <point x="526" y="175" type="curve" smooth="yes"/>
      <point x="526" y="121"/>
      <point x="492" y="83"/>
      <point x="436" y="83" type="curve" smooth="yes"/>
      <point x="397" y="83"/>
      <point x="363" y="97"/>
      <point x="328" y="134" type="curve"/>
      <point x="265" y="62" type="line"/>
      <point x="304" y="21"/>
      <point x="367" y="-12"/>
    </contour>
  </outline>
</glyph>
<glyph name="Germandbls.sc" format="1">
  <advance width="615"/>
  <outline>
    <contour>
      <point x="404" y="-12" type="curve" smooth="yes"/>
      <point x="514" y="-12"/>
      <point x="574" y="57"/>
      <point x="574" y="141" type="curve" smooth="yes"/>
      <point x="574" y="220"/>
      <point x="518" y="264"/>
      <point x="427" y="287" type="curve"/>
      <point x="526" y="387" type="line"/>
      <point x="500" y="474"/>
      <point x="428" y="535"/>
      <point x="320" y="535" type="curve" smooth="yes"/>
      <point x="164" y="535"/>
      <point x="86" y="448"/>
      <point x="86" y="328" type="curve" smooth="yes"/>
      <point x="86" y="0" type="line"/>
      <point x="202" y="0" type="line"/>
      <point x="202" y="312" type="line" smooth="yes"/>
      <point x="202" y="399"/>
      <point x="243" y="444"/>
      <point x="316" y="444" type="curve" smooth="yes"/>
      <point x="366" y="444"/>
      <point x="397" y="421"/>
      <point x="415" y="392" type="curve"/>
      <point x="314" y="288" type="line"/>
      <point x="322" y="229" type="line"/>
      <point x="422" y="215"/>
      <point x="457" y="184"/>
      <point x="457" y="143" type="curve" smooth="yes"/>
      <point x="457" y="104"/>
      <point x="432" y="79"/>
      <point x="391" y="79" type="curve" smooth="yes"/>
      <point x="363" y="79"/>
      <point x="332" y="88"/>
      <point x="303" y="114" type="curve"/>
      <point x="246" y="48" type="line"/>
      <point x="279" y="17"/>
      <point x="333" y="-12"/>
    </contour>
  </outline>
</glyph>
<glyph name="Ghe" format="1">
  <advance width="510"/>
  <outline>
    <contour>
      <point x="293" y="676" type="move" name="aboveUC"/>
    </contour>
    <component base="Gamma"/>
  </outline>
</glyph>
<glyph name="Ghe.sc" format="1">
  <advance width="460"/>
  <outline>
    <contour>
      <point x="272" y="545" type="move" name="aboveUC"/>
    </contour>
    <component base="Gamma.sc"/>
  </outline>
</glyph>
<glyph name="Ghestroke.sc" format="1">
  <advance width="484"/>
  <outline>
    <contour>
      <point x="30" y="220" type="line"/>
      <point x="360" y="220" type="line"/>
      <point x="360" y="280" type="line"/>
      <point x="109" y="280" type="line"/>
      <point x="30" y="275" type="line"/>
    </contour>
    <component base="Ghe.sc" xOffset="24"/>
  </outline>
</glyph>
<glyph name="Gheup" format="1">
  <advance width="510"/>
  <outline>
    <contour>
      <point x="83" y="0" type="line"/>
      <point x="199" y="0" type="line"/>
      <point x="199" y="556" type="line"/>
      <point x="478" y="556" type="line"/>
      <point x="468" y="654" type="line"/>
      <point x="83" y="654" type="line"/>
    </contour>
    <contour>
      <point x="339" y="556" type="line"/>
      <point x="478" y="556" type="line"/>
      <point x="488" y="826" type="line"/>
      <point x="389" y="826" type="line"/>
      <point x="371" y="654" type="line"/>
      <point x="339" y="654" type="line"/>
    </contour>
  </outline>
</glyph>
<glyph name="Gheup.sc" format="1">
	<advance width="460"/>
	<outline>
		<contour>
			<point x="290" y="427" type="line"/>
			<point x="429" y="427" type="line"/>
			<point x="438" y="690" type="line"/>
			<point x="342" y="690" type="line"/>
			<point x="323" y="518" type="line"/>
			<point x="290" y="518" type="line"/>
		</contour>
		<component base="Gamma.sc"/>
	</outline>
</glyph>
<glyph name="Ghook" format="1">
  <advance width="628"/>
  <outline>
    <contour>
      <point x="357" y="-12" type="curve" smooth="yes"/>
      <point x="446" y="-12"/>
      <point x="522" y="22"/>
      <point x="566" y="66" type="curve"/>
      <point x="566" y="354" type="line"/>
      <point x="338" y="354" type="line"/>
      <point x="338" y="259" type="line"/>
      <point x="462" y="259" type="line"/>
      <point x="462" y="118" type="line"/>
      <point x="441" y="99"/>
      <point x="405" y="89"/>
      <point x="368" y="89" type="curve" smooth="yes"/>
      <point x="237" y="89"/>
      <point x="168" y="179"/>
      <point x="168" y="328" type="curve" smooth="yes"/>
      <point x="168" y="475"/>
      <point x="246" y="565"/>
      <point x="362" y="565" type="curve" smooth="yes"/>
      <point x="423" y="565"/>
      <point x="461" y="546"/>
      <point x="494" y="522" type="curve"/>
      <point x="556" y="597" type="line"/>
      <point x="515" y="632"/>
      <point x="451" y="666"/>
      <point x="358" y="666" type="curve" smooth="yes"/>
      <point x="184" y="666"/>
      <point x="49" y="539"/>
      <point x="49" y="325" type="curve" smooth="yes"/>
      <point x="49" y="108"/>
      <point x="180" y="-12"/>
    </contour>
    <contour>
      <point x="455" y="595" type="curve"/>
      <point x="556" y="597" type="line"/>
      <point x="537" y="623"/>
      <point x="524" y="641"/>
      <point x="524" y="669" type="curve" smooth="yes"/>
      <point x="524" y="700"/>
      <point x="545" y="720"/>
      <point x="577" y="720" type="curve" smooth="yes"/>
      <point x="589" y="720"/>
      <point x="597" y="716"/>
      <point x="608" y="712" type="curve"/>
      <point x="629" y="798" type="line"/>
      <point x="610" y="805"/>
      <point x="589" y="811"/>
      <point x="555" y="811" type="curve" smooth="yes"/>
      <point x="476" y="811"/>
      <point x="426" y="756"/>
      <point x="426" y="686" type="curve" smooth="yes"/>
      <point x="426" y="656"/>
      <point x="438" y="629"/>
    </contour>
  </outline>
</glyph>
<glyph name="Ghook.sc" format="1">
  <advance width="563"/>
  <outline>
    <contour>
      <point x="317" y="-12" type="curve" smooth="yes"/>
      <point x="393" y="-12"/>
      <point x="461" y="14"/>
      <point x="501" y="50" type="curve"/>
      <point x="501" y="289" type="line"/>
      <point x="300" y="289" type="line"/>
      <point x="300" y="207" type="line"/>
      <point x="398" y="207" type="line"/>
      <point x="398" y="102" type="line"/>
      <point x="381" y="89"/>
      <point x="355" y="82"/>
      <point x="326" y="82" type="curve" smooth="yes"/>
      <point x="220" y="82"/>
      <point x="167" y="150"/>
      <point x="167" y="259" type="curve" smooth="yes"/>
      <point x="167" y="374"/>
      <point x="230" y="440"/>
      <point x="322" y="440" type="curve" smooth="yes"/>
      <point x="370" y="440"/>
      <point x="400" y="426"/>
      <point x="428" y="406" type="curve"/>
      <point x="491" y="475" type="line"/>
      <point x="454" y="504"/>
      <point x="399" y="535"/>
      <point x="321" y="535" type="curve" smooth="yes"/>
      <point x="169" y="535"/>
      <point x="49" y="433"/>
      <point x="49" y="259" type="curve" smooth="yes"/>
      <point x="49" y="81"/>
      <point x="165" y="-12"/>
    </contour>
    <contour>
      <point x="393" y="471" type="curve"/>
      <point x="491" y="475" type="line"/>
      <point x="476" y="491"/>
      <point x="465" y="509"/>
      <point x="465" y="530" type="curve" smooth="yes"/>
      <point x="465" y="555"/>
      <point x="482" y="568"/>
      <point x="509" y="568" type="curve" smooth="yes"/>
      <point x="519" y="568"/>
      <point x="525" y="566"/>
      <point x="533" y="563" type="curve"/>
      <point x="555" y="645" type="line"/>
      <point x="537" y="652"/>
      <point x="518" y="657"/>
      <point x="486" y="657" type="curve" smooth="yes"/>
      <point x="412" y="657"/>
      <point x="368" y="607"/>
      <point x="368" y="547" type="curve" smooth="yes"/>
      <point x="368" y="524"/>
      <point x="379" y="497"/>
    </contour>
  </outline>
</glyph>
<glyph name="Gsmall" format="1">
  <advance width="507"/>
  <outline>
    <contour>
      <point x="284" y="-12" type="curve" smooth="yes"/>
      <point x="359" y="-12"/>
      <point x="423" y="16"/>
      <point x="462" y="51" type="curve"/>
      <point x="462" y="280" type="line"/>
      <point x="267" y="280" type="line"/>
      <point x="267" y="201" type="line"/>
      <point x="362" y="201" type="line"/>
      <point x="362" y="99" type="line"/>
      <point x="346" y="86"/>
      <point x="321" y="77"/>
      <point x="293" y="77" type="curve" smooth="yes"/>
      <point x="212" y="77"/>
      <point x="157" y="139"/>
      <point x="157" y="245" type="curve" smooth="yes"/>
      <point x="157" y="357"/>
      <point x="221" y="414"/>
      <point x="295" y="414" type="curve" smooth="yes"/>
      <point x="344" y="414"/>
      <point x="369" y="396"/>
      <point x="398" y="373" type="curve"/>
      <point x="452" y="443" type="line"/>
      <point x="413" y="475"/>
      <point x="367" y="503"/>
      <point x="288" y="503" type="curve" smooth="yes"/>
      <point x="156" y="503"/>
      <point x="41" y="408"/>
      <point x="41" y="245" type="curve" smooth="yes"/>
      <point x="41" y="74"/>
      <point x="153" y="-12"/>
    </contour>
    <contour>
      <point x="314" y="514" type="move" name="aboveUC"/>
    </contour>
    <contour>
      <point x="313" y="-22" type="move" name="belowLC"/>
    </contour>
  </outline>
</glyph>
<glyph name="Gheup" format="1">
  <advance width="510"/>
  <outline>
    <contour>
      <point x="201" y="253" type="line"/>
      <point x="327" y="253" type="line"/>
      <point x="330" y="636" type="line"/>
      <point x="471" y="636" type="line"/>
      <point x="460" y="654" type="line"/>
      <point x="201" y="654" type="line"/>
    </contour>
    <contour>
      <point x="221" y="304" type="line"/>
      <point x="350" y="304" type="line"/>
      <point x="356" y="746" type="line"/>
      <point x="396" y="746" type="line"/>
      <point x="379" y="654" type="line"/>
      <point x="221" y="654" type="line"/>
    </contour>
  </outline>
</glyph>
<glyph name="Gheup.sc" format="1">
  <advance width="458"/>
  <outline>
    <contour>
      <point x="83" y="0" type="line"/>
      <point x="197" y="0" type="line"/>
      <point x="197" y="427" type="line"/>
      <point x="428" y="427" type="line"/>
      <point x="419" y="523" type="line"/>
      <point x="83" y="523" type="line"/>
    </contour>
    <contour>
      <point x="294" y="427" type="line"/>
      <point x="428" y="427" type="line"/>
      <point x="436" y="660" type="line"/>
      <point x="341" y="660" type="line"/>
      <point x="322" y="523" type="line"/>
      <point x="294" y="523" type="line"/>
    </contour>
  </outline>
</glyph>
<glyph name="Ghook" format="1">
  <advance width="628"/>
  <outline>
    <contour>
      <point x="357" y="-12" type="curve" smooth="yes"/>
      <point x="446" y="-12"/>
      <point x="522" y="22"/>
      <point x="566" y="66" type="curve"/>
      <point x="566" y="354" type="line"/>
      <point x="338" y="354" type="line"/>
      <point x="338" y="259" type="line"/>
      <point x="462" y="259" type="line"/>
      <point x="462" y="118" type="line"/>
      <point x="441" y="99"/>
      <point x="405" y="89"/>
      <point x="368" y="89" type="curve" smooth="yes"/>
      <point x="237" y="89"/>
      <point x="168" y="179"/>
      <point x="168" y="328" type="curve" smooth="yes"/>
      <point x="168" y="475"/>
      <point x="246" y="565"/>
      <point x="362" y="565" type="curve" smooth="yes"/>
      <point x="423" y="565"/>
      <point x="461" y="546"/>
      <point x="494" y="522" type="curve"/>
      <point x="556" y="597" type="line"/>
      <point x="515" y="632"/>
      <point x="451" y="666"/>
      <point x="358" y="666" type="curve" smooth="yes"/>
      <point x="184" y="666"/>
      <point x="49" y="539"/>
      <point x="49" y="325" type="curve" smooth="yes"/>
      <point x="49" y="108"/>
      <point x="180" y="-12"/>
    </contour>
    <contour>
      <point x="467" y="594" type="curve"/>
      <point x="457" y="610"/>
      <point x="542" y="621"/>
      <point x="542" y="634" type="curve" smooth="yes"/>
      <point x="534" y="655"/>
      <point x="532" y="678"/>
      <point x="547" y="692" type="curve" smooth="yes"/>
      <point x="553" y="711"/>
      <point x="571" y="717"/>
      <point x="592" y="716" type="curve"/>
      <point x="598" y="716"/>
      <point x="605" y="725"/>
      <point x="611" y="722" type="curve"/>
      <point x="606" y="725"/>
      <point x="618" y="803"/>
      <point x="611" y="803" type="curve" smooth="yes"/>
      <point x="579" y="807"/>
      <point x="547" y="800"/>
      <point x="520" y="778" type="curve" smooth="yes"/>
      <point x="460" y="765"/>
      <point x="429" y="714"/>
      <point x="440" y="649" type="curve"/>
      <point x="440" y="632"/>
      <point x="461" y="611"/>
    </contour>
  </outline>
</glyph>
<glyph name="Ghook.sc" format="1">
  <advance width="563"/>
  <outline>
    <contour>
      <point x="317" y="-12" type="curve" smooth="yes"/>
      <point x="393" y="-12"/>
      <point x="461" y="14"/>
      <point x="501" y="50" type="curve"/>
      <point x="501" y="289" type="line"/>
      <point x="300" y="289" type="line"/>
      <point x="300" y="207" type="line"/>
      <point x="398" y="207" type="line"/>
      <point x="398" y="102" type="line"/>
      <point x="381" y="89"/>
      <point x="355" y="82"/>
      <point x="326" y="82" type="curve" smooth="yes"/>
      <point x="220" y="82"/>
      <point x="167" y="150"/>
      <point x="167" y="259" type="curve" smooth="yes"/>
      <point x="167" y="374"/>
      <point x="230" y="440"/>
      <point x="322" y="440" type="curve" smooth="yes"/>
      <point x="370" y="440"/>
      <point x="400" y="426"/>
      <point x="428" y="406" type="curve"/>
      <point x="491" y="475" type="line"/>
      <point x="454" y="504"/>
      <point x="399" y="535"/>
      <point x="321" y="535" type="curve" smooth="yes"/>
      <point x="169" y="535"/>
      <point x="49" y="433"/>
      <point x="49" y="259" type="curve" smooth="yes"/>
      <point x="49" y="81"/>
      <point x="165" y="-12"/>
    </contour>
    <contour>
      <point x="404" y="471" type="curve"/>
      <point x="395" y="482"/>
      <point x="480" y="495"/>
      <point x="480" y="505" type="curve" smooth="yes"/>
      <point x="474" y="519"/>
      <point x="471" y="537"/>
      <point x="483" y="547" type="curve" smooth="yes"/>
      <point x="489" y="564"/>
      <point x="504" y="567"/>
      <point x="521" y="566" type="curve"/>
      <point x="526" y="566"/>
      <point x="531" y="575"/>
      <point x="536" y="573" type="curve"/>
      <point x="532" y="575"/>
      <point x="545" y="648"/>
      <point x="540" y="648" type="curve" smooth="yes"/>
      <point x="510" y="653"/>
      <point x="482" y="647"/>
      <point x="455" y="630" type="curve" smooth="yes"/>
      <point x="399" y="620"/>
      <point x="371" y="571"/>
      <point x="379" y="516" type="curve"/>
      <point x="379" y="503"/>
      <point x="399" y="484"/>
    </contour>
  </outline>
</glyph>
<glyph name="H" format="1">
  <advance width="663"/>
  <outline>
    <contour>
      <point x="330" y="676" type="move" name="aboveUC"/>
    </contour>
    <contour>
      <point x="330" y="-22" type="move" name="belowLC"/>
    </contour>
    <contour>
      <point x="83" y="0" type="line"/>
      <point x="199" y="0" type="line"/>
      <point x="199" y="290" type="line"/>
      <point x="464" y="290" type="line"/>
      <point x="464" y="0" type="line"/>
      <point x="580" y="0" type="line"/>
      <point x="580" y="654" type="line"/>
      <point x="464" y="654" type="line"/>
      <point x="464" y="391" type="line"/>
      <point x="199" y="391" type="line"/>
      <point x="199" y="654" type="line"/>
      <point x="83" y="654" type="line"/>
    </contour>
  </outline>
</glyph>
<glyph name="H.sups" format="1">
  <advance width="443"/>
  <outline>
    <contour>
      <point x="53" y="264" type="line"/>
      <point x="137" y="264" type="line"/>
      <point x="137" y="453" type="line"/>
      <point x="307" y="453" type="line"/>
      <point x="307" y="264" type="line"/>
      <point x="391" y="264" type="line"/>
      <point x="391" y="696" type="line"/>
      <point x="307" y="696" type="line"/>
      <point x="307" y="525" type="line"/>
      <point x="137" y="525" type="line"/>
      <point x="137" y="696" type="line"/>
      <point x="53" y="696" type="line"/>
    </contour>
  </outline>
</glyph>
<glyph name="H.sc" format="1">
  <advance width="608"/>
  <outline>
    <contour>
      <point x="304" y="563" type="move" name="aboveUC"/>
    </contour>
    <contour>
      <point x="304" y="-22" type="move" name="belowLC"/>
    </contour>
    <contour>
      <point x="83" y="0" type="line"/>
      <point x="199" y="0" type="line"/>
      <point x="199" y="221" type="line"/>
      <point x="409" y="221" type="line"/>
      <point x="409" y="0" type="line"/>
      <point x="525" y="0" type="line"/>
      <point x="525" y="523" type="line"/>
      <point x="409" y="523" type="line"/>
      <point x="409" y="321" type="line"/>
      <point x="199" y="321" type="line"/>
      <point x="199" y="523" type="line"/>
      <point x="83" y="523" type="line"/>
    </contour>
  </outline>
</glyph>
<glyph name="Hadescender.sc" format="1">
  <advance width="519"/>
  <outline>
    <contour>
      <point x="390" y="-172" type="line"/>
      <point x="489" y="-172" type="line"/>
      <point x="500" y="19" type="line"/>
      <point x="500" y="96" type="line"/>
      <point x="366" y="96" type="line"/>
      <point x="366" y="0" type="line"/>
      <point x="390" y="0" type="line"/>
    </contour>
    <component base="Ha.sc"/>
  </outline>
</glyph>
<glyph name="Hbar" format="1">
  <advance width="700"/>
  <outline>
    <contour>
      <point x="28" y="489" type="line"/>
      <point x="671" y="489" type="line"/>
      <point x="671" y="548" type="line"/>
      <point x="107" y="548" type="line"/>
      <point x="28" y="543" type="line"/>
    </contour>
    <component base="H" xOffset="20"/>
  </outline>
</glyph>
<glyph name="Hbar.sc" format="1">
  <advance width="646"/>
  <outline>
    <contour>
      <point x="28" y="386" type="line"/>
      <point x="617" y="386" type="line"/>
      <point x="617" y="444" type="line"/>
      <point x="107" y="444" type="line"/>
      <point x="28" y="439" type="line"/>
    </contour>
    <contour>
      <point x="103" y="0" type="line"/>
      <point x="219" y="0" type="line"/>
      <point x="219" y="227" type="line"/>
      <point x="429" y="227" type="line"/>
      <point x="429" y="0" type="line"/>
      <point x="545" y="0" type="line"/>
      <point x="545" y="523" type="line"/>
      <point x="429" y="523" type="line"/>
      <point x="429" y="315" type="line"/>
      <point x="219" y="315" type="line"/>
      <point x="219" y="523" type="line"/>
      <point x="103" y="523" type="line"/>
    </contour>
  </outline>
</glyph>
<glyph name="Hard.sc" format="1">
  <advance width="621"/>
  <outline>
    <contour>
      <point x="182" y="0" type="line"/>
      <point x="364" y="0" type="line" smooth="yes"/>
      <point x="487" y="0"/>
      <point x="582" y="42"/>
      <point x="582" y="168" type="curve" smooth="yes"/>
      <point x="582" y="281"/>
      <point x="485" y="329"/>
      <point x="364" y="329" type="curve" smooth="yes"/>
      <point x="297" y="329" type="line"/>
      <point x="297" y="523" type="line"/>
      <point x="26" y="523" type="line"/>
      <point x="26" y="427" type="line"/>
      <point x="182" y="427" type="line"/>
    </contour>
    <contour>
      <point x="297" y="90" type="line"/>
      <point x="297" y="239" type="line"/>
      <point x="357" y="239" type="line" smooth="yes"/>
      <point x="433" y="239"/>
      <point x="470" y="215"/>
      <point x="470" y="166" type="curve" smooth="yes"/>
      <point x="470" y="110"/>
      <point x="431" y="90"/>
      <point x="357" y="90" type="curve" smooth="yes"/>
    </contour>
  </outline>
</glyph>
<glyph name="I.alt" format="1">
  <advance width="370"/>
  <outline>
    <contour>
      <point x="49" y="0" type="line"/>
      <point x="320" y="0" type="line"/>
      <point x="320" y="98" type="line"/>
      <point x="243" y="98" type="line"/>
      <point x="243" y="556" type="line"/>
      <point x="320" y="556" type="line"/>
      <point x="320" y="654" type="line"/>
      <point x="49" y="654" type="line"/>
      <point x="49" y="556" type="line"/>
      <point x="127" y="556" type="line"/>
      <point x="127" y="98" type="line"/>
      <point x="49" y="98" type="line"/>
    </contour>
    <contour>
      <point x="185" y="676" type="move" name="aboveUC"/>
    </contour>
    <contour>
      <point x="164" y="0" type="move" name="ogonekUC"/>
    </contour>
    <contour>
      <point x="186" y="-22" type="move" name="belowLC"/>
    </contour>
  </outline>
</glyph>
<glyph name="I" format="1">
  <advance width="282"/>
  <outline>
    <contour>
      <point x="141" y="676" type="move" name="aboveUC"/>
    </contour>
    <contour>
      <point x="120" y="0" type="move" name="ogonekUC"/>
    </contour>
    <contour>
      <point x="141" y="-22" type="move" name="belowLC"/>
    </contour>
    <contour>
      <point x="83" y="0" type="line"/>
      <point x="199" y="0" type="line"/>
      <point x="199" y="654" type="line"/>
      <point x="83" y="654" type="line"/>
    </contour>
  </outline>
</glyph>
<glyph name="I.sc" format="1">
  <advance width="282"/>
  <outline>
    <contour>
      <point x="141" y="563" type="move" name="aboveUC"/>
    </contour>
    <contour>
      <point x="120" y="0" type="move" name="ogonekUC"/>
    </contour>
    <contour>
      <point x="141" y="-22" type="move" name="belowLC"/>
    </contour>
    <contour>
      <point x="83" y="0" type="line"/>
      <point x="199" y="0" type="line"/>
      <point x="199" y="523" type="line"/>
      <point x="83" y="523" type="line"/>
    </contour>
  </outline>
</glyph>
<glyph name="I.sups" format="1">
  <advance width="190"/>
  <outline>
    <contour>
      <point x="53" y="264" type="line"/>
      <point x="137" y="264" type="line"/>
      <point x="137" y="696" type="line"/>
      <point x="53" y="696" type="line"/>
    </contour>
  </outline>
</glyph>
<glyph name="IJ.sc" format="1">
  <advance width="565"/>
  <outline>
    <contour>
      <point x="83" y="0" type="line"/>
      <point x="199" y="0" type="line"/>
      <point x="199" y="523" type="line"/>
      <point x="83" y="523" type="line"/>
    </contour>
    <contour>
      <point x="325" y="-161" type="curve" smooth="yes"/>
      <point x="442" y="-161"/>
      <point x="482" y="-84"/>
      <point x="482" y="20" type="curve" smooth="yes"/>
      <point x="482" y="523" type="line"/>
      <point x="366" y="523" type="line"/>
      <point x="366" y="20" type="line" smooth="yes"/>
      <point x="366" y="-37"/>
      <point x="353" y="-68"/>
      <point x="309" y="-68" type="curve" smooth="yes"/>
      <point x="294" y="-68"/>
      <point x="280" y="-64"/>
      <point x="267" y="-60" type="curve"/>
      <point x="246" y="-148" type="line"/>
      <point x="264" y="-155"/>
      <point x="290" y="-161"/>
    </contour>
  </outline>
</glyph>
<glyph name="Icyr" format="1">
  <advance width="666"/>
  <outline>
    <contour>
      <point x="337" y="682" type="move" name="aboveUC"/>
    </contour>
    <contour>
      <point x="83" y="0" type="line"/>
      <point x="206" y="0" type="line"/>
      <point x="412" y="369" type="line"/>
      <point x="479" y="507" type="line"/>
      <point x="483" y="507" type="line"/>
      <point x="478" y="438"/>
      <point x="468" y="359"/>
      <point x="468" y="286" type="curve" smooth="yes"/>
      <point x="468" y="0" type="line"/>
      <point x="583" y="0" type="line"/>
      <point x="583" y="654" type="line"/>
      <point x="460" y="654" type="line"/>
      <point x="255" y="286" type="line"/>
      <point x="187" y="147" type="line"/>
      <point x="183" y="147" type="line"/>
      <point x="189" y="214"/>
      <point x="198" y="297"/>
      <point x="198" y="370" type="curve" smooth="yes"/>
      <point x="198" y="654" type="line"/>
      <point x="83" y="654" type="line"/>
    </contour>
  </outline>
</glyph>
<glyph name="Icyr.sc" format="1">
  <advance width="596"/>
  <outline>
    <contour>
      <point x="512" y="0" type="line"/>
      <point x="406" y="0" type="line"/>
      <point x="406" y="194" type="line" smooth="yes"/>
      <point x="406" y="255"/>
      <point x="415" y="329"/>
      <point x="420" y="386" type="curve"/>
      <point x="416" y="386" type="line"/>
      <point x="357" y="268" type="line"/>
      <point x="198" y="0" type="line"/>
      <point x="83" y="0" type="line"/>
      <point x="83" y="523" type="line"/>
      <point x="190" y="523" type="line"/>
      <point x="190" y="330" type="line" smooth="yes"/>
      <point x="190" y="269"/>
      <point x="181" y="192"/>
      <point x="175" y="137" type="curve"/>
      <point x="179" y="137" type="line"/>
      <point x="238" y="255" type="line"/>
      <point x="396" y="523" type="line"/>
      <point x="512" y="523" type="line"/>
    </contour>
    <contour>
      <point x="305" y="545" type="move" name="aboveUC"/>
    </contour>
  </outline>
</glyph>
<glyph name="Ie" format="1">
  <advance width="538"/>
  <outline>
    <contour>
      <point x="287" y="676" type="move" name="aboveUC"/>
    </contour>
    <component base="E"/>
  </outline>
</glyph>
<glyph name="Ie.sc" format="1">
	<advance width="487"/>
	<outline>
		<component base="E.sc"/>
		<contour>
			<point name="aboveUC" x="267" y="563" type="move"/>
		</contour>
		<contour>
			<point name="belowLC" x="269" y="-22" type="move"/>
		</contour>
	</outline>
</glyph>
<glyph name="Ie.sc" format="1">
  <advance width="487"/>
  <outline>
    <contour>
      <point x="267" y="563" type="move" name="aboveUC"/>
    </contour>
    <contour>
      <point x="269" y="-22" type="move" name="belowLC"/>
    </contour>
    <component base="E.sc"/>
  </outline>
</glyph>
<glyph name="Ieukran.sc" format="1">
  <advance width="508"/>
  <outline>
    <contour>
      <point x="305" y="-12" type="curve" smooth="yes"/>
      <point x="377" y="-12"/>
      <point x="438" y="13"/>
      <point x="485" y="64" type="curve"/>
      <point x="422" y="132" type="line"/>
      <point x="393" y="103"/>
      <point x="358" y="84"/>
      <point x="310" y="84" type="curve" smooth="yes"/>
      <point x="218" y="84"/>
      <point x="163" y="144"/>
      <point x="163" y="264" type="curve" smooth="yes"/>
      <point x="163" y="379"/>
      <point x="224" y="439"/>
      <point x="311" y="439" type="curve" smooth="yes"/>
      <point x="354" y="439"/>
      <point x="384" y="424"/>
      <point x="413" y="397" type="curve"/>
      <point x="476" y="467" type="line"/>
      <point x="439" y="504"/>
      <point x="381" y="535"/>
      <point x="312" y="535" type="curve" smooth="yes"/>
      <point x="167" y="535"/>
      <point x="49" y="440"/>
      <point x="49" y="260" type="curve" smooth="yes"/>
      <point x="49" y="77"/>
      <point x="162" y="-12"/>
    </contour>
    <contour>
      <point x="112" y="227" type="line"/>
      <point x="366" y="227" type="line"/>
      <point x="366" y="312" type="line"/>
      <point x="112" y="312" type="line"/>
    </contour>
  </outline>
</glyph>
<glyph name="Iogonek.alt" format="1">
  <advance width="370"/>
  <outline>
    <contour>
      <point x="185" y="676" type="move" name="aboveUC"/>
    </contour>
    <contour>
      <point x="191" y="-218" type="curve" smooth="yes"/>
      <point x="222" y="-218"/>
      <point x="261" y="-204"/>
      <point x="283" y="-186" type="curve"/>
      <point x="255" y="-126" type="line"/>
      <point x="244" y="-134"/>
      <point x="231" y="-140"/>
      <point x="217" y="-140" type="curve" smooth="yes"/>
      <point x="194" y="-140"/>
      <point x="172" y="-127"/>
      <point x="172" y="-98" type="curve" smooth="yes"/>
      <point x="172" y="-64"/>
      <point x="194" y="-29"/>
      <point x="231" y="0" type="curve"/>
      <point x="320" y="0" type="line"/>
      <point x="320" y="98" type="line"/>
      <point x="243" y="98" type="line"/>
      <point x="243" y="556" type="line"/>
      <point x="320" y="556" type="line"/>
      <point x="320" y="654" type="line"/>
      <point x="49" y="654" type="line"/>
      <point x="49" y="556" type="line"/>
      <point x="127" y="556" type="line"/>
      <point x="127" y="98" type="line"/>
      <point x="49" y="98" type="line"/>
      <point x="49" y="0" type="line"/>
      <point x="155" y="0" type="line"/>
      <point x="126" y="-23"/>
      <point x="86" y="-70"/>
      <point x="86" y="-127" type="curve" smooth="yes"/>
      <point x="86" y="-186"/>
      <point x="132" y="-218"/>
    </contour>
  </outline>
</glyph>
<glyph name="Iogonek.sc" format="1">
  <advance width="282"/>
  <outline>
    <contour>
      <point x="141" y="563" type="move" name="aboveUC"/>
    </contour>
    <contour>
      <point x="148" y="-218" type="curve" smooth="yes"/>
      <point x="179" y="-218"/>
      <point x="218" y="-204"/>
      <point x="240" y="-186" type="curve"/>
      <point x="212" y="-126" type="line"/>
      <point x="202" y="-134"/>
      <point x="188" y="-140"/>
      <point x="173" y="-140" type="curve" smooth="yes"/>
      <point x="152" y="-140"/>
      <point x="129" y="-127"/>
      <point x="129" y="-98" type="curve" smooth="yes"/>
      <point x="129" y="-61"/>
      <point x="152" y="-27"/>
      <point x="199" y="0" type="curve"/>
      <point x="199" y="523" type="line"/>
      <point x="83" y="523" type="line"/>
      <point x="83" y="0" type="line"/>
      <point x="113" y="0" type="line"/>
      <point x="83" y="-25"/>
      <point x="43" y="-66"/>
      <point x="43" y="-127" type="curve" smooth="yes"/>
      <point x="43" y="-186"/>
      <point x="90" y="-218"/>
    </contour>
  </outline>
</glyph>
<glyph name="Ismall" format="1">
  <advance width="369"/>
  <outline>
    <contour>
      <point x="49" y="0" type="line"/>
      <point x="320" y="0" type="line"/>
      <point x="320" y="92" type="line"/>
      <point x="242" y="92" type="line"/>
      <point x="242" y="400" type="line"/>
      <point x="320" y="400" type="line"/>
      <point x="320" y="491" type="line"/>
      <point x="49" y="491" type="line"/>
      <point x="49" y="400" type="line"/>
      <point x="127" y="400" type="line"/>
      <point x="127" y="92" type="line"/>
      <point x="49" y="92" type="line"/>
    </contour>
    <contour>
      <point x="185" y="514" type="move" name="aboveLC"/>
    </contour>
    <contour>
      <point x="164" y="0" type="move" name="ogonekUC"/>
    </contour>
    <contour>
      <point x="185" y="-22" type="move" name="belowLC"/>
    </contour>
  </outline>
</glyph>
<glyph name="Icyr.sc" format="1">
  <advance width="596"/>
  <outline>
    <contour>
      <point x="305" y="545" type="move" name="aboveUC"/>
    </contour>
    <contour>
      <point x="83" y="0" type="line"/>
      <point x="198" y="0" type="line"/>
      <point x="357" y="268" type="line"/>
      <point x="416" y="386" type="line"/>
      <point x="420" y="386" type="line"/>
      <point x="415" y="329"/>
      <point x="406" y="255"/>
      <point x="406" y="194" type="curve" smooth="yes"/>
      <point x="406" y="0" type="line"/>
      <point x="512" y="0" type="line"/>
      <point x="512" y="523" type="line"/>
      <point x="396" y="523" type="line"/>
      <point x="238" y="255" type="line"/>
      <point x="179" y="137" type="line"/>
      <point x="175" y="137" type="line"/>
      <point x="181" y="192"/>
      <point x="190" y="269"/>
      <point x="190" y="330" type="curve" smooth="yes"/>
      <point x="190" y="523" type="line"/>
      <point x="83" y="523" type="line"/>
    </contour>
  </outline>
</glyph>
<glyph name="Ieukran.sc" format="1">
  <advance width="508"/>
  <outline>
    <contour>
      <point x="304" y="-10" type="curve" smooth="yes"/>
      <point x="376" y="-10"/>
      <point x="436" y="17"/>
      <point x="482" y="67" type="curve"/>
      <point x="421" y="138" type="line"/>
      <point x="393" y="110"/>
      <point x="356" y="89"/>
      <point x="308" y="89" type="curve" smooth="yes"/>
      <point x="220" y="89"/>
      <point x="161" y="152"/>
      <point x="161" y="263" type="curve" smooth="yes"/>
      <point x="161" y="368"/>
      <point x="226" y="433"/>
      <point x="311" y="433" type="curve" smooth="yes"/>
      <point x="352" y="433"/>
      <point x="383" y="416"/>
      <point x="412" y="391" type="curve"/>
      <point x="473" y="464" type="line"/>
      <point x="436" y="500"/>
      <point x="379" y="531"/>
      <point x="308" y="531" type="curve" smooth="yes"/>
      <point x="167" y="531"/>
      <point x="49" y="431"/>
      <point x="49" y="258" type="curve" smooth="yes"/>
      <point x="49" y="83"/>
      <point x="163" y="-10"/>
    </contour>
    <contour>
      <point x="112" y="222" type="line"/>
      <point x="384" y="222" type="line"/>
      <point x="384" y="317" type="line"/>
      <point x="112" y="317" type="line"/>
    </contour>
  </outline>
</glyph>
<glyph name="Izhitsa.sc" format="1">
  <advance width="481"/>
  <outline>
    <contour>
      <point x="166" y="0" type="line"/>
      <point x="308" y="0" type="line"/>
      <point x="417" y="373" type="line" smooth="yes"/>
      <point x="426" y="405"/>
      <point x="440" y="425"/>
      <point x="465" y="425" type="curve" smooth="yes"/>
      <point x="475" y="425"/>
      <point x="484" y="422"/>
      <point x="490" y="420" type="curve"/>
      <point x="511" y="522" type="line"/>
      <point x="495" y="528"/>
      <point x="481" y="531"/>
      <point x="454" y="531" type="curve" smooth="yes"/>
      <point x="378" y="531"/>
      <point x="341" y="490"/>
      <point x="315" y="394" type="curve" smooth="yes"/>
      <point x="279" y="275" type="line"/>
      <point x="263" y="217"/>
      <point x="253" y="166"/>
      <point x="238" y="108" type="curve"/>
      <point x="235" y="108" type="line"/>
      <point x="217" y="166"/>
      <point x="205" y="217"/>
      <point x="188" y="275" type="curve" smooth="yes"/>
      <point x="116" y="522" type="line"/>
      <point x="-4" y="522" type="line"/>
    </contour>
  </outline>
</glyph>
<glyph name="J" format="1">
  <advance width="494"/>
  <outline>
    <contour>
      <point x="354" y="676" type="move" name="aboveUC"/>
    </contour>
    <contour>
      <point x="262" y="-22" type="move" name="belowLC"/>
    </contour>
    <contour>
      <point x="219" y="-12" type="curve" smooth="yes"/>
      <point x="356" y="-12"/>
      <point x="414" y="86"/>
      <point x="414" y="205" type="curve" smooth="yes"/>
      <point x="414" y="654" type="line"/>
      <point x="298" y="654" type="line"/>
      <point x="298" y="215" type="line" smooth="yes"/>
      <point x="298" y="122"/>
      <point x="267" y="89"/>
      <point x="206" y="89" type="curve" smooth="yes"/>
      <point x="166" y="89"/>
      <point x="130" y="110"/>
      <point x="104" y="158" type="curve"/>
      <point x="24" y="99" type="line"/>
      <point x="65" y="26"/>
      <point x="128" y="-12"/>
    </contour>
  </outline>
</glyph>
<glyph name="J.sups" format="1">
  <advance width="333"/>
  <outline>
    <contour>
      <point x="145" y="256" type="curve" smooth="yes"/>
      <point x="241" y="256"/>
      <point x="281" y="322"/>
      <point x="281" y="403" type="curve" smooth="yes"/>
      <point x="281" y="696" type="line"/>
      <point x="198" y="696" type="line"/>
      <point x="198" y="410" type="line" smooth="yes"/>
      <point x="198" y="348"/>
      <point x="177" y="328"/>
      <point x="138" y="328" type="curve" smooth="yes"/>
      <point x="111" y="328"/>
      <point x="88" y="341"/>
      <point x="71" y="373" type="curve"/>
      <point x="14" y="332" type="line"/>
      <point x="42" y="282"/>
      <point x="84" y="256"/>
    </contour>
  </outline>
</glyph>
<glyph name="J.sups" format="1">
  <advance width="333"/>
  <outline>
    <contour>
      <point x="145" y="377" type="curve" smooth="yes"/>
      <point x="241" y="377"/>
      <point x="281" y="443"/>
      <point x="281" y="523" type="curve" smooth="yes"/>
      <point x="281" y="817" type="line"/>
      <point x="198" y="817" type="line"/>
      <point x="198" y="531" type="line" smooth="yes"/>
      <point x="198" y="469"/>
      <point x="177" y="448"/>
      <point x="138" y="448" type="curve" smooth="yes"/>
      <point x="111" y="448"/>
      <point x="88" y="462"/>
      <point x="71" y="494" type="curve"/>
      <point x="14" y="452" type="line"/>
      <point x="42" y="403"/>
      <point x="84" y="377"/>
    </contour>
  </outline>
</glyph>
<glyph name="K.sups" format="1">
  <advance width="401"/>
  <outline>
    <contour>
      <point x="53" y="264" type="line"/>
      <point x="137" y="264" type="line"/>
      <point x="137" y="390" type="line"/>
      <point x="198" y="464" type="line"/>
      <point x="312" y="264" type="line"/>
      <point x="404" y="264" type="line"/>
      <point x="247" y="528" type="line"/>
      <point x="381" y="696" type="line"/>
      <point x="288" y="696" type="line"/>
      <point x="140" y="506" type="line"/>
      <point x="137" y="506" type="line"/>
      <point x="137" y="696" type="line"/>
      <point x="53" y="696" type="line"/>
    </contour>
  </outline>
</glyph>
<glyph name="K.sc" format="1">
  <advance width="535"/>
  <outline>
    <contour>
      <point x="294" y="563" type="move" name="aboveUC"/>
    </contour>
    <contour>
      <point x="308" y="-22" type="move" name="belowLC"/>
    </contour>
    <contour>
      <point x="83" y="0" type="line"/>
      <point x="199" y="0" type="line"/>
      <point x="199" y="156" type="line"/>
      <point x="272" y="235" type="line"/>
      <point x="412" y="0" type="line"/>
      <point x="536" y="0" type="line"/>
      <point x="339" y="315" type="line"/>
      <point x="509" y="523" type="line"/>
      <point x="383" y="523" type="line"/>
      <point x="202" y="304" type="line"/>
      <point x="199" y="304" type="line"/>
      <point x="199" y="523" type="line"/>
      <point x="83" y="523" type="line"/>
    </contour>
  </outline>
</glyph>
<glyph name="Ka.a" format="1">
  <advance width="601"/>
  <outline>
    <contour>
      <point x="83" y="0" type="line"/>
      <point x="199" y="0" type="line"/>
      <point x="199" y="294" type="line"/>
      <point x="303" y="294" type="line"/>
      <point x="358" y="388" type="line"/>
      <point x="199" y="388" type="line"/>
      <point x="199" y="654" type="line"/>
      <point x="83" y="654" type="line"/>
    </contour>
    <contour>
      <point x="380" y="343" type="line"/>
      <point x="460" y="486" type="line" smooth="yes"/>
      <point x="493" y="544"/>
      <point x="510" y="556"/>
      <point x="540" y="556" type="curve" smooth="yes"/>
      <point x="546" y="556"/>
      <point x="556" y="556"/>
      <point x="566" y="552" type="curve"/>
      <point x="585" y="658" type="line"/>
      <point x="573" y="664"/>
      <point x="555" y="666"/>
      <point x="532" y="666" type="curve" smooth="yes"/>
      <point x="473" y="666"/>
      <point x="432" y="640"/>
      <point x="380" y="546" type="curve" smooth="yes"/>
      <point x="279" y="366" type="line"/>
    </contour>
    <contour>
      <point x="548" y="-12" type="curve" smooth="yes"/>
      <point x="574" y="-12"/>
      <point x="591" y="-10"/>
      <point x="603" y="-4" type="curve"/>
      <point x="584" y="102" type="line"/>
      <point x="575" y="98"/>
      <point x="564" y="98"/>
      <point x="558" y="98" type="curve" smooth="yes"/>
      <point x="529" y="98"/>
      <point x="512" y="110"/>
      <point x="479" y="168" type="curve" smooth="yes"/>
      <point x="359" y="388" type="line"/>
      <point x="258" y="359" type="line"/>
      <point x="398" y="102" type="line" smooth="yes"/>
      <point x="450" y="8"/>
      <point x="492" y="-12"/>
    </contour>
  </outline>
</glyph>
<glyph name="Ka.b" format="1">
  <advance width="596"/>
  <outline>
    <contour>
      <point x="83" y="0" type="line"/>
      <point x="199" y="0" type="line"/>
      <point x="199" y="291" type="line"/>
      <point x="284" y="291" type="line"/>
      <point x="465" y="0" type="line"/>
      <point x="593" y="0" type="line"/>
      <point x="364" y="357" type="line"/>
      <point x="586" y="654" type="line"/>
      <point x="454" y="654" type="line"/>
      <point x="272" y="390" type="line"/>
      <point x="199" y="390" type="line"/>
      <point x="199" y="654" type="line"/>
      <point x="83" y="654" type="line"/>
    </contour>
  </outline>
</glyph>
<glyph name="Kabashkir.a" format="1">
  <advance width="732"/>
  <outline>
    <contour>
      <point x="26" y="556" type="line"/>
      <point x="215" y="556" type="line"/>
      <point x="331" y="654" type="line"/>
      <point x="26" y="654" type="line"/>
    </contour>
    <component base="Ka.a" xOffset="132"/>
  </outline>
</glyph>
<glyph name="Kabashkir.b" format="1">
  <advance width="732"/>
  <outline>
    <contour>
      <point x="26" y="556" type="line"/>
      <point x="215" y="556" type="line"/>
      <point x="331" y="654" type="line"/>
      <point x="26" y="654" type="line"/>
    </contour>
    <component base="Ka.b" xOffset="132"/>
  </outline>
</glyph>
<glyph name="Kabashkir" format="1">
  <advance width="733"/>
  <outline>
    <contour>
      <point x="26" y="556" type="line"/>
      <point x="215" y="556" type="line"/>
      <point x="331" y="654" type="line"/>
      <point x="26" y="654" type="line"/>
    </contour>
    <component base="Ka" xOffset="132"/>
  </outline>
</glyph>
<glyph name="Kabashkir.sc" format="1">
  <advance width="656"/>
  <outline>
    <contour>
      <point x="308" y="523" type="line"/>
      <point x="26" y="523" type="line"/>
      <point x="26" y="427" type="line"/>
      <point x="192" y="427" type="line"/>
    </contour>
    <component base="Ka.sc" xOffset="108"/>
  </outline>
</glyph>
<glyph name="Kabashkir.a" format="1">
  <advance width="732"/>
  <outline>
    <contour>
      <point x="26" y="556" type="line"/>
      <point x="215" y="556" type="line"/>
      <point x="331" y="654" type="line"/>
      <point x="26" y="654" type="line"/>
    </contour>
    <component base="Ka.a" xOffset="132"/>
  </outline>
</glyph>
<glyph name="Kabashkir.b" format="1">
  <advance width="732"/>
  <outline>
    <contour>
      <point x="26" y="556" type="line"/>
      <point x="215" y="556" type="line"/>
      <point x="331" y="654" type="line"/>
      <point x="26" y="654" type="line"/>
    </contour>
    <component base="Ka.b" xOffset="132"/>
  </outline>
</glyph>
<glyph name="Kadescender.a" format="1">
  <advance width="648"/>
  <outline>
    <contour>
      <point x="514" y="-192" type="line"/>
      <point x="612" y="-192" type="line"/>
      <point x="625" y="19" type="line"/>
      <point x="625" y="98" type="line"/>
      <point x="484" y="98" type="line"/>
      <point x="484" y="0" type="line"/>
      <point x="514" y="0" type="line"/>
    </contour>
    <component base="Ka.a"/>
  </outline>
</glyph>
<glyph name="Kadescender.b" format="1">
  <advance width="648"/>
  <outline>
    <contour>
      <point x="514" y="-192" type="line"/>
      <point x="612" y="-192" type="line"/>
      <point x="625" y="19" type="line"/>
      <point x="625" y="98" type="line"/>
      <point x="484" y="98" type="line"/>
      <point x="484" y="0" type="line"/>
      <point x="514" y="0" type="line"/>
    </contour>
    <component base="Ka.b"/>
  </outline>
</glyph>
<glyph name="Kadescender.sc" format="1">
  <advance width="590"/>
  <outline>
    <contour>
      <point x="460" y="-172" type="line"/>
      <point x="560" y="-172" type="line"/>
      <point x="571" y="19" type="line"/>
      <point x="571" y="96" type="line"/>
      <point x="436" y="96" type="line"/>
      <point x="436" y="0" type="line"/>
      <point x="460" y="0" type="line"/>
    </contour>
    <component base="Ka.sc"/>
  </outline>
</glyph>
<glyph name="Kadescender.a" format="1">
  <advance width="648"/>
  <outline>
    <contour>
      <point x="514" y="-192" type="line"/>
      <point x="612" y="-192" type="line"/>
      <point x="625" y="19" type="line"/>
      <point x="625" y="98" type="line"/>
      <point x="484" y="98" type="line"/>
      <point x="484" y="0" type="line"/>
      <point x="514" y="0" type="line"/>
    </contour>
    <component base="Ka.a"/>
  </outline>
</glyph>
<glyph name="Kappa.sc" format="1">
	<advance width="535"/>
	<outline>
		<component base="K.sc"/>
		<contour>
			<point name="aboveLC" x="294" y="563" type="move"/>
		</contour>
		<contour>
			<point name="belowLC" x="308" y="-22" type="move"/>
		</contour>
	</outline>
</glyph>
<glyph name="Ka.sc" format="1">
  <advance width="533"/>
  <outline>
    <contour>
      <point x="297" y="545" type="move" name="aboveUC"/>
    </contour>
    <contour>
      <point x="83" y="0" type="line"/>
      <point x="197" y="0" type="line"/>
      <point x="197" y="222" type="line"/>
      <point x="262" y="222" type="line"/>
      <point x="407" y="0" type="line"/>
      <point x="532" y="0" type="line"/>
      <point x="340" y="287" type="line"/>
      <point x="525" y="523" type="line"/>
      <point x="396" y="523" type="line"/>
      <point x="250" y="319" type="line"/>
      <point x="197" y="319" type="line"/>
      <point x="197" y="523" type="line"/>
      <point x="83" y="523" type="line"/>
    </contour>
  </outline>
</glyph>
<glyph name="Kadescender.sc" format="1">
  <advance width="648"/>
  <outline>
    <contour>
      <point x="515" y="-188" type="line"/>
      <point x="618" y="-188" type="line"/>
      <point x="628" y="26" type="line"/>
      <point x="628" y="98" type="line"/>
      <point x="487" y="98" type="line"/>
      <point x="487" y="0" type="line"/>
      <point x="515" y="0" type="line"/>
    </contour>
    <component base="Ka"/>
  </outline>
</glyph>
<glyph name="L" format="1">
  <advance width="502"/>
  <outline>
    <contour>
      <point x="144" y="676" type="move" name="aboveUC"/>
    </contour>
    <contour>
      <point x="290" y="-22" type="move" name="belowLC"/>
    </contour>
    <contour>
      <point x="83" y="0" type="line"/>
      <point x="471" y="0" type="line"/>
      <point x="471" y="98" type="line"/>
      <point x="199" y="98" type="line"/>
      <point x="199" y="654" type="line"/>
      <point x="83" y="654" type="line"/>
    </contour>
  </outline>
</glyph>
<glyph name="L.sups" format="1">
  <advance width="337"/>
  <outline>
    <contour>
      <point x="53" y="264" type="line"/>
      <point x="317" y="264" type="line"/>
      <point x="317" y="333" type="line"/>
      <point x="137" y="333" type="line"/>
      <point x="137" y="696" type="line"/>
      <point x="53" y="696" type="line"/>
    </contour>
  </outline>
</glyph>
<glyph name="L.sc" format="1">
  <advance width="454"/>
  <outline>
    <contour>
      <point x="146" y="563" type="move" name="aboveUC"/>
    </contour>
    <contour>
      <point x="262" y="-22" type="move" name="belowLC"/>
    </contour>
    <contour>
      <point x="83" y="0" type="line"/>
      <point x="422" y="0" type="line"/>
      <point x="422" y="95" type="line"/>
      <point x="199" y="95" type="line"/>
      <point x="199" y="523" type="line"/>
      <point x="83" y="523" type="line"/>
    </contour>
  </outline>
</glyph>
<glyph name="Lambda.sc" format="1">
  <advance width="467"/>
  <outline>
    <contour>
      <point x="-4" y="0" type="line"/>
      <point x="112" y="0" type="line"/>
      <point x="183" y="247" type="line" smooth="yes"/>
      <point x="199" y="305"/>
      <point x="211" y="358"/>
      <point x="229" y="416" type="curve"/>
      <point x="233" y="416" type="line"/>
      <point x="251" y="358"/>
      <point x="263" y="305"/>
      <point x="279" y="247" type="curve" smooth="yes"/>
      <point x="351" y="0" type="line"/>
      <point x="472" y="0" type="line"/>
      <point x="302" y="523" type="line"/>
      <point x="165" y="523" type="line"/>
    </contour>
  </outline>
</glyph>
<glyph name="Lje" format="1">
  <advance width="912"/>
  <outline>
    <contour>
      <point x="71" y="-12" type="curve" smooth="yes"/>
      <point x="162" y="-12"/>
      <point x="212" y="40"/>
      <point x="252" y="250" type="curve" smooth="yes"/>
      <point x="271" y="351"/>
      <point x="287" y="450"/>
      <point x="306" y="556" type="curve"/>
      <point x="434" y="556" type="line"/>
      <point x="434" y="0" type="line"/>
      <point x="550" y="0" type="line"/>
      <point x="550" y="654" type="line"/>
      <point x="216" y="654" type="line"/>
      <point x="192" y="519"/>
      <point x="170" y="392"/>
      <point x="143" y="263" type="curve" smooth="yes"/>
      <point x="112" y="116"/>
      <point x="88" y="98"/>
      <point x="54" y="98" type="curve" smooth="yes"/>
      <point x="43" y="98"/>
      <point x="35" y="100"/>
      <point x="26" y="102" type="curve"/>
      <point x="4" y="-3" type="line"/>
      <point x="24" y="-10"/>
      <point x="43" y="-12"/>
    </contour>
    <contour>
      <point x="434" y="0" type="line"/>
      <point x="622" y="0" type="line" smooth="yes"/>
      <point x="767" y="0"/>
      <point x="871" y="59"/>
      <point x="871" y="208" type="curve" smooth="yes"/>
      <point x="871" y="345"/>
      <point x="768" y="401"/>
      <point x="622" y="401" type="curve" smooth="yes"/>
      <point x="550" y="401" type="line"/>
      <point x="550" y="654" type="line"/>
      <point x="434" y="654" type="line"/>
    </contour>
    <contour>
      <point x="550" y="93" type="line"/>
      <point x="550" y="308" type="line"/>
      <point x="610" y="308" type="line" smooth="yes"/>
      <point x="708" y="308"/>
      <point x="758" y="276"/>
      <point x="758" y="206" type="curve" smooth="yes"/>
      <point x="758" y="126"/>
      <point x="706" y="93"/>
      <point x="612" y="93" type="curve" smooth="yes"/>
    </contour>
  </outline>
</glyph>
<glyph name="Lje.sc" format="1">
	<advance width="775"/>
	<outline>
		<contour>
			<point x="55" y="-12" type="curve" smooth="yes"/>
			<point x="139" y="-12"/>
			<point x="182" y="38"/>
			<point x="219" y="211" type="curve" smooth="yes"/>
			<point x="234" y="281"/>
			<point x="247" y="354"/>
			<point x="262" y="428" type="curve"/>
			<point x="355" y="428" type="line"/>
			<point x="355" y="0" type="line"/>
			<point x="471" y="0" type="line"/>
			<point x="471" y="523" type="line"/>
			<point x="175" y="523" type="line"/>
			<point x="156" y="422"/>
			<point x="136" y="322"/>
			<point x="113" y="223" type="curve" smooth="yes"/>
			<point x="87" y="110"/>
			<point x="66" y="96"/>
			<point x="39" y="96" type="curve" smooth="yes"/>
			<point x="31" y="96"/>
			<point x="24" y="97"/>
			<point x="16" y="100" type="curve"/>
			<point x="-5" y="-4" type="line"/>
			<point x="11" y="-10"/>
			<point x="31" y="-12"/>
		</contour>
		<contour>
			<point x="355" y="0" type="line"/>
			<point x="519" y="0" type="line" smooth="yes"/>
			<point x="642" y="0"/>
			<point x="736" y="45"/>
			<point x="736" y="170" type="curve" smooth="yes"/>
			<point x="736" y="287"/>
			<point x="646" y="332"/>
			<point x="520" y="332" type="curve" smooth="yes"/>
			<point x="471" y="332" type="line"/>
			<point x="471" y="523" type="line"/>
			<point x="355" y="523" type="line"/>
		</contour>
		<contour>
			<point x="471" y="92" type="line"/>
			<point x="471" y="251" type="line"/>
			<point x="510" y="251" type="line" smooth="yes"/>
			<point x="587" y="251"/>
			<point x="626" y="228"/>
			<point x="626" y="173" type="curve" smooth="yes"/>
			<point x="626" y="116"/>
			<point x="583" y="92"/>
			<point x="511" y="92" type="curve" smooth="yes"/>
		</contour>
	</outline>
</glyph>
<glyph name="Lslash" format="1">
  <advance width="507"/>
  <outline>
    <contour>
      <point x="26" y="188" type="line"/>
      <point x="103" y="233" type="line"/>
      <point x="190" y="269" type="line"/>
      <point x="412" y="389" type="line"/>
      <point x="372" y="460" type="line"/>
      <point x="190" y="360" type="line"/>
      <point x="103" y="324" type="line"/>
      <point x="-15" y="258" type="line"/>
    </contour>
    <component base="L" xOffset="6"/>
  </outline>
</glyph>
<glyph name="Lslash.sc" format="1">
  <advance width="454"/>
  <outline>
    <contour>
      <point x="12" y="116" type="line"/>
      <point x="103" y="169" type="line"/>
      <point x="190" y="205" type="line"/>
      <point x="355" y="295" type="line"/>
      <point x="355" y="382" type="line"/>
      <point x="190" y="293" type="line"/>
      <point x="103" y="256" type="line"/>
      <point x="12" y="204" type="line"/>
    </contour>
    <component base="L.sc" xOffset="6"/>
  </outline>
</glyph>
<glyph name="Lambda" format="1">
  <advance width="536"/>
  <outline>
    <contour>
      <point x="-4" y="0" type="line"/>
      <point x="115" y="0" type="line"/>
      <point x="206" y="329" type="line" smooth="yes"/>
      <point x="226" y="403"/>
      <point x="241" y="467"/>
      <point x="263" y="542" type="curve"/>
      <point x="267" y="542" type="line"/>
      <point x="289" y="467"/>
      <point x="304" y="403"/>
      <point x="325" y="329" type="curve" smooth="yes"/>
      <point x="417" y="0" type="line"/>
      <point x="540" y="0" type="line"/>
      <point x="336" y="654" type="line"/>
      <point x="199" y="654" type="line"/>
    </contour>
  </outline>
</glyph>
<glyph name="Lje" format="1">
  <advance width="910"/>
  <outline>
    <contour>
      <point x="69" y="-12" type="curve" smooth="yes"/>
      <point x="161" y="-12"/>
      <point x="210" y="40"/>
      <point x="250" y="250" type="curve" smooth="yes"/>
      <point x="269" y="351"/>
      <point x="285" y="450"/>
      <point x="304" y="556" type="curve"/>
      <point x="433" y="556" type="line"/>
      <point x="433" y="0" type="line"/>
      <point x="549" y="0" type="line"/>
      <point x="549" y="654" type="line"/>
      <point x="214" y="654" type="line"/>
      <point x="190" y="519"/>
      <point x="168" y="392"/>
      <point x="142" y="263" type="curve" smooth="yes"/>
      <point x="111" y="116"/>
      <point x="86" y="98"/>
      <point x="53" y="98" type="curve" smooth="yes"/>
      <point x="42" y="98"/>
      <point x="34" y="100"/>
      <point x="25" y="102" type="curve"/>
      <point x="3" y="-3" type="line"/>
      <point x="22" y="-10"/>
      <point x="41" y="-12"/>
    </contour>
    <contour>
      <point x="433" y="0" type="line"/>
      <point x="620" y="0" type="line" smooth="yes"/>
      <point x="766" y="0"/>
      <point x="870" y="59"/>
      <point x="870" y="208" type="curve" smooth="yes"/>
      <point x="870" y="345"/>
      <point x="766" y="401"/>
      <point x="621" y="401" type="curve" smooth="yes"/>
      <point x="549" y="401" type="line"/>
      <point x="549" y="654" type="line"/>
      <point x="433" y="654" type="line"/>
    </contour>
    <contour>
      <point x="549" y="93" type="line"/>
      <point x="549" y="308" type="line"/>
      <point x="609" y="308" type="line" smooth="yes"/>
      <point x="707" y="308"/>
      <point x="756" y="276"/>
      <point x="756" y="206" type="curve" smooth="yes"/>
      <point x="756" y="126"/>
      <point x="704" y="93"/>
      <point x="610" y="93" type="curve" smooth="yes"/>
    </contour>
  </outline>
</glyph>
<glyph name="Lje.sc" format="1">
  <advance width="826"/>
  <outline>
    <contour>
      <point x="388" y="0" type="line"/>
      <point x="570" y="0" type="line" smooth="yes"/>
      <point x="692" y="0"/>
      <point x="787" y="42"/>
      <point x="787" y="168" type="curve" smooth="yes"/>
      <point x="787" y="281"/>
      <point x="689" y="329"/>
      <point x="570" y="329" type="curve" smooth="yes"/>
      <point x="501" y="329" type="line"/>
      <point x="501" y="523" type="line"/>
      <point x="388" y="523" type="line"/>
    </contour>
    <contour>
      <point x="501" y="90" type="line"/>
      <point x="501" y="239" type="line"/>
      <point x="561" y="239" type="line" smooth="yes"/>
      <point x="638" y="239"/>
      <point x="675" y="215"/>
      <point x="675" y="166" type="curve" smooth="yes"/>
      <point x="675" y="110"/>
      <point x="636" y="90"/>
      <point x="561" y="90" type="curve" smooth="yes"/>
    </contour>
    <component base="El.sc"/>
  </outline>
</glyph>
<glyph name="Lslash" format="1">
  <advance width="507"/>
  <outline>
    <contour>
      <point x="12" y="180" type="line"/>
      <point x="103" y="233" type="line"/>
      <point x="190" y="269" type="line"/>
      <point x="385" y="375" type="line"/>
      <point x="385" y="466" type="line"/>
      <point x="190" y="360" type="line"/>
      <point x="103" y="324" type="line"/>
      <point x="12" y="271" type="line"/>
    </contour>
    <component base="L" xOffset="6"/>
  </outline>
</glyph>
<glyph name="M" format="1">
  <advance width="745"/>
  <outline>
    <contour>
      <point x="372" y="676" type="move" name="aboveUC"/>
    </contour>
    <contour>
      <point x="374" y="-22" type="move" name="belowLC"/>
    </contour>
    <contour>
      <point x="83" y="0" type="line"/>
      <point x="188" y="0" type="line"/>
      <point x="188" y="299" type="line" smooth="yes"/>
      <point x="188" y="360"/>
      <point x="178" y="447"/>
      <point x="173" y="507" type="curve"/>
      <point x="177" y="507" type="line"/>
      <point x="229" y="355" type="line"/>
      <point x="337" y="61" type="line"/>
      <point x="406" y="61" type="line"/>
      <point x="513" y="355" type="line"/>
      <point x="566" y="507" type="line"/>
      <point x="570" y="507" type="line"/>
      <point x="564" y="447"/>
      <point x="555" y="360"/>
      <point x="555" y="299" type="curve" smooth="yes"/>
      <point x="555" y="0" type="line"/>
      <point x="662" y="0" type="line"/>
      <point x="662" y="654" type="line"/>
      <point x="530" y="654" type="line"/>
      <point x="417" y="334" type="line"/>
      <point x="403" y="293"/>
      <point x="390" y="249"/>
      <point x="376" y="206" type="curve"/>
      <point x="372" y="206" type="line"/>
      <point x="358" y="249"/>
      <point x="344" y="293"/>
      <point x="330" y="334" type="curve"/>
      <point x="214" y="654" type="line"/>
      <point x="83" y="654" type="line"/>
    </contour>
  </outline>
</glyph>
<glyph name="M.sc" format="1">
  <advance width="666"/>
  <outline>
    <contour>
      <point x="83" y="0" type="line"/>
      <point x="188" y="0" type="line"/>
      <point x="188" y="201" type="line" smooth="yes"/>
      <point x="188" y="252"/>
      <point x="178" y="332"/>
      <point x="173" y="383" type="curve"/>
      <point x="177" y="383" type="line"/>
      <point x="224" y="262" type="line"/>
      <point x="311" y="46" type="line"/>
      <point x="355" y="46" type="line"/>
      <point x="441" y="262" type="line"/>
      <point x="489" y="383" type="line"/>
      <point x="493" y="383" type="line"/>
      <point x="487" y="332"/>
      <point x="479" y="252"/>
      <point x="479" y="201" type="curve" smooth="yes"/>
      <point x="479" y="0" type="line"/>
      <point x="583" y="0" type="line"/>
      <point x="583" y="523" type="line"/>
      <point x="461" y="523" type="line"/>
      <point x="372" y="284" type="line"/>
      <point x="336" y="188" type="line"/>
      <point x="332" y="188" type="line"/>
      <point x="298" y="284" type="line"/>
      <point x="206" y="523" type="line"/>
      <point x="83" y="523" type="line"/>
    </contour>
    <contour>
      <point x="333" y="563" type="move" name="aboveUC"/>
    </contour>
    <contour>
      <point x="333" y="-22" type="move" name="belowLC"/>
    </contour>
  </outline>
</glyph>
<glyph name="M.sups" format="1">
  <advance width="500"/>
  <outline>
    <contour>
      <point x="53" y="264" type="line"/>
      <point x="130" y="264" type="line"/>
      <point x="130" y="451" type="line" smooth="yes"/>
      <point x="130" y="492"/>
      <point x="123" y="551"/>
      <point x="120" y="590" type="curve"/>
      <point x="122" y="590" type="line"/>
      <point x="158" y="492" type="line"/>
      <point x="232" y="304" type="line"/>
      <point x="268" y="304" type="line"/>
      <point x="341" y="492" type="line"/>
      <point x="378" y="590" type="line"/>
      <point x="380" y="590" type="line"/>
      <point x="376" y="551"/>
      <point x="369" y="492"/>
      <point x="369" y="451" type="curve" smooth="yes"/>
      <point x="369" y="264" type="line"/>
      <point x="448" y="264" type="line"/>
      <point x="448" y="696" type="line"/>
      <point x="356" y="696" type="line"/>
      <point x="282" y="490" type="line"/>
      <point x="254" y="410" type="line"/>
      <point x="251" y="410" type="line"/>
      <point x="223" y="490" type="line"/>
      <point x="144" y="696" type="line"/>
      <point x="53" y="696" type="line"/>
    </contour>
  </outline>
</glyph>
<glyph name="Mu.sc" format="1">
	<advance width="666"/>
	<outline>
		<component base="M.sc"/>
		<contour>
			<point name="aboveLC" x="333" y="563" type="move"/>
		</contour>
		<contour>
			<point name="belowLC" x="333" y="-22" type="move"/>
		</contour>
	</outline>
</glyph>
<glyph name="N" format="1">
  <advance width="656"/>
  <outline>
    <contour>
      <point x="83" y="0" type="line"/>
      <point x="194" y="0" type="line"/>
      <point x="194" y="286" type="line" smooth="yes"/>
      <point x="194" y="359"/>
      <point x="184" y="438"/>
      <point x="179" y="507" type="curve"/>
      <point x="183" y="507" type="line"/>
      <point x="250" y="368" type="line"/>
      <point x="454" y="0" type="line"/>
      <point x="573" y="0" type="line"/>
      <point x="573" y="654" type="line"/>
      <point x="462" y="654" type="line"/>
      <point x="462" y="370" type="line" smooth="yes"/>
      <point x="462" y="297"/>
      <point x="472" y="214"/>
      <point x="477" y="147" type="curve"/>
      <point x="473" y="147" type="line"/>
      <point x="406" y="286" type="line"/>
      <point x="202" y="654" type="line"/>
      <point x="83" y="654" type="line"/>
    </contour>
    <contour>
      <point x="330" y="676" type="move" name="aboveUC"/>
    </contour>
    <contour>
      <point x="336" y="-22" type="move" name="belowLC"/>
    </contour>
  </outline>
</glyph>
<glyph name="N.sc" format="1">
  <advance width="596"/>
  <outline>
    <contour>
      <point x="306" y="563" type="move" name="aboveUC"/>
    </contour>
    <contour>
      <point x="304" y="-22" type="move" name="belowLC"/>
    </contour>
    <contour>
      <point x="83" y="0" type="line"/>
      <point x="190" y="0" type="line"/>
      <point x="190" y="194" type="line" smooth="yes"/>
      <point x="190" y="255"/>
      <point x="181" y="329"/>
      <point x="175" y="386" type="curve"/>
      <point x="179" y="386" type="line"/>
      <point x="238" y="268" type="line"/>
      <point x="398" y="0" type="line"/>
      <point x="512" y="0" type="line"/>
      <point x="512" y="523" type="line"/>
      <point x="406" y="523" type="line"/>
      <point x="406" y="330" type="line" smooth="yes"/>
      <point x="406" y="269"/>
      <point x="415" y="192"/>
      <point x="420" y="137" type="curve"/>
      <point x="416" y="137" type="line"/>
      <point x="357" y="255" type="line"/>
      <point x="200" y="523" type="line"/>
      <point x="83" y="523" type="line"/>
    </contour>
  </outline>
</glyph>
<glyph name="N.sups" format="1">
	<advance width="438"/>
	<outline>
		<contour>
			<point x="53" y="385" type="line"/>
			<point x="131" y="385" type="line"/>
			<point x="131" y="565" type="line" smooth="yes"/>
			<point x="131" y="613"/>
			<point x="126" y="666"/>
			<point x="122" y="713" type="curve"/>
			<point x="125" y="713" type="line"/>
			<point x="170" y="621" type="line"/>
			<point x="299" y="385" type="line"/>
			<point x="386" y="385" type="line"/>
			<point x="386" y="817" type="line"/>
			<point x="308" y="817" type="line"/>
			<point x="308" y="640" type="line" smooth="yes"/>
			<point x="308" y="591"/>
			<point x="313" y="534"/>
			<point x="317" y="489" type="curve"/>
			<point x="314" y="489" type="line"/>
			<point x="270" y="582" type="line"/>
			<point x="141" y="817" type="line"/>
			<point x="53" y="817" type="line"/>
		</contour>
	</outline>
</glyph>
<glyph name="Nje" format="1">
  <advance width="931"/>
  <outline>
    <contour>
      <point x="83" y="0" type="line"/>
      <point x="199" y="0" type="line"/>
      <point x="199" y="290" type="line"/>
      <point x="454" y="290" type="line"/>
      <point x="454" y="0" type="line"/>
      <point x="570" y="0" type="line"/>
      <point x="570" y="654" type="line"/>
      <point x="454" y="654" type="line"/>
      <point x="454" y="391" type="line"/>
      <point x="199" y="391" type="line"/>
      <point x="199" y="654" type="line"/>
      <point x="83" y="654" type="line"/>
    </contour>
    <contour>
      <point x="454" y="0" type="line"/>
      <point x="641" y="0" type="line" smooth="yes"/>
      <point x="786" y="0"/>
      <point x="890" y="59"/>
      <point x="890" y="208" type="curve" smooth="yes"/>
      <point x="890" y="345"/>
      <point x="787" y="401"/>
      <point x="642" y="401" type="curve" smooth="yes"/>
      <point x="570" y="401" type="line"/>
      <point x="570" y="654" type="line"/>
      <point x="454" y="654" type="line"/>
    </contour>
    <contour>
      <point x="570" y="93" type="line"/>
      <point x="570" y="308" type="line"/>
      <point x="630" y="308" type="line" smooth="yes"/>
      <point x="728" y="308"/>
      <point x="777" y="276"/>
      <point x="777" y="206" type="curve" smooth="yes"/>
      <point x="777" y="126"/>
      <point x="725" y="93"/>
      <point x="631" y="93" type="curve" smooth="yes"/>
    </contour>
  </outline>
</glyph>
<glyph name="Nje.sc" format="1">
  <advance width="815"/>
  <outline>
    <contour>
      <point x="83" y="0" type="line"/>
      <point x="199" y="0" type="line"/>
      <point x="199" y="221" type="line"/>
      <point x="394" y="221" type="line"/>
      <point x="394" y="0" type="line"/>
      <point x="510" y="0" type="line"/>
      <point x="510" y="523" type="line"/>
      <point x="394" y="523" type="line"/>
      <point x="394" y="321" type="line"/>
      <point x="199" y="321" type="line"/>
      <point x="199" y="523" type="line"/>
      <point x="83" y="523" type="line"/>
    </contour>
    <contour>
      <point x="394" y="0" type="line"/>
      <point x="558" y="0" type="line" smooth="yes"/>
      <point x="682" y="0"/>
      <point x="776" y="45"/>
      <point x="776" y="170" type="curve" smooth="yes"/>
      <point x="776" y="287"/>
      <point x="685" y="332"/>
      <point x="560" y="332" type="curve" smooth="yes"/>
      <point x="510" y="332" type="line"/>
      <point x="510" y="523" type="line"/>
      <point x="394" y="523" type="line"/>
    </contour>
    <contour>
      <point x="510" y="92" type="line"/>
      <point x="510" y="251" type="line"/>
      <point x="550" y="251" type="line" smooth="yes"/>
      <point x="626" y="251"/>
      <point x="665" y="228"/>
      <point x="665" y="173" type="curve" smooth="yes"/>
      <point x="665" y="116"/>
      <point x="623" y="92"/>
      <point x="551" y="92" type="curve" smooth="yes"/>
    </contour>
  </outline>
</glyph>
<glyph name="Nu.sc" format="1">
	<advance width="596"/>
	<outline>
		<component base="N.sc"/>
		<contour>
			<point name="aboveLC" x="306" y="563" type="move"/>
		</contour>
		<contour>
			<point name="belowLC" x="304" y="-22" type="move"/>
		</contour>
	</outline>
</glyph>
<glyph name="Nu.sc" format="1">
  <advance width="596"/>
  <outline>
    <contour>
      <point x="306" y="563" type="move" name="aboveLC"/>
    </contour>
    <contour>
      <point x="304" y="-22" type="move" name="belowLC"/>
    </contour>
    <component base="N.sc"/>
  </outline>
</glyph>
<glyph name="Nje.sc" format="1">
  <advance width="842"/>
  <outline>
    <contour>
      <point x="409" y="0" type="line"/>
      <point x="590" y="0" type="line" smooth="yes"/>
      <point x="713" y="0"/>
      <point x="808" y="42"/>
      <point x="808" y="168" type="curve" smooth="yes"/>
      <point x="808" y="281"/>
      <point x="710" y="329"/>
      <point x="590" y="329" type="curve" smooth="yes"/>
      <point x="523" y="329" type="line"/>
      <point x="523" y="523" type="line"/>
      <point x="409" y="523" type="line"/>
    </contour>
    <contour>
      <point x="523" y="90" type="line"/>
      <point x="523" y="239" type="line"/>
      <point x="583" y="239" type="line" smooth="yes"/>
      <point x="659" y="239"/>
      <point x="696" y="215"/>
      <point x="696" y="166" type="curve" smooth="yes"/>
      <point x="696" y="110"/>
      <point x="657" y="90"/>
      <point x="583" y="90" type="curve" smooth="yes"/>
    </contour>
    <component base="H.sc"/>
  </outline>
</glyph>
<glyph name="O" format="1">
  <advance width="674"/>
  <outline>
    <contour>
      <point x="337" y="-12" type="curve" smooth="yes"/>
      <point x="508" y="-12"/>
      <point x="626" y="118"/>
      <point x="626" y="330" type="curve" smooth="yes"/>
      <point x="626" y="541"/>
      <point x="508" y="666"/>
      <point x="337" y="666" type="curve" smooth="yes"/>
      <point x="167" y="666"/>
      <point x="49" y="541"/>
      <point x="49" y="330" type="curve" smooth="yes"/>
      <point x="49" y="118"/>
      <point x="167" y="-12"/>
    </contour>
    <contour>
      <point x="337" y="89" type="curve" smooth="yes"/>
      <point x="234" y="89"/>
      <point x="168" y="183"/>
      <point x="168" y="330" type="curve" smooth="yes"/>
      <point x="168" y="476"/>
      <point x="234" y="565"/>
      <point x="337" y="565" type="curve" smooth="yes"/>
      <point x="440" y="565"/>
      <point x="506" y="476"/>
      <point x="506" y="330" type="curve" smooth="yes"/>
      <point x="506" y="183"/>
      <point x="440" y="89"/>
    </contour>
    <contour>
      <point x="337" y="676" type="move" name="aboveUC"/>
    </contour>
    <contour>
      <point x="476" y="644" type="move" name="hornLC"/>
    </contour>
    <contour>
      <point x="337" y="0" type="move" name="ogonekUC"/>
    </contour>
    <contour>
      <point x="337" y="-22" type="move" name="belowLC"/>
    </contour>
  </outline>
</glyph>
<glyph name="O.sc" format="1">
  <advance width="603"/>
  <outline>
    <contour>
      <point x="302" y="-12" type="curve" smooth="yes"/>
      <point x="450" y="-12"/>
      <point x="554" y="92"/>
      <point x="554" y="264" type="curve" smooth="yes"/>
      <point x="554" y="435"/>
      <point x="450" y="535"/>
      <point x="302" y="535" type="curve" smooth="yes"/>
      <point x="152" y="535"/>
      <point x="49" y="436"/>
      <point x="49" y="264" type="curve" smooth="yes"/>
      <point x="49" y="92"/>
      <point x="152" y="-12"/>
    </contour>
    <contour>
      <point x="302" y="84" type="curve" smooth="yes"/>
      <point x="219" y="84"/>
      <point x="168" y="153"/>
      <point x="168" y="264" type="curve" smooth="yes"/>
      <point x="168" y="374"/>
      <point x="219" y="439"/>
      <point x="302" y="439" type="curve" smooth="yes"/>
      <point x="383" y="439"/>
      <point x="435" y="374"/>
      <point x="435" y="264" type="curve" smooth="yes"/>
      <point x="435" y="153"/>
      <point x="383" y="84"/>
    </contour>
    <contour>
      <point x="302" y="563" type="move" name="aboveUC"/>
    </contour>
    <contour>
      <point x="432" y="504" type="move" name="hornLC"/>
    </contour>
    <contour>
      <point x="302" y="0" type="move" name="ogonekUC"/>
    </contour>
    <contour>
      <point x="303" y="-22" type="move" name="belowLC"/>
    </contour>
  </outline>
</glyph>
<glyph name="O.sups" format="1">
  <advance width="452"/>
  <outline>
    <contour>
      <point x="226" y="256" type="curve" smooth="yes"/>
      <point x="341" y="256"/>
      <point x="421" y="342"/>
      <point x="421" y="482" type="curve" smooth="yes"/>
      <point x="421" y="621"/>
      <point x="341" y="704"/>
      <point x="226" y="704" type="curve" smooth="yes"/>
      <point x="111" y="704"/>
      <point x="31" y="622"/>
      <point x="31" y="482" type="curve" smooth="yes"/>
      <point x="31" y="342"/>
      <point x="111" y="256"/>
    </contour>
    <contour>
      <point x="226" y="328" type="curve" smooth="yes"/>
      <point x="159" y="328"/>
      <point x="117" y="389"/>
      <point x="117" y="482" type="curve" smooth="yes"/>
      <point x="117" y="576"/>
      <point x="159" y="632"/>
      <point x="226" y="632" type="curve" smooth="yes"/>
      <point x="292" y="632"/>
      <point x="335" y="576"/>
      <point x="335" y="482" type="curve" smooth="yes"/>
      <point x="335" y="389"/>
      <point x="292" y="328"/>
    </contour>
  </outline>
</glyph>
<glyph name="OE" format="1">
  <advance width="859"/>
  <outline>
    <contour>
      <point x="371" y="0" type="curve" smooth="yes"/>
      <point x="808" y="0" type="line"/>
      <point x="808" y="98" type="line"/>
      <point x="536" y="98" type="line"/>
      <point x="536" y="291" type="line"/>
      <point x="756" y="291" type="line"/>
      <point x="756" y="389" type="line"/>
      <point x="536" y="389" type="line"/>
      <point x="536" y="556" type="line"/>
      <point x="798" y="556" type="line"/>
      <point x="798" y="654" type="line"/>
      <point x="377" y="654" type="line" smooth="yes"/>
      <point x="179" y="654"/>
      <point x="49" y="546"/>
      <point x="49" y="330" type="curve" smooth="yes"/>
      <point x="49" y="113"/>
      <point x="179" y="0"/>
    </contour>
    <contour>
      <point x="384" y="94" type="line" smooth="yes"/>
      <point x="249" y="94"/>
      <point x="168" y="168"/>
      <point x="168" y="330" type="curve" smooth="yes"/>
      <point x="168" y="492"/>
      <point x="249" y="560"/>
      <point x="384" y="560" type="curve" smooth="yes"/>
      <point x="420" y="560" type="line"/>
      <point x="420" y="94" type="line"/>
    </contour>
    <contour>
      <point x="530" y="676" type="move" name="aboveUC"/>
    </contour>
  </outline>
</glyph>
<glyph name="OE.sc" format="1">
  <advance width="751"/>
  <outline>
    <contour>
      <point x="334" y="0" type="curve" smooth="yes"/>
      <point x="700" y="0" type="line"/>
      <point x="700" y="90" type="line"/>
      <point x="473" y="90" type="line"/>
      <point x="473" y="227" type="line"/>
      <point x="656" y="227" type="line"/>
      <point x="656" y="312" type="line"/>
      <point x="473" y="312" type="line"/>
      <point x="473" y="433" type="line"/>
      <point x="690" y="433" type="line"/>
      <point x="690" y="523" type="line"/>
      <point x="327" y="523" type="line" smooth="yes"/>
      <point x="161" y="523"/>
      <point x="49" y="441"/>
      <point x="49" y="259" type="curve" smooth="yes"/>
      <point x="49" y="79"/>
      <point x="161" y="0"/>
    </contour>
    <contour>
      <point x="329" y="91" type="line"/>
      <point x="223" y="91"/>
      <point x="168" y="145"/>
      <point x="168" y="259" type="curve" smooth="yes"/>
      <point x="168" y="377"/>
      <point x="223" y="433"/>
      <point x="329" y="433" type="curve" smooth="yes"/>
      <point x="357" y="433" type="line"/>
      <point x="357" y="91" type="line"/>
    </contour>
  </outline>
</glyph>
<glyph name="O.sups" format="1">
  <advance width="452"/>
  <outline>
    <contour>
      <point x="226" y="377" type="curve" smooth="yes"/>
      <point x="341" y="377"/>
      <point x="421" y="463"/>
      <point x="421" y="603" type="curve" smooth="yes"/>
      <point x="421" y="742"/>
      <point x="341" y="825"/>
      <point x="226" y="825" type="curve" smooth="yes"/>
      <point x="111" y="825"/>
      <point x="31" y="743"/>
      <point x="31" y="603" type="curve" smooth="yes"/>
      <point x="31" y="463"/>
      <point x="111" y="377"/>
    </contour>
    <contour>
      <point x="226" y="448" type="curve" smooth="yes"/>
      <point x="159" y="448"/>
      <point x="117" y="509"/>
      <point x="117" y="603" type="curve" smooth="yes"/>
      <point x="117" y="696"/>
      <point x="159" y="753"/>
      <point x="226" y="753" type="curve" smooth="yes"/>
      <point x="292" y="753"/>
      <point x="335" y="696"/>
      <point x="335" y="603" type="curve" smooth="yes"/>
      <point x="335" y="509"/>
      <point x="292" y="448"/>
    </contour>
  </outline>
</glyph>
<glyph name="Ocyr" format="1">
  <advance width="674"/>
  <outline>
    <contour>
      <point x="337" y="676" type="move" name="aboveUC"/>
    </contour>
    <component base="O"/>
  </outline>
</glyph>
<glyph name="Ohorn" format="1">
  <advance width="674"/>
  <outline>
    <contour>
      <point x="529" y="592" type="line"/>
      <point x="603" y="612"/>
      <point x="643" y="651"/>
      <point x="643" y="720" type="curve" smooth="yes"/>
      <point x="643" y="755"/>
      <point x="631" y="788"/>
      <point x="616" y="810" type="curve"/>
      <point x="529" y="774" type="line"/>
      <point x="537" y="758"/>
      <point x="544" y="735"/>
      <point x="544" y="712" type="curve" smooth="yes"/>
      <point x="544" y="666"/>
      <point x="519" y="645"/>
      <point x="471" y="634" type="curve"/>
    </contour>
    <component base="O" xOffset="2"/>
    <contour>
      <point x="339" y="676" type="move" name="aboveUC"/>
    </contour>
    <contour>
      <point x="336" y="-22" type="move" name="belowLC"/>
    </contour>
  </outline>
</glyph>
<glyph name="Ohorn.sc" format="1">
  <advance width="603"/>
  <outline>
    <contour>
      <point x="301" y="563" type="move" name="aboveUC"/>
    </contour>
    <contour>
      <point x="301" y="0" type="move" name="ogonekUC"/>
    </contour>
    <contour>
      <point x="301" y="-22" type="move" name="belowLC"/>
    </contour>
    <component base="O.sc"/>
    <component base="horncmb" xOffset="421" yOffset="32"/>
  </outline>
</glyph>
<glyph name="Omicron.sc" format="1">
  <advance width="603"/>
  <outline>
    <contour>
      <point x="302" y="563" type="move" name="aboveLC"/>
    </contour>
    <contour>
      <point x="303" y="-22" type="move" name="belowLC"/>
    </contour>
    <component base="O.sc"/>
  </outline>
</glyph>
<glyph name="Oogonek" format="1">
  <advance width="674"/>
  <outline>
    <contour>
      <point x="336" y="676" type="move" name="aboveUC"/>
    </contour>
    <contour>
      <point x="364" y="-218" type="curve" smooth="yes"/>
      <point x="395" y="-218"/>
      <point x="434" y="-204"/>
      <point x="457" y="-186" type="curve"/>
      <point x="428" y="-126" type="line"/>
      <point x="417" y="-134"/>
      <point x="405" y="-140"/>
      <point x="390" y="-140" type="curve" smooth="yes"/>
      <point x="368" y="-140"/>
      <point x="346" y="-127"/>
      <point x="346" y="-98" type="curve" smooth="yes"/>
      <point x="346" y="-68"/>
      <point x="368" y="-29"/>
      <point x="420" y="-6" type="curve" smooth="yes"/>
      <point x="550" y="53"/>
      <point x="626" y="148"/>
      <point x="626" y="330" type="curve" smooth="yes"/>
      <point x="626" y="541"/>
      <point x="508" y="666"/>
      <point x="337" y="666" type="curve" smooth="yes"/>
      <point x="167" y="666"/>
      <point x="49" y="541"/>
      <point x="49" y="330" type="curve" smooth="yes"/>
      <point x="49" y="127"/>
      <point x="154" y="-2"/>
      <point x="322" y="-11" type="curve"/>
      <point x="289" y="-38"/>
      <point x="259" y="-79"/>
      <point x="259" y="-127" type="curve" smooth="yes"/>
      <point x="259" y="-186"/>
      <point x="306" y="-218"/>
    </contour>
    <contour>
      <point x="337" y="89" type="curve" smooth="yes"/>
      <point x="234" y="89"/>
      <point x="168" y="183"/>
      <point x="168" y="330" type="curve" smooth="yes"/>
      <point x="168" y="476"/>
      <point x="234" y="565"/>
      <point x="337" y="565" type="curve" smooth="yes"/>
      <point x="440" y="565"/>
      <point x="506" y="476"/>
      <point x="506" y="330" type="curve" smooth="yes"/>
      <point x="506" y="183"/>
      <point x="440" y="89"/>
    </contour>
  </outline>
</glyph>
<glyph name="Oogonek.sc" format="1">
  <advance width="603"/>
  <outline>
    <contour>
      <point x="302" y="563" type="move" name="aboveUC"/>
    </contour>
    <contour>
      <point x="329" y="-218" type="curve" smooth="yes"/>
      <point x="360" y="-218"/>
      <point x="399" y="-204"/>
      <point x="422" y="-186" type="curve"/>
      <point x="393" y="-126" type="line"/>
      <point x="382" y="-134"/>
      <point x="370" y="-140"/>
      <point x="355" y="-140" type="curve" smooth="yes"/>
      <point x="333" y="-140"/>
      <point x="310" y="-127"/>
      <point x="310" y="-98" type="curve" smooth="yes"/>
      <point x="310" y="-68"/>
      <point x="333" y="-29"/>
      <point x="385" y="-6" type="curve"/>
      <point x="492" y="40"/>
      <point x="554" y="120"/>
      <point x="554" y="264" type="curve"/>
      <point x="554" y="435"/>
      <point x="450" y="535"/>
      <point x="302" y="535" type="curve" smooth="yes"/>
      <point x="152" y="535"/>
      <point x="49" y="436"/>
      <point x="49" y="264" type="curve"/>
      <point x="49" y="100"/>
      <point x="140" y="-3"/>
      <point x="286" y="-11" type="curve"/>
      <point x="254" y="-38"/>
      <point x="224" y="-79"/>
      <point x="224" y="-127" type="curve" smooth="yes"/>
      <point x="224" y="-186"/>
      <point x="271" y="-218"/>
    </contour>
    <contour>
      <point x="302" y="84" type="curve" smooth="yes"/>
      <point x="219" y="84"/>
      <point x="168" y="153"/>
      <point x="168" y="264" type="curve" smooth="yes"/>
      <point x="168" y="374"/>
      <point x="219" y="439"/>
      <point x="302" y="439" type="curve" smooth="yes"/>
      <point x="383" y="439"/>
      <point x="435" y="374"/>
      <point x="435" y="264" type="curve" smooth="yes"/>
      <point x="435" y="153"/>
      <point x="383" y="84"/>
    </contour>
  </outline>
</glyph>
<glyph name="Oslash" format="1">
  <advance width="674"/>
  <outline>
    <contour>
      <point x="106" y="-36" type="line"/>
      <point x="640" y="642" type="line"/>
      <point x="578" y="690" type="line"/>
      <point x="45" y="12" type="line"/>
    </contour>
    <component base="O" xOffset="2"/>
    <contour>
      <point x="342" y="676" type="move" name="aboveUC"/>
    </contour>
  </outline>
</glyph>
<glyph name="Oslash.sc" format="1">
  <advance width="603"/>
  <outline>
    <contour>
      <point x="302" y="-12" type="curve" smooth="yes"/>
      <point x="450" y="-12"/>
      <point x="554" y="92"/>
      <point x="554" y="264" type="curve" smooth="yes"/>
      <point x="554" y="435"/>
      <point x="450" y="535"/>
      <point x="302" y="535" type="curve" smooth="yes"/>
      <point x="152" y="535"/>
      <point x="49" y="436"/>
      <point x="49" y="264" type="curve" smooth="yes"/>
      <point x="49" y="92"/>
      <point x="152" y="-12"/>
    </contour>
    <contour>
      <point x="302" y="78" type="curve" smooth="yes"/>
      <point x="216" y="78"/>
      <point x="162" y="150"/>
      <point x="162" y="264" type="curve" smooth="yes"/>
      <point x="162" y="378"/>
      <point x="216" y="445"/>
      <point x="302" y="445" type="curve" smooth="yes"/>
      <point x="387" y="445"/>
      <point x="441" y="378"/>
      <point x="441" y="264" type="curve" smooth="yes"/>
      <point x="441" y="150"/>
      <point x="387" y="78"/>
    </contour>
    <contour>
      <point x="93" y="-24" type="line"/>
      <point x="556" y="512" type="line"/>
      <point x="510" y="548" type="line"/>
      <point x="47" y="12" type="line"/>
    </contour>
  </outline>
</glyph>
<glyph name="Obarcyr.sc" format="1">
  <advance width="674"/>
  <outline>
    <contour>
      <point x="337" y="676" type="move" name="aboveUC"/>
    </contour>
    <component base="Fita"/>
  </outline>
</glyph>
<glyph name="Omega.sc" format="1">
  <advance width="612"/>
  <outline>
    <contour>
      <point x="44" y="0" type="line"/>
      <point x="265" y="0" type="line"/>
      <point x="265" y="82" type="line"/>
      <point x="207" y="131"/>
      <point x="174" y="190"/>
      <point x="174" y="275" type="curve" smooth="yes"/>
      <point x="174" y="367"/>
      <point x="223" y="437"/>
      <point x="306" y="437" type="curve" smooth="yes"/>
      <point x="389" y="437"/>
      <point x="439" y="367"/>
      <point x="439" y="275" type="curve" smooth="yes"/>
      <point x="439" y="190"/>
      <point x="406" y="131"/>
      <point x="346" y="82" type="curve"/>
      <point x="346" y="0" type="line"/>
      <point x="569" y="0" type="line"/>
      <point x="569" y="91" type="line"/>
      <point x="471" y="91" type="line"/>
      <point x="471" y="94" type="line"/>
      <point x="510" y="131"/>
      <point x="556" y="198"/>
      <point x="556" y="286" type="curve" smooth="yes"/>
      <point x="556" y="430"/>
      <point x="456" y="535"/>
      <point x="306" y="535" type="curve" smooth="yes"/>
      <point x="156" y="535"/>
      <point x="56" y="430"/>
      <point x="56" y="286" type="curve" smooth="yes"/>
      <point x="56" y="198"/>
      <point x="103" y="131"/>
      <point x="142" y="94" type="curve"/>
      <point x="142" y="91" type="line"/>
      <point x="44" y="91" type="line"/>
    </contour>
  </outline>
</glyph>
<glyph name="P.sups" format="1">
	<advance width="397"/>
	<outline>
		<contour>
			<point x="53" y="385" type="line"/>
			<point x="137" y="385" type="line"/>
			<point x="137" y="540" type="line"/>
			<point x="205" y="540" type="line" smooth="yes"/>
			<point x="298" y="540"/>
			<point x="373" y="585"/>
			<point x="373" y="683" type="curve" smooth="yes"/>
			<point x="373" y="783"/>
			<point x="300" y="817"/>
			<point x="205" y="817" type="curve" smooth="yes"/>
			<point x="53" y="817" type="line"/>
		</contour>
		<contour>
			<point x="137" y="606" type="line"/>
			<point x="137" y="750" type="line"/>
			<point x="198" y="750" type="line" smooth="yes"/>
			<point x="259" y="750"/>
			<point x="291" y="733"/>
			<point x="291" y="683" type="curve" smooth="yes"/>
			<point x="291" y="632"/>
			<point x="260" y="606"/>
			<point x="198" y="606" type="curve" smooth="yes"/>
		</contour>
	</outline>
</glyph>
<glyph name="Phi" format="1">
  <advance width="740"/>
  <outline>
    <contour>
      <point x="350" y="67" type="curve" smooth="yes"/>
      <point x="390" y="67" type="line"/>
      <point x="570" y="67"/>
      <point x="692" y="164"/>
      <point x="692" y="330" type="curve" smooth="yes"/>
      <point x="692" y="496"/>
      <point x="570" y="588"/>
      <point x="390" y="588" type="curve" smooth="yes"/>
      <point x="350" y="588" type="line" smooth="yes"/>
      <point x="170" y="588"/>
      <point x="48" y="496"/>
      <point x="48" y="330" type="curve" smooth="yes"/>
      <point x="48" y="164"/>
      <point x="170" y="67"/>
    </contour>
    <contour>
      <point x="344" y="155" type="line"/>
      <point x="232" y="155"/>
      <point x="159" y="224"/>
      <point x="159" y="330" type="curve" smooth="yes"/>
      <point x="159" y="435"/>
      <point x="232" y="500"/>
      <point x="344" y="500" type="curve" smooth="yes"/>
      <point x="396" y="500" type="line" smooth="yes"/>
      <point x="508" y="500"/>
      <point x="581" y="435"/>
      <point x="581" y="330" type="curve" smooth="yes"/>
      <point x="581" y="224"/>
      <point x="508" y="155"/>
      <point x="396" y="155" type="curve" smooth="yes"/>
    </contour>
    <contour>
      <point x="318" y="-22" type="line"/>
      <point x="422" y="-22" type="line"/>
      <point x="422" y="676" type="line"/>
      <point x="318" y="676" type="line"/>
    </contour>
  </outline>
</glyph>
<glyph name="Phi.sc" format="1">
  <advance width="682"/>
  <outline>
    <contour>
      <point x="319" y="50" type="curve" smooth="yes"/>
      <point x="363" y="50" type="line" smooth="yes"/>
      <point x="526" y="50"/>
      <point x="634" y="125"/>
      <point x="634" y="263" type="curve" smooth="yes"/>
      <point x="634" y="402"/>
      <point x="526" y="475"/>
      <point x="363" y="475" type="curve" smooth="yes"/>
      <point x="319" y="475" type="line" smooth="yes"/>
      <point x="156" y="475"/>
      <point x="48" y="402"/>
      <point x="48" y="263" type="curve" smooth="yes"/>
      <point x="48" y="125"/>
      <point x="156" y="50"/>
    </contour>
    <contour>
      <point x="310" y="137" type="line" smooth="yes"/>
      <point x="219" y="137"/>
      <point x="158" y="178"/>
      <point x="158" y="263" type="curve" smooth="yes"/>
      <point x="158" y="348"/>
      <point x="219" y="388"/>
      <point x="310" y="388" type="curve" smooth="yes"/>
      <point x="372" y="388" type="line" smooth="yes"/>
      <point x="463" y="388"/>
      <point x="524" y="348"/>
      <point x="524" y="263" type="curve" smooth="yes"/>
      <point x="524" y="178"/>
      <point x="463" y="137"/>
      <point x="372" y="137" type="curve" smooth="yes"/>
    </contour>
    <contour>
      <point x="289" y="-18" type="line"/>
      <point x="393" y="-18" type="line"/>
      <point x="393" y="541" type="line"/>
      <point x="289" y="541" type="line"/>
    </contour>
  </outline>
</glyph>
<glyph name="Pi" format="1">
  <advance width="654"/>
  <outline>
    <contour>
      <point x="83" y="0" type="line"/>
      <point x="199" y="0" type="line"/>
      <point x="199" y="556" type="line"/>
      <point x="455" y="556" type="line"/>
      <point x="455" y="0" type="line"/>
      <point x="571" y="0" type="line"/>
      <point x="571" y="654" type="line"/>
      <point x="83" y="654" type="line"/>
    </contour>
  </outline>
</glyph>
<glyph name="Pi.sc" format="1">
  <advance width="602"/>
  <outline>
    <contour>
      <point x="83" y="0" type="line"/>
      <point x="199" y="0" type="line"/>
      <point x="199" y="427" type="line"/>
      <point x="403" y="427" type="line"/>
      <point x="403" y="0" type="line"/>
      <point x="519" y="0" type="line"/>
      <point x="519" y="523" type="line"/>
      <point x="83" y="523" type="line"/>
    </contour>
  </outline>
</glyph>
<glyph name="Psi" format="1">
  <advance width="726"/>
  <outline>
    <contour>
      <point x="340" y="231" type="curve" smooth="yes"/>
      <point x="386" y="231" type="line" smooth="yes"/>
      <point x="561" y="231"/>
      <point x="668" y="308"/>
      <point x="668" y="493" type="curve" smooth="yes"/>
      <point x="668" y="654" type="line"/>
      <point x="554" y="654" type="line"/>
      <point x="554" y="499" type="line" smooth="yes"/>
      <point x="554" y="369"/>
      <point x="498" y="323"/>
      <point x="392" y="323" type="curve" smooth="yes"/>
      <point x="334" y="323" type="line" smooth="yes"/>
      <point x="227" y="323"/>
      <point x="171" y="369"/>
      <point x="171" y="499" type="curve" smooth="yes"/>
      <point x="171" y="654" type="line"/>
      <point x="58" y="654" type="line"/>
      <point x="58" y="493" type="line" smooth="yes"/>
      <point x="58" y="308"/>
      <point x="164" y="231"/>
    </contour>
    <contour>
      <point x="308" y="0" type="line"/>
      <point x="417" y="0" type="line"/>
      <point x="417" y="654" type="line"/>
      <point x="308" y="654" type="line"/>
    </contour>
  </outline>
</glyph>
<glyph name="Psi.sc" format="1">
  <advance width="654"/>
  <outline>
    <contour>
      <point x="274" y="0" type="line"/>
      <point x="380" y="0" type="line"/>
      <point x="380" y="523" type="line"/>
      <point x="274" y="523" type="line"/>
    </contour>
    <contour>
      <point x="306" y="177" type="curve" smooth="yes"/>
      <point x="348" y="177" type="line" smooth="yes"/>
      <point x="502" y="177"/>
      <point x="596" y="239"/>
      <point x="596" y="393" type="curve" smooth="yes"/>
      <point x="596" y="523" type="line"/>
      <point x="486" y="523" type="line"/>
      <point x="486" y="400" type="line" smooth="yes"/>
      <point x="486" y="297"/>
      <point x="439" y="265"/>
      <point x="354" y="265" type="curve" smooth="yes"/>
      <point x="300" y="265" type="line" smooth="yes"/>
      <point x="215" y="265"/>
      <point x="168" y="297"/>
      <point x="168" y="400" type="curve" smooth="yes"/>
      <point x="168" y="523" type="line"/>
      <point x="58" y="523" type="line"/>
      <point x="58" y="393" type="line" smooth="yes"/>
      <point x="58" y="239"/>
      <point x="152" y="177"/>
    </contour>
  </outline>
</glyph>
<glyph name="Phi.sc" format="1">
  <advance width="681"/>
  <outline>
    <contour>
      <point x="319" y="50" type="curve" smooth="yes"/>
      <point x="362" y="50" type="line"/>
      <point x="523" y="50"/>
      <point x="634" y="128"/>
      <point x="634" y="263" type="curve" smooth="yes"/>
      <point x="634" y="399"/>
      <point x="523" y="473"/>
      <point x="362" y="473" type="curve" smooth="yes"/>
      <point x="319" y="473" type="line" smooth="yes"/>
      <point x="159" y="473"/>
      <point x="48" y="399"/>
      <point x="48" y="263" type="curve" smooth="yes"/>
      <point x="48" y="128"/>
      <point x="159" y="50"/>
    </contour>
    <contour>
      <point x="313" y="138" type="line"/>
      <point x="220" y="138"/>
      <point x="160" y="186"/>
      <point x="160" y="263" type="curve" smooth="yes"/>
      <point x="160" y="340"/>
      <point x="220" y="385"/>
      <point x="313" y="385" type="curve" smooth="yes"/>
      <point x="369" y="385" type="line" smooth="yes"/>
      <point x="462" y="385"/>
      <point x="522" y="340"/>
      <point x="522" y="263" type="curve" smooth="yes"/>
      <point x="522" y="186"/>
      <point x="462" y="138"/>
      <point x="369" y="138" type="curve" smooth="yes"/>
    </contour>
    <contour>
      <point x="287" y="-18" type="line"/>
      <point x="394" y="-18" type="line"/>
      <point x="394" y="541" type="line"/>
      <point x="287" y="541" type="line"/>
    </contour>
  </outline>
</glyph>
<glyph name="Psi.sc" format="1">
  <advance width="653"/>
  <outline>
    <contour>
      <point x="305" y="176" type="curve" smooth="yes"/>
      <point x="348" y="176" type="line" smooth="yes"/>
      <point x="502" y="176"/>
      <point x="596" y="239"/>
      <point x="596" y="393" type="curve" smooth="yes"/>
      <point x="596" y="523" type="line"/>
      <point x="484" y="523" type="line"/>
      <point x="484" y="400" type="line" smooth="yes"/>
      <point x="484" y="297"/>
      <point x="439" y="265"/>
      <point x="354" y="265" type="curve" smooth="yes"/>
      <point x="299" y="265" type="line" smooth="yes"/>
      <point x="214" y="265"/>
      <point x="169" y="297"/>
      <point x="169" y="400" type="curve" smooth="yes"/>
      <point x="169" y="523" type="line"/>
      <point x="58" y="523" type="line"/>
      <point x="58" y="393" type="line" smooth="yes"/>
      <point x="58" y="239"/>
      <point x="152" y="176"/>
    </contour>
    <contour>
      <point x="273" y="0" type="line"/>
      <point x="380" y="0" type="line"/>
      <point x="380" y="523" type="line"/>
      <point x="273" y="523" type="line"/>
    </contour>
  </outline>
</glyph>
<glyph name="Q.sc" format="1">
  <advance width="602"/>
  <outline>
    <contour>
      <point x="301" y="563" type="move" name="aboveUC"/>
    </contour>
    <contour>
      <point x="301" y="-12" type="curve" smooth="yes"/>
      <point x="449" y="-12"/>
      <point x="553" y="92"/>
      <point x="553" y="264" type="curve" smooth="yes"/>
      <point x="553" y="435"/>
      <point x="449" y="535"/>
      <point x="301" y="535" type="curve" smooth="yes"/>
      <point x="151" y="535"/>
      <point x="48" y="436"/>
      <point x="48" y="264" type="curve" smooth="yes"/>
      <point x="48" y="92"/>
      <point x="151" y="-12"/>
    </contour>
    <contour>
      <point x="301" y="77" type="curve" smooth="yes"/>
      <point x="218" y="77"/>
      <point x="167" y="147"/>
      <point x="167" y="264" type="curve" smooth="yes"/>
      <point x="167" y="374"/>
      <point x="218" y="439"/>
      <point x="301" y="439" type="curve" smooth="yes"/>
      <point x="382" y="439"/>
      <point x="434" y="374"/>
      <point x="434" y="264" type="curve" smooth="yes"/>
      <point x="434" y="147"/>
      <point x="382" y="77"/>
    </contour>
    <contour>
      <point x="475" y="-162" type="curve" smooth="yes"/>
      <point x="516" y="-162"/>
      <point x="550" y="-155"/>
      <point x="570" y="-145" type="curve"/>
      <point x="549" y="-62" type="line"/>
      <point x="532" y="-67"/>
      <point x="512" y="-71"/>
      <point x="488" y="-71" type="curve" smooth="yes"/>
      <point x="426" y="-71"/>
      <point x="375" y="-52"/>
      <point x="353" y="14" type="curve"/>
      <point x="239" y="4" type="line"/>
      <point x="275" y="-93"/>
      <point x="350" y="-162"/>
    </contour>
  </outline>
</glyph>
<glyph name="Q.sups" format="1">
  <advance width="452"/>
  <outline>
    <contour>
      <point x="224" y="256" type="curve" smooth="yes"/>
      <point x="339" y="256"/>
      <point x="420" y="342"/>
      <point x="420" y="482" type="curve" smooth="yes"/>
      <point x="420" y="621"/>
      <point x="339" y="704"/>
      <point x="224" y="704" type="curve" smooth="yes"/>
      <point x="109" y="704"/>
      <point x="29" y="622"/>
      <point x="29" y="482" type="curve" smooth="yes"/>
      <point x="29" y="342"/>
      <point x="109" y="256"/>
    </contour>
    <contour>
      <point x="224" y="325" type="curve" smooth="yes"/>
      <point x="157" y="325"/>
      <point x="115" y="386"/>
      <point x="115" y="482" type="curve" smooth="yes"/>
      <point x="115" y="576"/>
      <point x="157" y="632"/>
      <point x="224" y="632" type="curve" smooth="yes"/>
      <point x="291" y="632"/>
      <point x="334" y="576"/>
      <point x="334" y="482" type="curve" smooth="yes"/>
      <point x="334" y="386"/>
      <point x="291" y="325"/>
    </contour>
    <contour>
      <point x="365" y="150" type="curve" smooth="yes"/>
      <point x="397" y="150"/>
      <point x="423" y="156"/>
      <point x="438" y="163" type="curve"/>
      <point x="423" y="224" type="line"/>
      <point x="410" y="221"/>
      <point x="395" y="218"/>
      <point x="375" y="218" type="curve" smooth="yes"/>
      <point x="329" y="218"/>
      <point x="285" y="232"/>
      <point x="268" y="275" type="curve"/>
      <point x="183" y="266" type="line"/>
      <point x="210" y="198"/>
      <point x="273" y="150"/>
    </contour>
  </outline>
</glyph>
